<svg width="26" height="27" viewBox="0 0 26 27" fill="none" xmlns="http://www.w3.org/2000/svg">
<g clip-path="url(#clip0_144_63)">
<path d="M13 0.0229492C10.4288 0.0229492 7.91543 0.785386 5.77759 2.21384C3.63975 3.6423 1.97351 5.67263 0.989572 8.04807C0.00563272 10.4235 -0.251811 13.0374 0.249797 15.5591C0.751405 18.0809 1.98954 20.3973 3.80762 22.2153C5.6257 24.0334 7.94208 25.2716 10.4638 25.7732C12.9856 26.2748 15.5995 26.0173 17.9749 25.0334C20.3503 24.0494 22.3807 22.3832 23.8091 20.2454C25.2376 18.1075 26 15.5941 26 13.023C25.9963 9.57628 24.6254 6.27184 22.1883 3.83468C19.7511 1.39751 16.4467 0.0266771 13 0.0229492ZM13 21.6896C12.7857 21.6896 12.5763 21.6261 12.3981 21.507C12.22 21.388 12.0811 21.2188 11.9991 21.0209C11.9171 20.8229 11.8957 20.6051 11.9375 20.3949C11.9793 20.1848 12.0825 19.9918 12.234 19.8403C12.3855 19.6887 12.5785 19.5856 12.7887 19.5438C12.9988 19.502 13.2166 19.5234 13.4146 19.6054C13.6125 19.6874 13.7817 19.8263 13.9008 20.0044C14.0198 20.1826 14.0833 20.392 14.0833 20.6063C14.0833 20.8936 13.9692 21.1692 13.766 21.3723C13.5629 21.5755 13.2873 21.6896 13 21.6896ZM15.0908 13.5711C14.7711 13.771 14.5097 14.0516 14.3329 14.3845C14.156 14.7175 14.0699 15.0912 14.0833 15.468V16.273C14.0833 16.5603 13.9692 16.8358 13.766 17.039C13.5629 17.2421 13.2873 17.3563 13 17.3563C12.7127 17.3563 12.4371 17.2421 12.234 17.039C12.0308 16.8358 11.9167 16.5603 11.9167 16.273V15.468C11.9007 14.7037 12.0895 13.9489 12.4637 13.2822C12.8378 12.6154 13.3836 12.061 14.0443 11.6764C14.4446 11.4559 14.7649 11.1145 14.9595 10.7011C15.1541 10.2876 15.2129 9.82322 15.1277 9.37428C15.0433 8.94659 14.8333 8.55376 14.5245 8.24598C14.2158 7.9382 13.8223 7.72944 13.3943 7.64637C13.082 7.58856 12.7608 7.60012 12.4535 7.68023C12.1462 7.76034 11.8602 7.90704 11.6159 8.10994C11.3715 8.31284 11.1748 8.56698 11.0395 8.85436C10.9043 9.14175 10.8339 9.45534 10.8333 9.77295C10.8333 10.0603 10.7192 10.3358 10.516 10.539C10.3129 10.7421 10.0373 10.8563 9.75001 10.8563C9.46269 10.8563 9.18714 10.7421 8.98397 10.539C8.78081 10.3358 8.66667 10.0603 8.66667 9.77295C8.66694 9.00867 8.86935 8.25805 9.25336 7.59724C9.63737 6.93643 10.1893 6.38894 10.8532 6.0103C11.5171 5.63166 12.2694 5.43535 13.0336 5.44128C13.7979 5.44721 14.547 5.65516 15.2049 6.04405C15.8629 6.43294 16.4063 6.98893 16.78 7.65561C17.1537 8.3223 17.3444 9.07597 17.3328 9.84017C17.3213 10.6044 17.1078 11.3519 16.714 12.007C16.3203 12.662 15.7603 13.2023 15.0908 13.5711Z" fill="black"/>
</g>
<defs>
<clipPath id="clip0_144_63">
<rect width="26" height="26" fill="white" transform="translate(0 0.0229492)"/>
</clipPath>
</defs>
</svg>
