<svg width="24" height="26" viewBox="0 0 24 26" fill="none" xmlns="http://www.w3.org/2000/svg">
<path d="M11.9073 0C12.8042 0 13.5314 0.727128 13.5314 1.62407V7.03767C13.5314 7.93462 12.8042 8.66174 11.9073 8.66174C11.0103 8.66174 10.2832 7.93462 10.2832 7.03767V1.62407C10.2832 0.727128 11.0103 0 11.9073 0Z" fill="black"/>
<path d="M15.6967 5.34847C15.6887 5.89366 15.9636 6.40412 16.4232 6.69752C20.5053 9.19164 21.7926 14.5228 19.2984 18.6048C16.8043 22.6869 11.4732 23.9742 7.39112 21.4801C3.30901 18.986 2.02173 13.6549 4.5159 9.57274C5.22856 8.40635 6.20717 7.42516 7.37168 6.7094C7.83916 6.416 8.12144 5.90142 8.11769 5.34949C8.12018 4.45254 7.39508 3.72344 6.49813 3.72095C6.19007 3.72009 5.88809 3.80687 5.62748 3.97121C0.0399008 7.44186 -1.67619 14.7849 1.79441 20.3724C5.265 25.96 12.608 27.676 18.1956 24.2054C23.7831 20.7348 25.4992 13.3918 22.0286 7.80428C21.0625 6.24897 19.7509 4.93733 18.1956 3.97126C17.4344 3.49109 16.4282 3.71887 15.948 4.48C15.784 4.73995 15.6969 5.04107 15.6967 5.34847Z" fill="black"/>
</svg>
