<svg width="26" height="27" viewBox="0 0 26 27" fill="none" xmlns="http://www.w3.org/2000/svg">
<path d="M22.6105 13.2775L20.7937 7.06703C20.2612 5.24761 19.1038 3.64952 17.5056 2.52678C15.9074 1.40404 13.9601 0.821091 11.9731 0.870586C9.98614 0.920082 8.07362 1.59918 6.53952 2.79995C5.00542 4.00071 3.9378 5.65422 3.50635 7.49766L2.09976 13.5074C1.9444 14.1714 1.94799 14.8602 2.11028 15.5227C2.27257 16.1853 2.58941 16.8047 3.03741 17.3354C3.48541 17.866 4.05313 18.2943 4.69866 18.5886C5.34419 18.8828 6.05105 19.0356 6.76704 19.0356H7.83226C8.05172 20.0624 8.63809 20.9856 9.492 21.6488C10.3459 22.3119 11.4148 22.6741 12.5177 22.6741C13.6206 22.6741 14.6895 22.3119 15.5434 21.6488C16.3973 20.9856 16.9837 20.0624 17.2031 19.0356H18.0044C18.7415 19.0356 19.4686 18.8738 20.1289 18.5626C20.7892 18.2515 21.3649 17.7996 21.811 17.2421C22.257 16.6846 22.5613 16.0367 22.7002 15.3489C22.8391 14.6612 22.8078 13.9523 22.6105 13.2775ZM12.5177 20.8526C11.9265 20.8502 11.3505 20.6744 10.8685 20.3492C10.3865 20.0239 10.0221 19.5652 9.825 19.0356H15.2104C15.0133 19.5652 14.6489 20.0239 14.1669 20.3492C13.6849 20.6744 13.1089 20.8502 12.5177 20.8526ZM20.2879 16.142C20.0214 16.4779 19.6762 16.75 19.2797 16.9369C18.8831 17.1238 18.4461 17.2202 18.0035 17.2186H6.76704C6.33749 17.2185 5.91345 17.1268 5.5262 16.9502C5.13895 16.7736 4.79839 16.5166 4.52965 16.1982C4.26092 15.8799 4.07086 15.5082 3.97352 15.1107C3.87618 14.7132 3.87404 14.3 3.96725 13.9017L5.37288 7.89103C5.71172 6.44308 6.55027 5.14429 7.75524 4.20112C8.96021 3.25796 10.4624 2.72456 12.0231 2.68572C13.5838 2.64687 15.1134 3.10481 16.3687 3.98674C17.624 4.86866 18.5329 6.12396 18.9511 7.55307L20.7679 13.7636C20.8879 14.1682 20.9071 14.5938 20.8237 15.0067C20.7404 15.4196 20.5569 15.8083 20.2879 16.142Z" fill="black"/>
</svg>
