<svg width="24" height="25" viewBox="0 0 24 25" fill="none" xmlns="http://www.w3.org/2000/svg">
<path d="M12.0061 12.7855C15.6171 12.7645 17.5611 10.8145 17.6281 7.11454C17.5661 3.55454 15.5171 1.50054 11.9941 1.47754C8.43307 1.49954 6.37207 3.59954 6.37207 7.14954C6.37207 10.6995 8.43407 12.7645 12.0061 12.7855Z" fill="black"/>
<path d="M11.9942 14.1375C6.66624 14.1715 3.79924 17.0485 3.70324 22.4595C3.69924 22.7275 3.80224 22.9865 3.99024 23.1775C4.17824 23.3685 4.43524 23.4765 4.70324 23.4765H19.2982C19.5662 23.4765 19.8232 23.3685 20.0112 23.1775C20.1992 22.9865 20.3022 22.7275 20.2982 22.4595C20.2062 17.1265 17.2622 14.1715 11.9942 14.1375Z" fill="black"/>
</svg>
