<svg width="26" height="26" viewBox="0 0 26 26" fill="none" xmlns="http://www.w3.org/2000/svg">
<path d="M10.5171 2.1665H3.74631C2.87516 2.1665 2.1665 2.87516 2.1665 3.74631V7.80881C2.1665 8.68013 2.87516 9.38878 3.74631 9.38878H10.5171C11.3885 9.38878 12.0971 8.68013 12.0971 7.80881V3.74631C12.0971 2.87516 11.3885 2.1665 10.5171 2.1665ZM10.5171 11.1942H3.74631C2.87516 11.1942 2.1665 11.9029 2.1665 12.7742V22.2534C2.1665 23.1245 2.87516 23.8332 3.74631 23.8332H10.5171C11.3885 23.8332 12.0971 23.1245 12.0971 22.2534V12.7742C12.0971 11.9029 11.3885 11.1942 10.5171 11.1942ZM22.2534 16.6109H15.4825C14.6112 16.6109 13.9026 17.3195 13.9026 18.1909V22.2534C13.9026 23.1245 14.6112 23.8332 15.4825 23.8332H22.2534C23.1245 23.8332 23.8332 23.1245 23.8332 22.2534V18.1909C23.8332 17.3195 23.1245 16.6109 22.2534 16.6109ZM22.2534 2.1665H15.4825C14.6112 2.1665 13.9026 2.87516 13.9026 3.74631V13.2255C13.9026 14.0968 14.6112 14.8054 15.4825 14.8054H22.2534C23.1245 14.8054 23.8332 14.0968 23.8332 13.2255V3.74631C23.8332 2.87516 23.1245 2.1665 22.2534 2.1665Z" fill="white"/>
</svg>
