<svg width="30" height="30" viewBox="0 0 30 30" fill="none" xmlns="http://www.w3.org/2000/svg">
<path d="M20.2375 2.5H9.7625C5.2125 2.5 2.5 5.2125 2.5 9.7625V20.225C2.5 24.7875 5.2125 27.5 9.7625 27.5H20.225C24.775 27.5 27.4875 24.7875 27.4875 20.2375V9.7625C27.5 5.2125 24.7875 2.5 20.2375 2.5ZM13.6875 21.8875C13.325 22.25 12.6375 22.6 12.1375 22.675L9.0625 23.1125C8.95 23.125 8.8375 23.1375 8.725 23.1375C8.2125 23.1375 7.7375 22.9625 7.4 22.625C6.9875 22.2125 6.8125 21.6125 6.9125 20.95L7.35 17.875C7.425 17.3625 7.7625 16.6875 8.1375 16.325L13.7125 10.75C13.8125 11.0125 13.9125 11.275 14.05 11.575C14.175 11.8375 14.3125 12.1125 14.4625 12.3625C14.5875 12.575 14.725 12.775 14.8375 12.925C14.975 13.1375 15.1375 13.3375 15.2375 13.45C15.3 13.5375 15.35 13.6 15.375 13.625C15.6875 14 16.05 14.35 16.3625 14.6125C16.45 14.7 16.5 14.75 16.525 14.7625C16.7125 14.9125 16.9 15.0625 17.0625 15.175C17.2625 15.325 17.4625 15.4625 17.675 15.575C17.925 15.725 18.2 15.8625 18.475 16C18.7625 16.125 19.025 16.2375 19.2875 16.325L13.6875 21.8875ZM21.7125 13.8625L20.5625 15.025C20.4875 15.1 20.3875 15.1375 20.2875 15.1375C20.25 15.1375 20.2 15.1375 20.175 15.125C17.6375 14.4 15.6125 12.375 14.8875 9.8375C14.85 9.7 14.8875 9.55 14.9875 9.4625L16.15 8.3C18.05 6.4 19.8625 6.4375 21.725 8.3C22.675 9.25 23.1375 10.1625 23.1375 11.1125C23.125 12.0125 22.6625 12.9125 21.7125 13.8625Z" fill="#A0FFBA"/>
</svg>
