<svg width="40" height="40" viewBox="0 0 40 40" fill="none" xmlns="http://www.w3.org/2000/svg">
<g clip-path="url(#clip0_176_326)">
<path d="M20 40C8.97167 40 0 31.0283 0 20C0 8.97167 8.97167 0 20 0C31.0283 0 40 8.97167 40 20C40 31.0283 31.0283 40 20 40ZM26.6667 26.6667H17.5717C18.1983 26.1083 19.1317 25.5517 20.295 24.88C23.1333 23.2417 26.6667 21.2017 26.6667 16.6667C26.6667 12.99 23.6767 10 20 10C16.3233 10 13.3333 12.99 13.3333 16.6667H16.6667C16.6667 14.8283 18.1617 13.3333 20 13.3333C21.8383 13.3333 23.3333 14.8283 23.3333 16.6667C23.3333 19.1017 21.5567 20.3033 18.6283 21.9933C16.1467 23.425 13.3333 25.05 13.3333 28.3333V30H26.6667V26.6667Z" fill="white"/>
</g>
<defs>
<clipPath id="clip0_176_326">
<rect width="40" height="40" fill="white"/>
</clipPath>
</defs>
</svg>
