<svg width="40" height="40" viewBox="0 0 40 40" fill="none" xmlns="http://www.w3.org/2000/svg">
<g clip-path="url(#clip0_176_330)">
<path d="M20 0C8.97167 0 0 8.97167 0 20C0 31.0283 8.97167 40 20 40C31.0283 40 40 31.0283 40 20C40 8.97167 31.0283 0 20 0ZM21.6667 30H15V26.6667H21.6667C23.505 26.6667 25 25.1717 25 23.3333C25 21.495 23.505 20 21.6667 20H16.6667V16.6667H21.6667C22.5867 16.6667 23.3333 15.92 23.3333 15C23.3333 14.08 22.5867 13.3333 21.6667 13.3333H15V10H21.6667C24.4233 10 26.6667 12.2433 26.6667 15C26.6667 16.1333 26.2733 17.1683 25.635 18.0083C27.2633 19.225 28.3333 21.15 28.3333 23.3333C28.3333 27.01 25.3433 30 21.6667 30Z" fill="white"/>
</g>
<defs>
<clipPath id="clip0_176_330">
<rect width="40" height="40" fill="white"/>
</clipPath>
</defs>
</svg>
