<svg width="28" height="27" viewBox="0 0 28 27" fill="none" xmlns="http://www.w3.org/2000/svg">
<path d="M20 3.81409V2.64209C20 2.08909 19.552 1.64209 19 1.64209C18.448 1.64209 18 2.08909 18 2.64209V3.64209H16V2.64209C16 2.08909 15.552 1.64209 15 1.64209C14.448 1.64209 14 2.08909 14 2.64209V3.64209H12V2.64209C12 2.08909 11.552 1.64209 11 1.64209C10.448 1.64209 10 2.08909 10 2.64209V3.64209H8V2.64209C8 2.08909 7.552 1.64209 7 1.64209C6.448 1.64209 6 2.08909 6 2.64209V3.81409C4.836 4.22709 4 5.33809 4 6.64209V20.6421C4 23.3991 6.243 25.6421 9 25.6421H17C19.757 25.6421 22 23.3991 22 20.6421V6.64209C22 5.33809 21.164 4.22709 20 3.81409ZM14 18.6421H9C8.448 18.6421 8 18.1951 8 17.6421C8 17.0891 8.448 16.6421 9 16.6421H14C14.552 16.6421 15 17.0891 15 17.6421C15 18.1951 14.552 18.6421 14 18.6421ZM17 14.6421H9C8.448 14.6421 8 14.1951 8 13.6421C8 13.0891 8.448 12.6421 9 12.6421H17C17.552 12.6421 18 13.0891 18 13.6421C18 14.1951 17.552 14.6421 17 14.6421ZM17 10.6421H9C8.448 10.6421 8 10.1951 8 9.64209C8 9.08909 8.448 8.64209 9 8.64209H17C17.552 8.64209 18 9.08909 18 9.64209C18 10.1951 17.552 10.6421 17 10.6421ZM26 25.6421L24.879 24.5211C24.316 23.9581 24 23.1951 24 22.4001V3.64209C24 2.53709 24.895 1.64209 26 1.64209C27.105 1.64209 28 2.53709 28 3.64209V22.3991C28 23.1951 27.684 23.9581 27.121 24.5201L26 25.6421Z" fill="white"/>
</svg>
