<svg width="26" height="27" viewBox="0 0 26 27" fill="none" xmlns="http://www.w3.org/2000/svg">
<path d="M6.99989 12.2536C10.3089 12.2536 12.9999 9.56256 12.9999 6.25356C12.9999 2.94456 10.3089 0.253561 6.99989 0.253561C3.69089 0.253561 0.999894 2.94456 0.999894 6.25356C0.999894 9.56256 3.69089 12.2536 6.99989 12.2536ZM6.99989 2.25356C9.20589 2.25356 10.9999 4.04756 10.9999 6.25356C10.9999 7.38056 10.5279 8.39656 9.77489 9.12356C9.32889 8.02856 8.25889 7.25356 7.00489 7.25356H6.99489C5.73989 7.25356 4.66889 8.02756 4.22289 9.12256C3.47189 8.39456 2.99989 7.38056 2.99989 6.25356C2.99989 4.04756 4.79389 2.25356 6.99989 2.25356ZM5.49989 4.75356C5.49989 3.92556 6.17189 3.25356 6.99989 3.25356C7.82789 3.25356 8.49989 3.92556 8.49989 4.75356C8.49989 5.58156 7.82789 6.25356 6.99989 6.25356C6.17189 6.25356 5.49989 5.58156 5.49989 4.75356ZM24.3629 7.13256C24.2439 7.17956 24.1209 7.20056 23.9999 7.20056C23.5999 7.20056 23.2219 6.95956 23.0679 6.56356L21.9539 3.70856C18.2969 11.4606 11.6799 16.6746 2.25989 19.2196C2.17289 19.2426 2.08489 19.2536 1.99889 19.2536C1.55789 19.2536 1.15389 18.9606 1.03389 18.5146C0.889894 17.9816 1.20489 17.4326 1.73889 17.2876C10.5979 14.8946 16.7959 10.0086 20.1889 2.75556L17.1169 3.95356C16.5999 4.15556 16.0219 3.89856 15.8219 3.38556C15.6209 2.87056 15.8759 2.29156 16.3899 2.09056L20.7909 0.373561C21.7479 -0.00243862 22.8389 0.475561 23.2149 1.43556L24.9319 5.83656C25.1329 6.35156 24.8779 6.93056 24.3639 7.13156L24.3629 7.13256ZM23.9999 9.25356V23.2536C23.9999 23.8066 23.5519 24.2536 22.9999 24.2536C22.4479 24.2536 21.9999 23.8066 21.9999 23.2536V9.25356C21.9999 8.70056 22.4479 8.25356 22.9999 8.25356C23.5519 8.25356 23.9999 8.70056 23.9999 9.25356ZM18.9999 14.2536V23.2536C18.9999 23.8066 18.5519 24.2536 17.9999 24.2536C17.4479 24.2536 16.9999 23.8066 16.9999 23.2536V14.2536C16.9999 13.7006 17.4479 13.2536 17.9999 13.2536C18.5519 13.2536 18.9999 13.7006 18.9999 14.2536ZM13.9999 18.2536V23.2536C13.9999 23.8066 13.5519 24.2536 12.9999 24.2536C12.4479 24.2536 11.9999 23.8066 11.9999 23.2536V18.2536C11.9999 17.7006 12.4479 17.2536 12.9999 17.2536C13.5519 17.2536 13.9999 17.7006 13.9999 18.2536ZM8.99989 20.2536V23.2536C8.99989 23.8066 8.55189 24.2536 7.99989 24.2536C7.44789 24.2536 6.99989 23.8066 6.99989 23.2536V20.2536C6.99989 19.7006 7.44789 19.2536 7.99989 19.2536C8.55189 19.2536 8.99989 19.7006 8.99989 20.2536ZM3.99989 22.2536V23.2536C3.99989 23.8066 3.55189 24.2536 2.99989 24.2536C2.44789 24.2536 1.99989 23.8066 1.99989 23.2536V22.2536C1.99989 21.7006 2.44789 21.2536 2.99989 21.2536C3.55189 21.2536 3.99989 21.7006 3.99989 22.2536Z" fill="white"/>
</svg>
