<svg width="500" height="500" viewBox="0 0 500 500" fill="none" xmlns="http://www.w3.org/2000/svg">
<path d="M406.641 94.003C389.481 76.418 369.824 61.802 348.927 51.563C317.106 35.972 282.058 28.457 247.006 28.011C144.565 26.706 136.768 152.808 105.271 170.341C73.7741 187.874 16.6871 189.937 14.7181 260.07C13.4791 304.182 23.3071 349.541 50.9411 383.91C76.2521 415.388 113.435 431.342 150.067 443.129C191.204 456.365 234.833 469.349 278.104 460.419C322.51 451.255 353.709 414.409 390.177 389.512C413.139 373.835 433.748 357.327 447.925 332.172C449.618 329.167 451.209 326.097 452.719 322.986C471.698 283.897 475.42 238.809 464.953 196.51C455.56 158.552 434.357 122.405 406.641 94.003Z" fill="#92E3A9"/>
<path opacity="0.7" d="M406.641 94.003C389.481 76.418 369.824 61.802 348.927 51.563C317.106 35.972 282.058 28.457 247.006 28.011C144.565 26.706 136.768 152.808 105.271 170.341C73.7741 187.874 16.6871 189.937 14.7181 260.07C13.4791 304.182 23.3071 349.541 50.9411 383.91C76.2521 415.388 113.435 431.342 150.067 443.129C191.204 456.365 234.833 469.349 278.104 460.419C322.51 451.255 353.709 414.409 390.177 389.512C413.139 373.835 433.748 357.327 447.925 332.172C449.618 329.167 451.209 326.097 452.719 322.986C471.698 283.897 475.42 238.809 464.953 196.51C455.56 158.552 434.357 122.405 406.641 94.003Z" fill="white"/>
<path d="M322.098 97.3389C320.937 98.2389 319.747 98.8139 318.557 99.0789C315.008 99.8679 305.542 99.4729 303.965 103.812C302.388 108.15 298.049 109.333 298.049 109.333C298.049 109.333 290.556 109.728 290.161 111.305C289.767 112.882 287.006 115.643 287.006 115.643H415.969C415.969 115.643 420.307 108.938 413.208 102.628C406.996 97.1069 395.652 105.475 394.234 98.6699" stroke="#263238" stroke-miterlimit="10" stroke-linecap="round" stroke-linejoin="round"/>
<path d="M393.066 88.63C391.627 83.443 388.598 76.44 382.447 73.838C372.193 69.5 363.516 75.416 361.15 81.331C358.784 87.247 357.206 91.19 348.135 86.064C339.064 80.937 331.177 81.331 328.416 88.036C327.516 90.222 326.532 92.072 325.492 93.601" stroke="#263238" stroke-miterlimit="10" stroke-linecap="round" stroke-linejoin="round"/>
<path d="M103.049 166.103H147.837C147.837 166.103 150.461 162.048 146.167 158.231C141.873 154.414 133.524 161.571 134.717 153.46C134.717 153.46 133.763 143.441 127.561 140.817C123.636 139.157 120.093 139.98 117.658 141.715" stroke="#263238" stroke-miterlimit="10" stroke-linecap="round" stroke-linejoin="round"/>
<path d="M114.68 145.35C113.249 148.928 112.295 151.313 106.808 148.212C101.322 145.111 96.551 145.35 94.881 149.405C93.211 153.46 91.064 155.607 88.917 156.084C86.77 156.561 81.045 156.322 80.091 158.946C79.137 161.57 76.513 162.285 76.513 162.285C76.513 162.285 71.981 162.524 71.742 163.478C71.503 164.432 69.834 166.102 69.834 166.102H96.022" stroke="#263238" stroke-miterlimit="10" stroke-linecap="round" stroke-linejoin="round"/>
<path d="M327.246 166.103H348.4C348.4 166.103 351.024 162.048 346.73 158.231C342.436 154.414 334.087 161.571 335.28 153.46C335.28 153.46 334.326 143.441 328.124 140.817C321.922 138.193 316.674 141.771 315.243 145.349C313.812 148.927 312.858 151.312 307.371 148.211C301.884 145.11 297.114 145.349 295.444 149.404C293.774 153.459 291.627 155.606 289.481 156.083C287.334 156.56 281.609 156.321 280.655 158.945C279.701 161.569 277.077 162.284 277.077 162.284C277.077 162.284 272.545 162.523 272.306 163.477C272.067 164.431 270.398 166.101 270.398 166.101H320.22" stroke="#263238" stroke-miterlimit="10" stroke-linecap="round" stroke-linejoin="round"/>
<g opacity="0.1">
<path d="M23.2299 232.166C27.1679 232.952 35.9159 230.838 35.9229 230.836C36.0129 230.814 32.7779 225.492 32.5359 225.18C29.7269 221.564 22.1739 216.231 17.3559 217.984C13.8859 219.247 12.6769 223.259 14.2179 226.451C15.7919 229.71 19.8769 231.496 23.2299 232.166Z" fill="black"/>
<path d="M31.8169 256.972C35.6639 256.703 43.0149 252.717 43.5989 252.397C45.7959 256.52 48.3839 260.572 51.2289 264.528C52.8529 266.792 54.5589 269.021 56.2979 271.235C55.3539 270.343 54.5029 269.552 54.3719 269.454C50.7069 266.709 42.0139 263.56 37.8309 266.523C34.8149 268.657 34.7099 272.846 37.0399 275.517C39.4179 278.245 43.8309 278.888 47.2409 278.649C50.7029 278.407 57.0369 275.134 58.7029 274.246C59.3789 275.088 60.0439 275.937 60.7239 276.776C63.9829 280.805 67.2509 284.812 70.3379 288.84C71.4259 290.259 72.4449 291.696 73.4719 293.131C72.6319 292.339 71.9179 291.679 71.7989 291.589C68.1349 288.845 59.4419 285.695 55.2579 288.659C52.2439 290.794 52.1379 294.983 54.4669 297.653C56.8469 300.38 61.2579 301.024 64.6689 300.785C67.9719 300.554 73.8469 297.586 75.8299 296.54C76.8359 298.041 77.8459 299.542 78.7529 301.041C79.3489 302.079 79.9959 303.036 80.5349 304.112C81.0939 305.166 81.6449 306.209 82.1919 307.243C83.1719 309.27 84.1959 311.358 85.1019 313.36C85.7429 314.748 86.3279 316.083 86.9219 317.426C85.8549 316.001 83.7079 313.255 83.5019 313.046C80.2969 309.778 72.1809 305.349 67.5959 307.644C64.2929 309.298 63.5539 313.422 65.4529 316.414C67.3909 319.47 71.6539 320.775 75.0609 321.056C78.8129 321.364 86.3869 318.684 87.3309 318.343C88.3049 320.568 89.2319 322.742 90.0729 324.807C90.6989 326.335 91.2869 327.806 91.8409 329.221L94.9599 328.541C94.3089 326.972 93.6159 325.335 92.8699 323.625C91.8899 321.362 90.7979 318.963 89.6529 316.509C90.1879 316.149 93.2159 314.081 95.8009 311.795C98.9699 314.012 106.248 315.83 107.188 316.058C106.774 318.451 106.347 320.775 105.908 322.962C105.679 324.121 105.45 325.216 105.221 326.304L108.519 325.585C108.644 324.901 108.769 324.231 108.894 323.52C109.326 321.091 109.738 318.487 110.137 315.81C111.122 315.802 119.173 315.686 122.589 314.092C125.686 312.645 129.232 309.941 129.989 306.401C130.73 302.936 128.603 299.325 124.931 298.922C119.835 298.362 113.763 305.335 111.892 309.513C111.781 309.759 110.882 312.568 110.345 314.348C110.502 313.253 110.666 312.192 110.814 311.063C111.123 308.832 111.363 306.597 111.631 304.193C111.72 303.028 111.81 301.85 111.901 300.661C112.015 299.484 111.987 298.226 112.037 296.997C112.092 294.144 112.008 291.252 111.859 288.34C113.813 288.604 120.766 289.444 124.062 288.478C127.344 287.517 131.257 285.382 132.54 281.998C133.797 278.685 132.243 274.793 128.675 273.838C123.722 272.513 116.664 278.486 114.181 282.332C114.026 282.571 112.555 285.532 111.779 287.173C111.676 285.423 111.582 283.676 111.42 281.909C110.954 276.808 110.323 271.66 109.717 266.52C109.53 264.946 109.363 263.375 109.19 261.803C109.885 261.905 118.126 263.081 121.819 262C125.101 261.04 129.015 258.904 130.298 255.52C131.555 252.207 130.001 248.315 126.433 247.361C121.481 246.035 114.422 252.008 111.94 255.854C111.753 256.144 109.642 260.407 109.159 261.517C108.778 258.055 108.432 254.602 108.229 251.184C107.941 246.469 107.921 241.826 108.232 237.326C108.555 237.374 117.152 238.64 120.934 237.534C124.216 236.573 128.13 234.437 129.413 231.053C130.67 227.74 129.116 223.849 125.547 222.893C120.594 221.567 113.536 227.54 111.053 231.387C110.858 231.689 108.59 236.276 108.238 237.137C108.257 236.87 108.248 236.59 108.271 236.324C108.665 231.525 109.649 226.925 110.782 222.664C111.435 220.186 112.199 217.855 112.991 215.603C114.569 216.003 121.796 217.752 125.309 217.132C128.676 216.538 132.801 214.844 134.448 211.622C136.061 208.467 134.944 204.428 131.502 203.087C126.724 201.226 119.053 206.387 116.163 209.938C116.006 210.131 114.626 212.271 113.643 213.843C114.016 212.832 114.383 211.782 114.76 210.821C116.168 207.208 117.679 203.987 119.041 201.145C119.828 199.536 120.572 198.095 121.283 196.755C123.035 196.341 130.076 194.581 132.858 192.45C135.571 190.371 138.453 186.968 138.43 183.348C138.407 179.804 135.554 176.735 131.882 177.131C126.785 177.679 122.354 185.795 121.425 190.279C121.345 190.667 120.786 196.87 120.877 196.849C120.877 196.849 120.962 196.829 120.983 196.825C120.273 198.101 119.528 199.477 118.743 200.997C117.316 203.815 115.73 207.012 114.24 210.608C112.74 214.198 111.211 218.14 109.976 222.438C108.732 226.744 107.644 231.338 107.135 236.215C107.129 236.27 107.13 236.328 107.125 236.384C106.831 234.911 105.871 230.819 105.762 230.514C104.22 226.203 98.7069 218.78 93.5819 218.943C89.8909 219.061 87.4909 222.496 87.9609 226.009C88.4409 229.596 91.7649 232.566 94.7419 234.249C98.0989 236.146 106.429 236.876 107.092 236.933C106.649 241.582 106.573 246.39 106.763 251.259C106.869 254.044 107.063 256.844 107.292 259.65C106.997 258.384 106.724 257.255 106.668 257.102C105.126 252.791 99.6139 245.369 94.4889 245.532C90.7969 245.649 88.3979 249.085 88.8679 252.597C89.3469 256.185 92.6719 259.155 95.6479 260.837C98.6689 262.544 105.758 263.31 107.636 263.487C107.736 264.562 107.823 265.638 107.926 266.713C108.421 271.871 108.938 277.016 109.29 282.078C109.415 283.862 109.473 285.623 109.536 287.384C109.273 286.261 109.041 285.317 108.991 285.177C107.448 280.866 101.936 273.443 96.8129 273.606C93.1199 273.725 90.7209 277.159 91.1899 280.673C91.6689 284.259 94.9949 287.23 97.9719 288.912C100.854 290.542 107.392 291.307 109.623 291.528C109.634 293.335 109.648 295.144 109.577 296.895C109.501 298.09 109.512 299.244 109.37 300.441C109.254 301.627 109.139 302.802 109.025 303.965C108.723 306.198 108.426 308.503 108.077 310.673C107.846 312.185 107.597 313.621 107.352 315.067C107.248 313.29 106.972 309.815 106.916 309.528C106.337 306.542 104.228 301.941 101.388 299.003C101.305 298.562 101.185 298.13 101.02 297.71C99.7249 294.411 95.9599 292.572 92.6749 294.261C88.1159 296.605 86.8979 305.771 87.6429 310.287C87.6869 310.554 88.4859 313.391 89.0199 315.174C88.5459 314.174 88.0989 313.198 87.5989 312.175C86.6249 310.145 85.5919 308.148 84.4899 305.994C83.9219 304.973 83.3459 303.942 82.7659 302.9C82.2129 301.856 81.4949 300.822 80.8579 299.77C79.3299 297.362 77.6639 294.994 75.9339 292.647C77.7099 291.789 83.9719 288.654 86.1889 286.03C88.3969 283.419 90.4819 279.477 89.6859 275.948C88.9059 272.491 85.4639 270.102 81.9599 271.274C77.0979 272.9 74.5049 281.776 74.5559 286.354C74.5599 286.64 74.9659 289.92 75.2229 291.718C74.1719 290.316 73.1299 288.91 72.0189 287.525C68.8169 283.527 65.4509 279.581 62.1089 275.629C61.0849 274.419 60.0799 273.201 59.0679 271.986C59.7039 271.687 67.2269 268.121 69.7109 265.182C71.9179 262.571 74.0039 258.63 73.2079 255.1C72.4279 251.644 68.9859 249.254 65.4829 250.427C60.6209 252.053 58.0279 260.928 58.0789 265.506C58.0829 265.851 58.6749 270.57 58.8829 271.763C56.6559 269.086 54.4619 266.397 52.4059 263.658C49.5649 259.883 46.9859 256.023 44.7639 252.098C45.0609 251.959 52.9289 248.272 55.4729 245.263C57.6799 242.652 59.7659 238.711 58.9689 235.18C58.1899 231.723 54.7469 229.335 51.2429 230.507C46.3809 232.133 43.7889 241.009 43.8409 245.587C43.8449 245.947 44.4839 251.024 44.6659 251.935C44.5339 251.702 44.3719 251.475 44.2429 251.24C41.9249 247.018 40.2079 242.639 38.8019 238.46C37.9799 236.034 37.3309 233.668 36.7509 231.353C38.2869 230.816 45.2799 228.288 47.8679 225.832C50.3489 223.478 52.8549 219.79 52.4509 216.195C52.0549 212.673 48.8959 209.921 45.2859 210.701C40.2739 211.783 36.7229 220.321 36.2709 224.876C36.2459 225.124 36.2749 227.67 36.3229 229.524C36.0769 228.475 35.8029 227.397 35.5879 226.387C34.7689 222.598 34.2519 219.077 33.8199 215.955C33.5879 214.177 33.4139 212.566 33.2689 211.057C34.5009 209.744 39.4019 204.392 40.5469 201.08C41.6639 197.848 42.1889 193.421 40.1739 190.416C38.1999 187.472 34.1269 186.486 31.2829 188.842C27.3339 192.112 28.1169 201.326 29.8139 205.577C29.9619 205.944 32.9169 211.426 32.9829 211.359C32.9829 211.359 33.0429 211.295 33.0569 211.28C33.1689 212.735 33.3069 214.295 33.4909 215.995C33.8549 219.132 34.2959 222.673 35.0369 226.496C35.7669 230.318 36.6659 234.449 38.0069 238.715C39.3459 242.992 40.9709 247.424 43.2369 251.773C43.2629 251.822 43.2959 251.87 43.3219 251.919C42.2639 250.853 39.2059 247.97 38.9459 247.776C35.2819 245.031 26.5889 241.882 22.4049 244.844C19.3909 246.979 19.2839 251.168 21.6139 253.839C23.9959 256.568 28.4059 257.211 31.8169 256.972Z" fill="black"/>
<path d="M112.585 214.712C112.673 214.744 112.91 208.519 112.881 208.125C112.532 203.561 109.174 194.945 104.188 193.75C100.597 192.888 97.3759 195.568 96.9019 199.081C96.4169 202.667 98.8379 206.41 101.266 208.819C104.114 211.647 112.578 214.709 112.585 214.712Z" fill="black"/>
</g>
<g opacity="0.1">
<path d="M469.056 318.286C465.679 318.414 458.692 315.49 458.686 315.488C458.614 315.457 462.012 311.467 462.255 311.24C465.071 308.61 472.059 305.186 475.828 307.285C478.543 308.797 479.013 312.293 477.306 314.739C475.564 317.237 471.932 318.176 469.056 318.286Z" fill="black"/>
<path d="M458.612 337.753C455.451 337.016 449.875 332.724 449.432 332.38C447.057 335.513 444.366 338.535 441.474 341.443C439.823 343.108 438.108 344.732 436.368 346.34C437.271 345.725 438.084 345.181 438.206 345.117C441.617 343.325 449.261 341.868 452.341 344.888C454.562 347.064 454.091 350.558 451.799 352.467C449.459 354.417 445.706 354.363 442.905 353.709C440.061 353.046 435.233 349.482 433.968 348.522C433.294 349.132 432.628 349.748 431.952 350.355C428.707 353.269 425.456 356.162 422.355 359.097C421.262 360.131 420.223 361.189 419.179 362.244C419.982 361.698 420.663 361.245 420.775 361.186C424.185 359.394 431.829 357.937 434.91 360.957C437.13 363.133 436.66 366.628 434.368 368.536C432.027 370.485 428.276 370.432 425.473 369.778C422.759 369.145 418.274 365.896 416.765 364.762C415.729 365.875 414.689 366.987 413.736 368.113C413.102 368.896 412.437 369.605 411.845 370.427C411.241 371.228 410.643 372.022 410.051 372.807C408.966 374.361 407.837 375.959 406.817 377.502C406.099 378.57 405.435 379.601 404.763 380.638C405.839 379.596 407.99 377.601 408.189 377.454C411.288 375.166 418.623 372.568 422.126 375.086C424.65 376.901 424.714 380.426 422.737 382.66C420.719 384.941 417.003 385.457 414.134 385.236C410.975 384.991 405.039 381.755 404.3 381.345C403.194 383.064 402.134 384.747 401.16 386.351C400.436 387.537 399.751 388.681 399.102 389.783L396.601 388.802C397.351 387.585 398.145 386.317 398.993 384.996C400.109 383.246 401.336 381.398 402.615 379.512C402.219 379.141 399.978 377.019 398.135 374.775C395.206 376.195 388.916 376.734 388.104 376.798C388.129 378.842 388.174 380.83 388.247 382.705C388.283 383.698 388.327 384.639 388.372 385.574L385.727 384.537C385.714 383.952 385.699 383.378 385.691 382.771C385.656 380.695 385.661 378.476 385.687 376.199C384.869 376.061 378.195 374.891 375.569 373.111C373.188 371.496 370.603 368.776 370.446 365.733C370.292 362.755 372.541 360.038 375.646 360.193C379.955 360.407 384.071 367.011 385.068 370.732C385.127 370.952 385.499 373.405 385.709 374.956C385.725 374.025 385.73 373.122 385.757 372.164C385.798 370.269 385.896 368.38 385.994 366.347C386.076 365.367 386.158 364.377 386.241 363.377C386.303 362.384 386.494 361.342 386.617 360.314C386.952 357.936 387.407 355.544 387.919 353.144C386.26 353.103 380.371 352.873 377.76 351.631C375.161 350.395 372.194 348.099 371.579 345.116C370.976 342.195 372.787 339.169 375.879 338.851C380.171 338.411 385.24 344.315 386.79 347.842C386.887 348.061 387.714 350.718 388.14 352.185C388.459 350.745 388.77 349.306 389.141 347.859C390.209 343.683 391.42 339.489 392.609 335.299C392.974 334.016 393.322 332.733 393.676 331.45C393.085 331.442 386.08 331.32 383.155 329.93C380.556 328.695 377.589 326.398 376.974 323.414C376.371 320.494 378.182 317.467 381.274 317.15C385.566 316.709 390.634 322.613 392.184 326.14C392.301 326.406 393.486 330.229 393.74 331.217C394.518 328.391 395.266 325.568 395.891 322.755C396.759 318.875 397.395 315.02 397.736 311.239C397.461 311.236 390.148 311.141 387.154 309.718C384.555 308.482 381.588 306.185 380.973 303.202C380.37 300.282 382.181 297.255 385.273 296.938C389.565 296.497 394.633 302.401 396.184 305.929C396.305 306.206 397.579 310.32 397.756 311.083C397.776 310.858 397.821 310.627 397.837 310.403C398.15 306.363 397.945 302.409 397.572 298.717C397.36 296.571 397.036 294.532 396.678 292.555C395.314 292.677 389.075 293.166 386.238 292.183C383.519 291.24 380.318 289.283 379.379 286.386C378.459 283.549 379.926 280.342 382.965 279.687C387.183 278.778 392.869 284.089 394.797 287.425C394.902 287.606 395.763 289.568 396.37 291.006C396.195 290.116 396.03 289.195 395.845 288.346C395.157 285.156 394.331 282.278 393.579 279.734C393.139 278.292 392.714 276.996 392.302 275.787C390.902 275.209 385.286 272.807 383.258 270.666C381.281 268.576 379.34 265.365 379.842 262.36C380.334 259.418 383.114 257.248 386.112 258.067C390.274 259.203 392.874 266.537 393.048 270.387C393.062 270.72 392.7 275.949 392.627 275.919C392.627 275.919 392.559 275.891 392.542 275.885C392.962 277.04 393.397 278.282 393.847 279.65C394.657 282.182 395.548 285.05 396.307 288.236C397.075 291.419 397.819 294.899 398.272 298.634C398.731 302.378 399.023 306.34 398.796 310.461C398.794 310.507 398.785 310.556 398.782 310.603C399.223 309.418 400.566 306.146 400.698 305.908C402.554 302.532 408.125 297.099 412.362 297.918C415.413 298.509 416.949 301.683 416.091 304.539C415.214 307.456 412.056 309.48 409.357 310.482C406.314 311.611 399.295 311.107 398.737 311.065C398.485 314.987 397.907 318.992 397.1 323.013C396.64 325.313 396.106 327.614 395.541 329.915C395.955 328.903 396.333 328.001 396.4 327.881C398.257 324.504 403.826 319.072 408.063 319.891C411.115 320.481 412.65 323.656 411.791 326.512C410.915 329.429 407.756 331.454 405.058 332.455C402.32 333.471 396.327 333.162 394.743 333.058C394.517 333.938 394.301 334.82 394.072 335.7C392.973 339.92 391.857 344.126 390.89 348.286C390.548 349.752 390.266 351.207 389.978 352.662C390.347 351.764 390.665 351.01 390.725 350.901C392.582 347.524 398.152 342.092 402.388 342.91C405.441 343.501 406.976 346.675 406.118 349.532C405.242 352.448 402.082 354.473 399.384 355.474C396.772 356.444 391.237 356.208 389.354 356.094C389.104 357.594 388.851 359.095 388.676 360.56C388.58 361.563 388.417 362.521 388.375 363.534C388.314 364.535 388.252 365.527 388.191 366.508C388.144 368.404 388.084 370.358 388.084 372.208C388.075 373.495 388.09 374.722 388.101 375.956C388.425 374.494 389.117 371.643 389.202 371.412C390.082 369.008 392.447 365.466 395.199 363.404C395.327 363.048 395.484 362.705 395.677 362.379C397.193 359.81 400.567 358.784 403.071 360.626C406.547 363.182 406.336 370.961 405.115 374.614C405.043 374.83 404 377.081 403.319 378.491C403.846 377.723 404.348 376.972 404.9 376.189C405.98 374.632 407.105 373.11 408.308 371.467C408.917 370.695 409.532 369.915 410.154 369.126C410.753 368.332 411.487 367.569 412.157 366.779C413.748 364.982 415.448 363.236 417.199 361.517C415.837 360.567 411.052 357.127 409.56 354.651C408.074 352.187 406.867 348.634 407.998 345.807C409.107 343.039 412.286 341.513 415.041 342.954C418.864 344.954 419.835 352.675 419.182 356.472C419.141 356.709 418.366 359.381 417.912 360.84C418.972 359.815 420.026 358.786 421.133 357.783C424.327 354.888 427.651 352.058 430.954 349.22C431.966 348.351 432.964 347.473 433.967 346.599C433.479 346.266 427.703 342.299 426.031 339.526C424.545 337.062 423.337 333.509 424.47 330.682C425.579 327.914 428.758 326.388 431.512 327.829C435.336 329.829 436.306 337.549 435.653 341.347C435.603 341.633 434.483 345.476 434.15 346.439C436.357 344.511 438.539 342.57 440.613 340.568C443.477 337.81 446.135 334.946 448.505 331.981C448.277 331.826 442.23 327.713 440.518 324.873C439.032 322.409 437.824 318.856 438.957 316.029C440.065 313.261 443.245 311.735 446 313.176C449.823 315.175 450.793 322.897 450.14 326.694C450.089 326.992 448.881 331.126 448.608 331.859C448.749 331.683 448.914 331.516 449.052 331.338C451.542 328.139 453.552 324.729 455.278 321.444C456.284 319.538 457.139 317.658 457.93 315.812C456.725 315.161 451.252 312.127 449.429 309.742C447.681 307.455 446.091 304.057 446.906 301.123C447.704 298.249 450.697 296.384 453.592 297.513C457.612 299.081 459.424 306.649 459.192 310.494C459.18 310.704 458.816 312.815 458.529 314.349C458.873 313.51 459.245 312.651 459.558 311.841C460.743 308.801 461.643 305.945 462.418 303.409C462.848 301.962 463.207 300.647 463.529 299.412C462.681 298.156 459.322 293.055 458.812 290.151C458.315 287.316 458.469 283.568 460.544 281.339C462.577 279.156 466.093 278.88 468.142 281.216C470.987 284.46 469.108 292.011 467.131 295.318C466.959 295.603 463.772 299.764 463.727 299.7C463.727 299.7 463.686 299.639 463.676 299.624C463.389 300.818 463.067 302.096 462.686 303.484C461.965 306.042 461.126 308.926 460.001 312.003C458.885 315.081 457.587 318.394 455.903 321.76C454.22 325.135 452.278 328.601 449.815 331.913C449.787 331.951 449.753 331.986 449.725 332.023C450.746 331.278 453.672 329.291 453.914 329.164C457.325 327.372 464.968 325.914 468.049 328.934C470.269 331.11 469.798 334.605 467.506 336.514C465.166 338.46 461.415 338.406 458.612 337.753Z" fill="black"/>
<path d="M397.135 291.866C397.057 291.88 397.691 286.677 397.768 286.353C398.667 282.607 402.606 275.896 406.908 275.567C410.007 275.33 412.326 277.987 412.252 280.968C412.177 284.012 409.666 286.8 407.327 288.478C404.583 290.449 397.141 291.864 397.135 291.866Z" fill="black"/>
</g>
<path d="M208.647 33.356L221.145 152.149" stroke="#263238" stroke-miterlimit="10" stroke-linecap="round" stroke-linejoin="round"/>
<path d="M246.136 58.603L236.825 60.736L228.289 77.613L214.785 73.747L214.397 77.432L231.199 84.402L237.213 76.061V90.61L255.253 91.386L258.939 74.897L265.534 80.717V96.041H269.414L271.741 76.837L261.46 60.155L246.136 58.603Z" fill="white" stroke="#263238" stroke-miterlimit="10" stroke-linecap="round" stroke-linejoin="round"/>
<path d="M237.213 76.0611L237.069 67.8481" stroke="#263238" stroke-miterlimit="10" stroke-linecap="round" stroke-linejoin="round"/>
<path d="M246.027 64.037L248.561 68.789C248.561 68.789 255.53 71.007 256.798 71.323C258.065 71.64 261.867 70.373 265.035 69.739C268.203 69.105 278.34 74.174 278.34 74.174L287.21 74.491L282.458 68.789L265.351 66.255L256.481 69.106L250.462 67.522L251.729 64.988L248.878 60.553L246.027 64.037Z" fill="#92E3A9" stroke="#263238" stroke-miterlimit="10" stroke-linecap="round" stroke-linejoin="round"/>
<path d="M246.912 57.245C246.912 57.245 244.972 56.857 244.584 58.797C244.196 60.737 243.808 65.586 243.808 65.586L248.464 64.228L253.896 66.556C253.896 66.556 255.642 61.513 254.672 59.767C253.701 58.021 249.239 55.693 246.912 57.245Z" fill="white" stroke="#263238" stroke-miterlimit="10" stroke-linecap="round" stroke-linejoin="round"/>
<path d="M245.942 54.5291C245.942 54.5291 246.524 59.9611 246.718 61.9001C246.912 63.8401 248.076 66.7501 248.852 66.1681C249.628 65.5861 252.344 60.1551 252.344 60.1551L253.702 56.4691L245.942 54.5291Z" fill="white" stroke="#263238" stroke-miterlimit="10" stroke-linecap="round" stroke-linejoin="round"/>
<path d="M245.947 46.6029C245.947 46.6029 244.249 46.4489 244.249 49.2269C244.249 52.0049 245.484 52.1589 245.484 52.1589L245.947 46.6029Z" fill="white" stroke="#263238" stroke-miterlimit="10" stroke-linecap="round" stroke-linejoin="round"/>
<path d="M257.369 48.918C257.369 48.918 259.067 49.072 258.758 50.77C258.449 52.468 255.517 54.783 255.517 54.783L257.369 48.918Z" fill="white" stroke="#263238" stroke-miterlimit="10" stroke-linecap="round" stroke-linejoin="round"/>
<path d="M251.761 40.95C251.761 40.95 248.657 40.174 246.911 43.86C245.165 47.546 245.553 52.007 245.941 54.529C246.329 57.051 248.657 58.215 250.985 58.215C253.313 58.215 256.805 53.366 257.58 49.68C258.357 45.994 257.775 40.95 251.761 40.95Z" fill="white" stroke="#263238" stroke-miterlimit="10" stroke-linecap="round" stroke-linejoin="round"/>
<path d="M211.025 71.5999L211.801 77.4189L215.293 77.8069L214.711 71.2119L211.025 71.5999Z" fill="white" stroke="#263238" stroke-miterlimit="10" stroke-linecap="round" stroke-linejoin="round"/>
<path d="M214.778 71.509L216.187 71.321L216.469 74.42L215.06 74.608L214.778 71.509Z" fill="white" stroke="#263238" stroke-miterlimit="10" stroke-linecap="round" stroke-linejoin="round"/>
<path d="M265.534 96.041L263.409 99.363L263.964 102.694L265.814 102.509L268.96 101.398L269.414 96.041H265.534Z" fill="white" stroke="#263238" stroke-miterlimit="10" stroke-linecap="round" stroke-linejoin="round"/>
<path d="M237.213 90.6099L235.836 96.5869L220.661 116.573L230.839 145.256L233.43 144.701L231.209 117.313L243.608 104.174L245.088 105.099L245.128 119.756L259.337 143.775L262.298 143.035L255.636 119.904L256.006 95.2909L255.253 91.3859L237.213 90.6099Z" fill="#263238" stroke="#263238" stroke-miterlimit="10" stroke-linecap="round" stroke-linejoin="round"/>
<path d="M230.839 145.256L228.618 148.402C228.618 148.402 225.102 150.068 224.547 150.993C223.992 151.918 227.508 151.733 227.508 151.733L231.579 151.363L235.835 148.587L233.429 144.701L230.839 145.256Z" fill="white" stroke="#263238" stroke-miterlimit="10" stroke-linecap="round" stroke-linejoin="round"/>
<path d="M209.177 37.593C209.177 37.593 207.323 41.83 199.644 44.743C191.965 47.656 180.843 49.245 177.93 55.335C175.017 61.425 175.017 60.896 174.487 64.338C173.957 67.78 171.839 69.634 171.839 69.634C171.839 69.634 174.487 69.899 175.811 68.045C177.135 66.191 177.665 60.895 179.783 60.101C181.901 59.307 185.873 57.983 185.873 57.983C185.873 57.983 182.166 61.161 181.901 62.749C181.636 64.338 181.371 68.045 180.842 70.428C180.312 72.811 178.988 73.871 178.988 73.871C178.988 73.871 182.43 73.871 183.49 71.488C184.549 69.105 183.49 65.927 186.933 63.544C190.375 61.161 194.083 62.22 199.908 62.485C205.734 62.75 211.295 59.307 211.295 59.307L209.177 37.593Z" fill="#92E3A9" stroke="#263238" stroke-miterlimit="10" stroke-linecap="round" stroke-linejoin="round"/>
<path d="M259.337 143.775L256.787 152.248L263.124 152.004L262.298 143.035L259.337 143.775Z" fill="white" stroke="#263238" stroke-miterlimit="10" stroke-linecap="round" stroke-linejoin="round"/>
<path d="M249.638 48.428C249.532 48.928 249.176 49.277 248.842 49.206C248.508 49.135 248.324 48.673 248.43 48.172C248.536 47.671 248.892 47.323 249.226 47.394C249.559 47.465 249.744 47.928 249.638 48.428Z" fill="#263238"/>
<path d="M254.268 49.509C254.162 50.009 253.806 50.358 253.472 50.287C253.138 50.216 252.954 49.754 253.06 49.253C253.166 48.753 253.522 48.404 253.856 48.475C254.19 48.545 254.374 49.008 254.268 49.509Z" fill="#263238"/>
<path d="M251.195 49.072L249.96 52.776H251.967" stroke="#263238" stroke-miterlimit="10" stroke-linecap="round" stroke-linejoin="round"/>
<path d="M248.417 53.8569C248.417 53.8569 249.497 55.7089 252.276 54.6289" stroke="#263238" stroke-miterlimit="10" stroke-linecap="round" stroke-linejoin="round"/>
<path d="M248.262 45.8311C248.262 45.8311 249.497 45.0591 250.731 46.2941" stroke="#263238" stroke-miterlimit="10" stroke-linecap="round" stroke-linejoin="round"/>
<path d="M253.047 46.911C253.047 46.911 254.899 45.83 256.134 47.991" stroke="#263238" stroke-miterlimit="10" stroke-linecap="round" stroke-linejoin="round"/>
<path d="M245.33 45.368L256.443 43.979C256.443 43.979 255.98 45.831 256.597 46.294C257.214 46.757 257.369 48.918 257.369 48.918L256.906 51.387L259.375 47.065C259.375 47.065 260.147 43.669 259.529 42.589C258.912 41.509 257.677 41.354 257.677 41.354C257.677 41.354 255.825 38.113 251.503 38.576C247.181 39.039 245.329 41.2 245.329 42.898C245.329 44.596 245.33 45.368 245.33 45.368Z" fill="#263238" stroke="#263238" stroke-miterlimit="10" stroke-linecap="round" stroke-linejoin="round"/>
<path d="M237.129 465.199L256.727 352.726L182.745 284.837L209.603 193.36L180.86 193.999L168.724 204.857L143.346 204.236L139.921 216.611L132.958 215.741L130.563 220.083L118.69 243.779L112.515 267.454L89.5209 296.197L87.0039 364.041L49.9189 417.557L38.2559 465.199H237.129Z" fill="#808080" stroke="#263238" stroke-miterlimit="10" stroke-linecap="round" stroke-linejoin="round"/>
<path d="M404.061 465.199L379.508 411.371L419.487 438.023V395.375L395.987 367.523L399.468 336.19L363.783 268.3L362.042 244.8L349.857 233.485L287.302 238.025L282.838 216.077L242.801 193.447L218.783 251.556L196.672 261.336L212.249 282.7L209.727 299.633L214.949 325.744L127.912 344.892C127.912 344.892 127.042 386.67 127.042 390.151C127.042 393.632 109.634 413.651 109.634 413.651L108.816 465.197H404.061V465.199Z" fill="#ABABAB" stroke="#263238" stroke-miterlimit="10" stroke-linecap="round" stroke-linejoin="round"/>
<path d="M452.507 465.199L442.116 460.653L429.061 432.801L413.394 421.486L406.431 404.949L399.468 391.893L362.274 373.717L368.037 465.199H452.507Z" fill="#CCCCCC" stroke="#263238" stroke-miterlimit="10" stroke-linecap="round" stroke-linejoin="round"/>
<path d="M218.744 191.253L198.336 213.56L197.637 172.661L217.949 147.997L218.744 191.253Z" fill="#CCCCCC" stroke="#263238" stroke-miterlimit="10" stroke-linecap="round" stroke-linejoin="round"/>
<path d="M204.58 280.567L225.436 262.159C226.772 260.98 228.408 259.891 230.393 258.923C232.377 257.956 234.708 257.112 237.434 256.423C240.158 255.734 243.275 255.201 246.833 254.856C250.388 254.511 254.382 254.354 258.861 254.418C269.401 254.568 279.031 255.527 287.764 256.968C296.483 258.407 304.313 260.326 311.266 262.398C318.211 264.468 324.284 266.691 329.495 268.742C334.702 270.791 339.049 272.669 342.546 274.05L315.413 291.601C312.103 290.301 307.988 288.533 303.06 286.605C298.129 284.675 292.381 282.584 285.808 280.639C279.228 278.692 271.817 276.893 263.565 275.548C255.3 274.202 246.187 273.312 236.213 273.19C231.975 273.138 228.195 273.294 224.831 273.626C221.464 273.959 218.514 274.468 215.936 275.124C213.357 275.78 211.15 276.582 209.272 277.499C207.395 278.418 205.845 279.45 204.58 280.567Z" fill="#CCCCCC" stroke="#263238" stroke-miterlimit="10" stroke-linecap="round" stroke-linejoin="round"/>
<path d="M270.99 431.113L247.448 440.091C249.636 439.257 251.606 438.285 253.328 437.167C255.049 436.049 256.521 434.784 257.715 433.362C258.908 431.94 259.822 430.361 260.428 428.615C261.033 426.869 261.329 424.955 261.286 422.864C261.213 419.343 260.256 416.206 258.26 413.337C256.264 410.467 253.228 407.863 248.996 405.406C244.762 402.948 239.33 400.636 232.54 398.351C225.743 396.064 217.582 393.804 207.896 391.452C194.216 388.154 181.222 384.111 169.409 379.097C157.575 374.074 146.933 368.078 137.983 360.884C129.025 353.683 121.769 345.289 116.715 335.482C111.662 325.676 108.816 314.469 108.667 301.65C108.61 296.76 108.936 292.001 109.633 287.391C110.33 282.784 111.4 278.326 112.832 274.034C114.263 269.746 116.057 265.624 118.204 261.687C120.349 257.753 122.846 254.003 125.686 250.455L141.959 230.124C138.958 233.874 136.319 237.838 134.054 241.998C131.786 246.162 129.892 250.522 128.382 255.059C126.87 259.6 125.743 264.318 125.01 269.195C124.276 274.076 123.937 279.115 124.002 284.293C124.172 297.869 127.196 309.744 132.555 320.139C137.915 330.536 145.603 339.439 155.093 347.08C164.573 354.713 175.841 361.08 188.369 366.417C200.873 371.744 214.623 376.043 229.096 379.554C239.342 382.058 247.975 384.462 255.165 386.892C262.347 389.319 268.094 391.775 272.573 394.383C277.05 396.99 280.263 399.751 282.378 402.792C284.493 405.833 285.51 409.155 285.592 412.884C285.641 415.099 285.331 417.125 284.694 418.974C284.057 420.823 283.093 422.495 281.834 423.999C280.575 425.504 279.02 426.843 277.203 428.025C275.383 429.204 273.302 430.231 270.99 431.113Z" fill="#CCCCCC" stroke="#263238" stroke-miterlimit="10" stroke-linecap="round" stroke-linejoin="round"/>
<path d="M155.091 347.076C164.571 354.71 175.839 361.076 188.367 366.413C200.871 371.74 214.621 376.039 229.094 379.55C239.34 382.054 247.973 384.458 255.163 386.888C262.345 389.315 268.092 391.771 272.571 394.379C277.048 396.986 280.261 399.747 282.376 402.788C284.491 405.829 285.508 409.151 285.59 412.88C285.681 416.985 284.538 420.441 282.368 423.32C280.196 426.201 276.995 428.503 272.97 430.296C268.94 432.091 264.084 433.376 258.608 434.219C253.125 435.064 247.02 435.466 240.499 435.494C230.887 435.536 221.426 434.762 212.246 433.388C203.051 432.012 194.14 430.035 185.644 427.676C177.136 425.314 169.048 422.569 161.509 419.661C153.962 416.75 146.968 413.678 140.658 410.664L127.881 465.003H357.57C364.885 456.78 370.418 447.611 374.081 437.751C377.975 427.268 379.785 416.013 379.46 404.319C379.121 392.149 377.269 381.313 373.638 371.611C370.009 361.913 364.599 353.337 357.137 345.684C349.671 338.026 340.143 331.284 328.275 325.26C316.386 319.225 302.135 313.905 285.233 309.101C274.382 305.937 264.912 302.933 256.804 300.014C248.686 297.091 241.939 294.255 236.545 291.431C231.146 288.604 227.104 285.79 224.397 282.913C221.69 280.035 220.32 277.096 220.263 274.019C220.218 271.559 220.661 269.075 221.841 266.74C223.02 264.406 224.935 262.221 227.831 260.357C230.725 258.495 234.597 256.954 239.693 255.907C244.783 254.861 251.091 254.308 258.86 254.418C269.4 254.568 279.03 255.527 287.763 256.968C296.482 258.407 304.312 260.326 311.265 262.398C318.21 264.468 324.283 266.691 329.494 268.742C334.701 270.791 339.048 272.669 342.545 274.05L357.424 207.081C352.751 205.067 347.719 203.074 342.21 201.182C336.696 199.289 330.704 197.498 324.114 195.888C317.516 194.277 310.318 192.848 302.399 191.681C294.468 190.513 285.81 189.608 276.305 189.048L275.438 149.433L217.949 147.995L218.744 191.252C203.541 193.501 189.997 197.411 178.237 202.763C166.44 208.131 156.441 214.948 148.364 222.988C140.266 231.049 134.104 240.337 130.001 250.621C125.89 260.927 123.849 272.228 124 284.288C124.17 297.864 127.194 309.739 132.553 320.134C137.913 330.532 145.602 339.435 155.091 347.076Z" fill="white" stroke="#263238" stroke-miterlimit="10" stroke-linecap="round" stroke-linejoin="round"/>
<path d="M127.882 465.005L140.659 410.666L124.286 420.912L113.866 465.005H127.882Z" fill="#CCCCCC" stroke="#263238" stroke-miterlimit="10" stroke-linecap="round" stroke-linejoin="round"/>
<path d="M63.1527 465.092H109.658L110.504 438.023L106.152 422.356V380.578L95.7067 378.838L87.0037 388.412L73.0777 396.245L42.9097 465.199H63.1527V465.092Z" fill="#CCCCCC" stroke="#263238" stroke-miterlimit="10" stroke-linecap="round" stroke-linejoin="round"/>
<path d="M79.2397 419.766L80.2557 415.434" stroke="#263238" stroke-miterlimit="10"/>
<path d="M63.1528 465.199L69.3458 440.714L75.1998 436.989L78.6198 422.406" stroke="#263238" stroke-miterlimit="10"/>
<path d="M53.1128 465.462L62.9588 437.521" stroke="#263238" stroke-miterlimit="10"/>
<path d="M95.8486 390.398L94.8916 394.944" stroke="#263238" stroke-miterlimit="10"/>
<path d="M98.0848 379.776L96.2578 388.453" stroke="#263238" stroke-miterlimit="10"/>
<path d="M109.658 465.092L110.504 438.023L106.152 422.356V380.578L97.4478 436.282L89.6148 438.893L87.0038 454.56L85.3828 465.092H109.658Z" fill="white" stroke="#263238" stroke-miterlimit="10" stroke-linecap="round" stroke-linejoin="round"/>
<path d="M258.609 434.219C264.085 433.376 268.941 432.091 272.971 430.296C276.996 428.503 280.198 426.201 282.369 423.32C282.664 422.929 282.931 422.523 283.186 422.11L276.32 391.107L262.797 379.274L260.543 369.132L247.583 358.99L243.075 374.767L235.75 384.909L235.186 422.097L242.172 435.475C248.064 435.39 253.599 434.991 258.609 434.219Z" fill="white" stroke="#263238" stroke-miterlimit="10" stroke-linecap="round" stroke-linejoin="round"/>
<path d="M258.609 434.219L257.233 422.64L261.297 411.668V405.167L260.484 395.008" stroke="#263238" stroke-miterlimit="10"/>
<path d="M266.857 399.022L269.017 411.262L273.081 412.075L272.268 422.234L273.894 427.516" stroke="#263238" stroke-miterlimit="10"/>
<path d="M265.36 390.538L266.08 394.618" stroke="#263238" stroke-miterlimit="10"/>
<path d="M251.95 364.531L255.201 397.852" stroke="#263238" stroke-miterlimit="10"/>
<path d="M212.247 433.389C221.427 434.763 230.888 435.537 240.5 435.495C242.402 435.487 244.263 435.442 246.09 435.369L245.893 424.915L242.512 420.407V406.884V388.29L248.147 382.655L247.584 358.99L240.822 371.386L231.807 379.274L226.172 395.614L217.157 406.32L214.903 417.589L204.197 426.604L199.935 431.153C203.974 432.006 208.077 432.765 212.247 433.389Z" fill="#CCCCCC" stroke="#263238" stroke-miterlimit="10" stroke-linecap="round" stroke-linejoin="round"/>
<path d="M375.098 465.199L422.351 465.113L361.172 428.449L346.375 392.764L334.19 391.023L323.745 377.097L318.523 382.319L322.005 412.782L308.949 434.542V448.468L302.857 464.134L332.304 465.199H375.098Z" fill="white" stroke="#263238" stroke-miterlimit="10" stroke-linecap="round" stroke-linejoin="round"/>
<path d="M351.403 465.143L349.168 452.688L352.681 445.343L351.723 430.971L354.597 433.845L374.079 465.143H351.403Z" fill="#CCCCCC" stroke="#263238" stroke-miterlimit="10" stroke-linecap="round" stroke-linejoin="round"/>
<path d="M351.723 430.971L365.456 437.678L370.885 444.384L386.534 452.369L397.393 459.076L404.061 465.199L374.079 465.143L351.723 430.971Z" fill="white" stroke="#263238" stroke-miterlimit="10" stroke-linecap="round" stroke-linejoin="round"/>
<path d="M308.949 434.542V448.468L302.387 464.917L327.235 465.241L322.005 435.412L332.449 425.838L318.523 382.319L322.005 412.782L308.949 434.542Z" fill="#CCCCCC" stroke="#263238" stroke-miterlimit="10" stroke-linecap="round" stroke-linejoin="round"/>
<path d="M334.19 391.023L343.381 410.449L347.444 410.856L350.695 420.608" stroke="#263238" stroke-miterlimit="10"/>
<path d="M340.358 449.796L341.755 454.336" stroke="#263238" stroke-miterlimit="10"/>
<path d="M334.847 414.513L337.692 425.484L342.568 433.612L336.879 438.488L339.339 446.483" stroke="#263238" stroke-miterlimit="10"/>
<path d="M404.152 451.894C403.28 451.633 402.234 451.922 401.235 452.459L405.719 455.146C406.156 453.823 405.558 452.315 404.152 451.894Z" fill="#263238"/>
<path d="M405.415 416.486C405.448 416.505 406.013 413.975 406.03 413.811C406.23 411.915 405.501 408.136 403.55 407.272C402.144 406.65 400.624 407.506 400.166 408.908C399.698 410.34 400.409 412.055 401.222 413.223C402.176 414.595 405.412 416.484 405.415 416.486Z" fill="#263238"/>
<path d="M435.064 431.87C436.276 430.399 437.753 426.845 436.602 425.048C435.773 423.753 434.033 423.629 432.877 424.546C431.697 425.482 431.344 427.304 431.378 428.728C431.417 430.399 433.075 433.76 433.076 433.762C433.093 433.797 434.96 431.997 435.064 431.87Z" fill="#263238"/>
<path d="M393.864 445.772C394.922 446.656 397.541 447.459 398.438 447.718C398.307 448.459 398.177 449.201 398.017 449.912C397.972 450.094 397.933 450.275 397.892 450.455L398.83 451.017C398.892 450.725 398.95 450.43 399.016 450.138C399.252 448.974 399.435 447.783 399.593 446.58C400.374 446.835 403.157 447.7 404.58 447.552C405.996 447.405 407.759 446.824 408.538 445.535C409.301 444.272 408.957 442.562 407.568 441.903C405.639 440.989 402.301 442.905 400.996 444.293C400.915 444.38 400.09 445.482 399.649 446.095C399.738 445.371 399.831 444.648 399.897 443.912C400.089 441.788 400.217 439.633 400.354 437.483C400.396 436.824 400.445 436.169 400.492 435.512C400.769 435.606 404.056 436.706 405.649 436.54C407.065 436.393 408.828 435.812 409.607 434.523C410.37 433.261 410.026 431.55 408.636 430.892C406.707 429.977 403.369 431.893 402.064 433.282C401.966 433.387 400.782 434.974 400.5 435.392C400.604 433.946 400.721 432.506 400.894 431.091C401.13 429.139 401.47 427.236 401.935 425.417C402.064 425.461 405.489 426.624 407.121 426.455C408.537 426.308 410.3 425.727 411.079 424.437C411.842 423.175 411.498 421.465 410.108 420.806C408.18 419.892 404.841 421.808 403.536 423.197C403.433 423.306 402.16 425.014 401.952 425.34C401.98 425.232 401.996 425.117 402.025 425.009C402.547 423.073 403.295 421.263 404.079 419.603C404.532 418.638 405.02 417.74 405.514 416.878C406.13 417.16 408.958 418.418 410.443 418.428C411.867 418.437 413.683 418.053 414.599 416.858C415.496 415.687 415.342 413.949 414.033 413.142C412.217 412.021 408.688 413.559 407.238 414.796C407.159 414.863 406.433 415.636 405.913 416.206C406.142 415.82 406.371 415.418 406.597 415.052C407.444 413.679 408.305 412.473 409.076 411.411C409.519 410.811 409.932 410.277 410.323 409.782C411.072 409.743 414.087 409.551 415.386 408.887C416.654 408.239 418.088 407.062 418.351 405.578C418.608 404.125 417.67 402.654 416.137 402.541C414.008 402.383 411.585 405.374 410.868 407.14C410.807 407.293 410.112 409.791 410.151 409.79C410.151 409.79 410.187 409.788 410.196 409.787C409.81 410.256 409.401 410.764 408.966 411.327C408.17 412.374 407.281 413.564 406.401 414.925C405.518 416.283 404.596 417.782 403.768 419.449C402.936 421.119 402.145 422.918 401.571 424.877C401.564 424.899 401.561 424.923 401.554 424.945C401.544 424.32 401.458 422.573 401.436 422.439C401.128 420.558 399.427 417.105 397.317 416.787C395.796 416.558 394.556 417.785 394.485 419.259C394.412 420.764 395.551 422.229 396.643 423.142C397.876 424.171 401.231 425.095 401.499 425.167C400.969 427.038 400.577 429.001 400.29 431.009C400.124 432.157 399.993 433.318 399.877 434.484C399.851 433.944 399.824 433.461 399.813 433.394C399.505 431.513 397.804 428.06 395.694 427.743C394.173 427.514 392.933 428.741 392.862 430.214C392.789 431.719 393.928 433.185 395.02 434.097C396.129 435.023 398.974 435.868 399.73 436.082C399.69 436.53 399.645 436.977 399.607 437.424C399.423 439.574 399.248 441.719 399.012 443.818C398.929 444.558 398.821 445.283 398.715 446.01C398.692 445.53 398.667 445.126 398.658 445.065C398.35 443.184 396.649 439.731 394.539 439.414C393.018 439.185 391.778 440.412 391.707 441.885C391.633 443.394 392.771 444.86 393.864 445.772Z" fill="#263238"/>
<path d="M449.709 428.048C448.021 426.742 444.35 427.9 442.778 428.978C442.642 429.071 440.685 430.772 440.718 430.792C440.718 430.792 440.749 430.811 440.757 430.815C440.176 430.993 439.555 431.191 438.881 431.421C437.64 431.855 436.242 432.357 434.757 433.006C433.271 433.651 431.675 434.393 430.064 435.327C428.448 436.261 426.797 437.326 425.237 438.643C425.219 438.658 425.203 438.676 425.185 438.691C425.522 438.164 426.414 436.659 426.469 436.536C427.25 434.797 427.737 430.979 426.151 429.55C425.009 428.521 423.298 428.859 422.425 430.049C421.534 431.264 421.675 433.114 422.083 434.479C422.543 436.017 424.833 438.639 425.016 438.847C423.542 440.115 422.132 441.536 420.785 443.052C420.013 443.918 419.264 444.815 418.523 445.723C418.799 445.258 419.043 444.84 419.071 444.778C419.852 443.039 420.338 439.221 418.753 437.792C417.611 436.762 415.9 437.101 415.028 438.291C414.137 439.506 414.278 441.356 414.686 442.72C415.1 444.104 417.007 446.379 417.52 446.974C417.24 447.326 416.956 447.673 416.677 448.026C415.337 449.717 414.008 451.41 412.654 453.031C412.177 453.603 411.686 454.148 411.197 454.695C411.442 454.282 411.645 453.932 411.67 453.875C412.451 452.136 412.938 448.318 411.353 446.889C410.21 445.859 408.499 446.198 407.627 447.388C406.736 448.603 406.877 450.454 407.286 451.817C407.681 453.137 409.422 455.253 410.028 455.963C409.669 456.341 409.309 456.715 408.947 457.08L409.833 457.611C410.438 456.975 411.034 456.324 411.618 455.651C412.128 456.294 413.973 458.552 415.241 459.213C416.503 459.871 418.294 460.359 419.655 459.714C420.988 459.082 421.644 457.466 420.849 456.15C419.745 454.324 415.903 454.08 414.048 454.518C413.932 454.545 412.637 455.009 411.93 455.278C412.404 454.723 412.879 454.172 413.341 453.594C414.673 451.929 415.968 450.201 417.269 448.484C417.667 447.958 418.07 447.438 418.472 446.916C418.651 447.147 420.785 449.878 422.206 450.618C423.468 451.277 425.259 451.764 426.62 451.119C427.953 450.487 428.609 448.871 427.814 447.555C426.71 445.728 422.869 445.485 421.014 445.923C420.874 445.956 419.011 446.627 418.545 446.82C419.43 445.671 420.322 444.535 421.247 443.45C422.521 441.952 423.854 440.552 425.246 439.292C425.329 439.4 427.544 442.26 428.998 443.019C430.26 443.677 432.051 444.165 433.413 443.52C434.746 442.888 435.402 441.272 434.607 439.956C433.503 438.129 429.662 437.886 427.807 438.324C427.662 438.358 425.657 439.081 425.303 439.238C425.386 439.163 425.464 439.077 425.547 439.003C427.05 437.676 428.672 436.58 430.241 435.628C431.152 435.073 432.054 434.593 432.941 434.146C433.299 434.721 434.964 437.331 436.197 438.158C437.379 438.951 439.106 439.633 440.53 439.141C441.925 438.659 442.754 437.125 442.108 435.73C441.211 433.793 437.42 433.129 435.528 433.361C435.425 433.373 434.394 433.618 433.645 433.806C434.049 433.61 434.462 433.401 434.852 433.221C436.317 432.543 437.7 432.012 438.928 431.552C439.629 431.296 440.267 431.078 440.867 430.881C441.512 431.262 444.133 432.765 445.583 432.928C446.997 433.087 448.844 432.897 449.881 431.804C450.896 430.733 450.926 428.988 449.709 428.048Z" fill="#263238"/>
<path d="M398.716 465.156L399.872 465.866C400.107 465.697 400.338 465.532 400.58 465.354C400.669 465.289 400.763 465.217 400.853 465.151L398.716 465.156Z" fill="#263238"/>
<path d="M67.409 398.952C66.095 399.75 65.927 401.486 66.816 402.663C67.454 403.508 68.539 403.95 69.622 404.142L71.772 399.227C70.258 398.595 68.52 398.278 67.409 398.952Z" fill="#263238"/>
<path d="M77.3641 392.551C76.7121 392.956 76.2721 393.716 75.9941 394.605L79.7571 392.488C79.0271 392.106 78.1411 392.068 77.3641 392.551Z" fill="#263238"/>
<path d="M78.0371 356.809C79.3151 357.886 82.9311 358.87 82.9331 358.871C82.9711 358.881 82.8591 356.291 82.8331 356.128C82.5341 354.246 80.8491 350.785 78.7401 350.457C77.2211 350.221 75.9751 351.442 75.8971 352.915C75.8171 354.42 76.9491 355.892 78.0371 356.809Z" fill="#263238"/>
<path d="M51.6699 368.155C51.7069 368.143 50.1839 366.044 50.0729 365.923C48.7849 364.518 45.4709 362.56 43.5309 363.451C42.1339 364.093 41.7679 365.798 42.5149 367.07C43.2789 368.369 45.0339 368.972 46.4479 369.137C48.1089 369.329 51.6669 368.156 51.6699 368.155Z" fill="#263238"/>
<path d="M49.7919 360.173C49.7919 360.173 49.8149 360.145 49.8199 360.138C49.9159 360.738 50.0259 361.381 50.1599 362.08C50.4169 363.369 50.7199 364.824 51.1559 366.385C51.5879 367.946 52.1009 369.63 52.8019 371.355C53.5019 373.084 54.3269 374.868 55.4139 376.596C55.4259 376.616 55.4419 376.634 55.4539 376.654C54.9789 376.247 53.6129 375.155 53.4979 375.083C51.8849 374.068 48.1719 373.055 46.5359 374.426C45.3579 375.414 45.4549 377.156 46.5119 378.185C47.5919 379.236 49.4429 379.354 50.8509 379.139C52.4379 378.897 55.3529 376.995 55.5849 376.842C56.6359 378.478 57.8469 380.072 59.1609 381.617C59.9109 382.502 60.6949 383.369 61.4909 384.228C61.0689 383.89 60.6889 383.59 60.6319 383.554C59.0179 382.539 55.3049 381.527 53.6699 382.898C52.4909 383.886 52.5889 385.627 53.6459 386.657C54.7249 387.708 56.5779 387.826 57.9849 387.611C59.4129 387.394 61.9309 385.821 62.5919 385.396C62.9009 385.723 63.2059 386.052 63.5159 386.377C65.0039 387.939 66.4959 389.49 67.9129 391.057C68.4119 391.609 68.8839 392.171 69.3579 392.731C68.9829 392.431 68.6639 392.181 68.6119 392.148C66.9989 391.133 63.2849 390.12 61.6499 391.492C60.4709 392.48 60.5689 394.221 61.6259 395.251C62.7059 396.302 64.5579 396.42 65.9649 396.205C67.3279 395.998 69.6649 394.567 70.4519 394.066C70.9199 394.655 71.3899 395.243 71.8169 395.835C72.0999 396.245 72.3999 396.621 72.6599 397.049C72.6729 397.07 72.6859 397.09 72.6999 397.111L73.0789 396.245L73.2989 396.121C73.0869 395.827 72.8629 395.534 72.6479 395.236C71.9329 394.288 71.1609 393.362 70.3639 392.447C71.0719 392.031 73.5639 390.518 74.3949 389.355C75.2229 388.197 75.9549 386.491 75.5049 385.053C75.0639 383.645 73.5549 382.77 72.1409 383.375C70.1789 384.214 69.4029 387.985 69.5789 389.882C69.5899 390 69.8699 391.348 70.0369 392.085C69.5539 391.539 69.0729 390.991 68.5659 390.454C67.1019 388.904 65.5719 387.38 64.0519 385.853C63.5859 385.386 63.1279 384.914 62.6669 384.445C62.9209 384.299 65.9219 382.565 66.8529 381.262C67.6799 380.104 68.4129 378.398 67.9629 376.96C67.5229 375.552 66.0129 374.677 64.5999 375.282C62.6379 376.121 61.8619 379.891 62.0379 381.789C62.0509 381.932 62.4559 383.87 62.5829 384.358C61.5689 383.323 60.5669 382.281 59.6209 381.214C58.3149 379.744 57.1139 378.229 56.0589 376.676C56.1769 376.608 59.3169 374.812 60.2709 373.478C61.0989 372.32 61.8309 370.614 61.3809 369.176C60.9409 367.768 59.4309 366.894 58.0169 367.498C56.0549 368.337 55.2789 372.107 55.4559 374.005C55.4699 374.154 55.9069 376.239 56.0129 376.611C55.9499 376.519 55.8749 376.43 55.8139 376.337C54.7089 374.664 53.8489 372.905 53.1239 371.218C52.7009 370.239 52.3519 369.279 52.0319 368.339C52.6509 368.064 55.4669 366.778 56.4579 365.672C57.4079 364.611 58.3229 362.996 58.0339 361.518C57.7509 360.07 56.3469 359.035 54.8749 359.481C52.8319 360.1 51.6479 363.762 51.6139 365.668C51.6119 365.772 51.7099 366.827 51.7929 367.595C51.6549 367.168 51.5049 366.73 51.3819 366.318C50.9139 364.774 50.5809 363.33 50.2959 362.05C50.1399 361.32 50.0129 360.658 49.9009 360.036C50.3679 359.449 52.2199 357.063 52.5829 355.65C52.9369 354.271 53.0049 352.417 52.0669 351.238C51.1479 350.083 49.4249 349.812 48.3249 350.885C46.7969 352.376 47.4339 356.172 48.2819 357.878C48.3549 358.029 49.7669 360.203 49.7919 360.173Z" fill="#263238"/>
<path d="M76.1909 367.58C77.6479 368.254 81.1289 368.275 81.4059 368.276C81.3789 370.22 81.5109 372.217 81.7539 374.231C81.8919 375.383 82.0669 376.538 82.2569 377.695C82.0919 377.18 81.9399 376.72 81.9119 376.659C81.1259 374.922 78.5879 372.03 76.4669 372.271C74.9389 372.445 74.0599 373.951 74.3739 375.393C74.6939 376.865 76.1739 377.985 77.4659 378.583C78.7769 379.189 81.7449 379.267 82.5299 379.277C82.6079 379.72 82.6799 380.163 82.7599 380.606C83.1399 382.729 83.5279 384.847 83.8459 386.935C83.9579 387.671 84.0419 388.4 84.1279 389.128C83.9809 388.671 83.8529 388.287 83.8269 388.231C83.0409 386.494 80.5029 383.601 78.3829 383.842C76.8549 384.016 75.9749 385.522 76.2889 386.964C76.6089 388.436 78.0899 389.556 79.3819 390.153C80.1949 390.529 81.6319 390.7 82.7979 390.779L85.1269 389.469C85.1259 389.461 85.1249 389.454 85.1239 389.446C85.1339 389.447 85.1529 389.447 85.1639 389.448L87.0039 388.413L91.9569 382.965C91.8439 382.926 91.7339 382.883 91.6099 382.86C89.5099 382.478 86.7839 385.195 85.8839 386.875C85.8279 386.979 85.3179 388.258 85.0509 388.965C84.9489 388.242 84.8509 387.521 84.7239 386.793C84.3579 384.692 83.9219 382.577 83.4969 380.465C83.3659 379.818 83.2439 379.172 83.1189 378.526C83.4109 378.545 86.8699 378.754 88.3659 378.18C89.6949 377.671 91.2469 376.652 91.6649 375.204C92.0749 373.787 91.2979 372.225 89.7849 371.949C87.6849 371.566 84.9589 374.283 84.0589 375.963C83.9909 376.09 83.2599 377.93 83.0959 378.407C82.8209 376.983 82.5609 375.562 82.3599 374.151C82.0809 372.204 81.9159 370.278 81.8929 368.401C82.0289 368.41 85.6389 368.645 87.1699 368.058C88.4989 367.548 90.0509 366.53 90.4689 365.082C90.8789 363.665 90.1019 362.103 88.5889 361.827C86.4889 361.445 83.7629 364.162 82.8629 365.841C82.7929 365.973 82.0069 367.953 81.8899 368.322C81.8889 368.21 81.8759 368.095 81.8759 367.983C81.8769 365.978 82.1299 364.036 82.4559 362.23C82.6429 361.18 82.8809 360.187 83.1339 359.226C83.8019 359.339 86.8599 359.82 88.2969 359.444C89.6739 359.083 91.3279 358.241 91.9029 356.849C92.4659 355.485 91.8649 353.847 90.3919 353.407C88.3469 352.796 85.3379 355.197 84.2589 356.768C84.1999 356.853 83.6999 357.788 83.3449 358.474C83.4659 358.042 83.5819 357.594 83.7059 357.182C84.1679 355.635 84.6859 354.248 85.1549 353.022C85.4269 352.328 85.6869 351.705 85.9369 351.125C86.6499 350.894 89.5119 349.925 90.5939 348.947C91.6489 347.992 92.7299 346.483 92.5979 344.982C92.4689 343.512 91.1809 342.335 89.6709 342.624C87.5749 343.024 86.0109 346.541 85.7769 348.433C85.7569 348.596 85.7349 351.189 85.7719 351.177C85.7719 351.177 85.8069 351.166 85.8149 351.163C85.5629 351.716 85.3009 352.312 85.0269 352.97C84.5299 354.188 83.9799 355.568 83.4839 357.11C82.9829 358.65 82.4819 360.338 82.1149 362.163C81.7449 363.992 81.4489 365.935 81.4019 367.976C81.4009 367.999 81.4039 368.023 81.4029 368.046C81.2309 367.445 80.6939 365.779 80.6389 365.657C79.8529 363.921 77.3149 361.027 75.1939 361.268C73.6659 361.442 72.7869 362.948 73.1009 364.39C73.4189 365.863 74.8979 366.983 76.1909 367.58Z" fill="#263238"/>
<path d="M221.222 389.761C219.694 389.935 218.814 391.441 219.128 392.883C219.448 394.355 220.928 395.475 222.221 396.072C222.953 396.411 224.191 396.582 225.282 396.671L226.172 395.614L226.672 394.164C226.671 394.161 226.668 394.152 226.667 394.15C225.88 392.413 223.342 389.52 221.222 389.761Z" fill="#263238"/>
<path d="M210.25 404.872C208.936 405.67 208.768 407.406 209.657 408.583C210.565 409.785 212.377 410.183 213.801 410.184C214.524 410.184 215.561 409.893 216.508 409.563L217.093 406.636C217.066 406.609 217.042 406.584 217.032 406.576C215.592 405.328 212.074 403.765 210.25 404.872Z" fill="#263238"/>
<path d="M220.204 398.472C218.573 399.485 218.254 402.694 218.542 404.675L223.335 398.984C222.549 398.122 221.274 397.806 220.204 398.472Z" fill="#263238"/>
<path d="M205.43 391.316C205.739 391.643 206.044 391.972 206.354 392.297C207.842 393.859 209.334 395.41 210.751 396.977C211.251 397.529 211.722 398.091 212.196 398.651C211.821 398.351 211.502 398.101 211.45 398.068C209.837 397.053 206.123 396.04 204.488 397.412C203.31 398.4 203.407 400.141 204.464 401.171C205.544 402.222 207.396 402.34 208.803 402.125C210.166 401.918 212.503 400.487 213.29 399.986C213.758 400.575 214.228 401.163 214.655 401.755C214.938 402.165 215.238 402.541 215.498 402.969C215.765 403.387 216.029 403.801 216.291 404.212C216.652 404.825 217.017 405.448 217.37 406.064L218.144 405.145C217.841 404.647 217.53 404.143 217.204 403.616C216.934 403.211 216.66 402.803 216.384 402.391C216.119 401.976 215.786 401.572 215.486 401.157C214.771 400.209 213.999 399.283 213.202 398.368C213.91 397.952 216.402 396.439 217.233 395.276C218.061 394.118 218.793 392.412 218.343 390.974C217.902 389.566 216.393 388.691 214.979 389.296C213.017 390.135 212.241 393.906 212.417 395.803C212.428 395.921 212.708 397.269 212.875 398.006C212.391 397.46 211.911 396.912 211.404 396.375C209.94 394.825 208.41 393.301 206.89 391.774C206.424 391.307 205.966 390.835 205.505 390.365C205.758 390.22 208.76 388.485 209.691 387.182C210.518 386.024 211.251 384.318 210.801 382.88C210.361 381.472 208.851 380.597 207.438 381.203C205.475 382.042 204.7 385.812 204.876 387.71C204.89 387.853 205.294 389.791 205.421 390.279C204.407 389.244 203.405 388.202 202.46 387.135C201.154 385.665 199.953 384.15 198.898 382.597C199.016 382.529 202.156 380.734 203.11 379.399C203.937 378.241 204.67 376.535 204.22 375.097C203.78 373.689 202.27 372.815 200.856 373.42C198.894 374.259 198.118 378.03 198.295 379.927C198.309 380.076 198.746 382.161 198.852 382.533C198.789 382.441 198.714 382.352 198.653 382.259C197.548 380.586 196.688 378.827 195.963 377.14C195.54 376.161 195.191 375.201 194.872 374.26C195.491 373.985 198.307 372.7 199.298 371.593C200.248 370.532 201.163 368.917 200.874 367.439C200.591 365.991 199.186 364.956 197.715 365.402C195.672 366.021 194.488 369.683 194.454 371.589C194.452 371.693 194.55 372.748 194.633 373.516C194.496 373.089 194.345 372.651 194.222 372.239C193.754 370.694 193.421 369.251 193.136 367.971C192.98 367.241 192.853 366.578 192.741 365.957C193.208 365.37 195.06 362.984 195.423 361.571C195.777 360.192 195.845 358.338 194.907 357.159C193.988 356.004 192.265 355.733 191.165 356.806C189.637 358.297 190.274 362.093 191.122 363.8C191.196 363.947 192.607 366.122 192.632 366.092C192.632 366.092 192.655 366.063 192.66 366.057C192.756 366.657 192.866 367.3 193 367.999C193.257 369.288 193.56 370.743 193.996 372.304C194.428 373.865 194.941 375.549 195.642 377.274C196.342 379.003 197.167 380.787 198.254 382.515C198.266 382.535 198.282 382.553 198.294 382.573C197.819 382.166 196.452 381.074 196.338 381.002C194.725 379.987 191.011 378.974 189.376 380.345C188.198 381.333 188.295 383.075 189.352 384.104C190.432 385.155 192.284 385.273 193.691 385.058C195.278 384.816 198.193 382.914 198.425 382.761C199.476 384.397 200.687 385.991 202.001 387.536C202.751 388.42 203.535 389.288 204.331 390.147C203.909 389.809 203.529 389.509 203.472 389.473C201.858 388.458 198.145 387.446 196.51 388.816C195.331 389.804 195.429 391.545 196.486 392.575C197.565 393.626 199.418 393.744 200.825 393.529C202.252 393.313 204.77 391.741 205.43 391.316Z" fill="#263238"/>
<path d="M220.877 362.729C222.155 363.806 225.771 364.79 225.773 364.791C225.811 364.801 225.698 362.211 225.673 362.048C225.374 360.166 223.689 356.705 221.58 356.377C220.061 356.141 218.815 357.362 218.737 358.835C218.657 360.341 219.789 361.812 220.877 362.729Z" fill="#263238"/>
<path d="M194.51 374.075C194.547 374.063 193.024 371.964 192.913 371.843C191.625 370.438 188.311 368.48 186.371 369.371C184.974 370.012 184.608 371.718 185.355 372.99C186.118 374.289 187.874 374.892 189.288 375.057C190.949 375.25 194.508 374.076 194.51 374.075Z" fill="#263238"/>
<path d="M219.031 373.5C220.488 374.174 223.969 374.195 224.246 374.196C224.219 376.14 224.351 378.137 224.594 380.151C224.732 381.303 224.907 382.458 225.097 383.615C224.932 383.1 224.78 382.64 224.752 382.579C223.966 380.842 221.428 377.949 219.307 378.19C217.779 378.363 216.9 379.87 217.214 381.312C217.534 382.784 219.014 383.904 220.306 384.502C221.617 385.108 224.585 385.186 225.37 385.196C225.448 385.639 225.52 386.082 225.6 386.525C225.98 388.648 226.368 390.766 226.685 392.854C226.732 393.164 226.764 393.471 226.804 393.779L227.425 391.977C227.088 390.118 226.711 388.251 226.335 386.384C226.204 385.737 226.082 385.091 225.957 384.445C226.188 384.46 228.395 384.592 230.05 384.364L231.805 379.273L233.198 378.054C233.02 377.972 232.83 377.906 232.623 377.868C230.523 377.486 227.797 380.203 226.897 381.882C226.829 382.008 226.098 383.849 225.935 384.326C225.66 382.902 225.399 381.481 225.199 380.07C224.92 378.123 224.755 376.197 224.732 374.32C224.868 374.329 228.478 374.564 230.009 373.977C231.338 373.467 232.89 372.449 233.308 371.001C233.717 369.584 232.941 368.022 231.428 367.746C229.328 367.364 226.602 370.081 225.701 371.76C225.631 371.892 224.845 373.872 224.728 374.241C224.727 374.129 224.714 374.014 224.714 373.902C224.715 371.897 224.968 369.955 225.294 368.149C225.481 367.099 225.719 366.106 225.972 365.145C226.64 365.258 229.698 365.739 231.135 365.362C232.512 365.002 234.166 364.159 234.741 362.767C235.304 361.403 234.703 359.765 233.23 359.325C231.185 358.714 228.176 361.115 227.097 362.686C227.038 362.771 226.538 363.706 226.183 364.392C226.304 363.96 226.42 363.512 226.544 363.1C227.006 361.553 227.524 360.166 227.993 358.94C228.265 358.246 228.525 357.623 228.774 357.043C229.487 356.812 232.349 355.843 233.431 354.865C234.486 353.91 235.567 352.401 235.435 350.9C235.306 349.43 234.018 348.253 232.508 348.542C230.412 348.942 228.848 352.459 228.614 354.351C228.594 354.515 228.572 357.107 228.609 357.095C228.609 357.095 228.644 357.084 228.652 357.081C228.401 357.634 228.138 358.231 227.864 358.888C227.367 360.106 226.817 361.486 226.321 363.028C225.82 364.568 225.319 366.256 224.952 368.081C224.582 369.91 224.286 371.853 224.239 373.894C224.238 373.917 224.241 373.941 224.24 373.964C224.068 373.362 223.532 371.697 223.476 371.575C222.69 369.839 220.152 366.945 218.031 367.186C216.504 367.36 215.624 368.866 215.938 370.308C216.259 371.783 217.739 372.903 219.031 373.5Z" fill="#263238"/>
<path d="M370.643 286.16L366.654 281.214L370.239 278.383L372.654 281.388L371.828 283.296L372.515 284.819L371.102 285.833" fill="white"/>
<path d="M370.643 286.16L366.654 281.214L370.239 278.383L372.654 281.388L371.828 283.296L372.515 284.819L371.102 285.833" stroke="#263238" stroke-miterlimit="10" stroke-linecap="round" stroke-linejoin="round"/>
<path d="M402.978 294.75C402.978 294.75 400.247 292.312 399.23 292.472C398.212 292.632 384.832 294.866 384.832 294.866L372.516 284.819L370.643 286.16L382.419 300.942L395.224 300.143L392.474 314.134L380.835 323.007L399.831 334.355L403.665 322.279L418.787 307.382L412.925 299.962L402.978 294.75Z" fill="#92E3A9" stroke="#263238" stroke-miterlimit="10" stroke-linecap="round" stroke-linejoin="round"/>
<path d="M406.902 291.524L404.745 296.036L403.964 295.321L402.452 306.305L412.925 299.962L411.881 298.301L412.123 294.874L406.902 291.524Z" fill="white" stroke="#263238" stroke-miterlimit="10" stroke-linecap="round" stroke-linejoin="round"/>
<path d="M402.452 306.305L408.58 302.594L403.458 298.993L402.452 306.305Z" fill="white" stroke="#263238" stroke-miterlimit="10" stroke-linecap="round" stroke-linejoin="round"/>
<path d="M419.024 280.75C419.024 280.75 423.645 275.329 428.357 278.758C433.069 282.187 431.769 285.521 435.13 283.688C438.491 281.855 444.799 277.211 448.6 283.13C452.401 289.049 449.466 295.248 447.082 296.666C444.698 298.085 445.315 295.38 445.369 294.068C445.423 292.756 441.501 291.027 440.629 293.772C439.758 296.517 435.19 300.626 429.393 300.235C423.595 299.845 422.473 292.721 422.595 288.53C422.717 284.339 419.009 282.316 419.009 282.316L419.024 280.75Z" fill="#263238" stroke="#263238" stroke-miterlimit="10" stroke-linecap="round" stroke-linejoin="round"/>
<path d="M407.897 279.635C407.897 279.635 405.002 286.088 405.604 289.904C406.205 293.72 405.883 296.639 407.824 297.376C409.765 298.113 416.194 294.232 417.614 291.662C419.034 289.092 421.057 285.383 420.496 281.822C419.935 278.26 413.122 273.076 407.897 279.635Z" fill="white" stroke="#263238" stroke-miterlimit="10" stroke-linecap="round" stroke-linejoin="round"/>
<path d="M408.963 286.406C408.812 286.905 408.487 287.249 408.237 287.173C407.987 287.097 407.908 286.631 408.059 286.132C408.21 285.633 408.535 285.289 408.785 285.365C409.034 285.441 409.114 285.907 408.963 286.406Z" fill="#263238"/>
<path d="M413.616 288.334C413.465 288.833 413.14 289.177 412.89 289.101C412.64 289.025 412.561 288.559 412.712 288.06C412.863 287.561 413.188 287.217 413.438 287.293C413.688 287.368 413.768 287.834 413.616 288.334Z" fill="#263238"/>
<path d="M410.165 287.238C410.165 287.238 410.474 287.463 410.045 288.213C409.617 288.963 408.621 288.711 408.726 289.377C408.831 290.043 410.115 290.388 410.115 290.388" stroke="#263238" stroke-miterlimit="10" stroke-linecap="round" stroke-linejoin="round"/>
<path d="M407.842 291.566C407.842 291.566 409.448 293.089 410.893 292.725" stroke="#263238" stroke-miterlimit="10" stroke-linecap="round" stroke-linejoin="round"/>
<path d="M415.139 286.728L412.151 285.969" stroke="#263238" stroke-miterlimit="10" stroke-linecap="round" stroke-linejoin="round"/>
<path d="M409.787 284.839L408.356 283.561" stroke="#263238" stroke-miterlimit="10" stroke-linecap="round" stroke-linejoin="round"/>
<path d="M407.897 279.635C407.897 279.635 407.466 280.599 406.972 281.996C408.66 281.122 411.571 280.128 414.23 281.766C416.932 283.431 418.214 287.181 418.769 289.487C419.9 287.204 420.914 284.473 420.496 281.822C419.935 278.26 413.122 273.076 407.897 279.635Z" fill="#263238" stroke="#263238" stroke-miterlimit="10" stroke-linecap="round" stroke-linejoin="round"/>
<path d="M418.085 289.395C418.085 289.395 420.161 287.483 420.039 289.219C419.916 290.956 417.569 291.986 417.053 292.067C416.537 292.148 416.565 291.483 416.565 291.483" fill="white"/>
<path d="M418.085 289.395C418.085 289.395 420.161 287.483 420.039 289.219C419.916 290.956 417.569 291.986 417.053 292.067C416.537 292.148 416.565 291.483 416.565 291.483" stroke="#263238" stroke-miterlimit="10" stroke-linecap="round" stroke-linejoin="round"/>
<path d="M418.787 307.382L415.592 330.188C415.452 331.185 414.619 331.939 413.613 331.978L412.919 332.005C411.813 332.048 410.866 331.217 410.766 330.115L409.518 316.403L418.787 307.382Z" fill="#92E3A9" stroke="#263238" stroke-miterlimit="10" stroke-linecap="round" stroke-linejoin="round"/>
<path d="M413.022 327.062L402.729 317.994L400.425 319.921L410.29 331.326C410.704 331.804 411.313 332.068 411.945 332.044L412.764 332.012C414.092 331.96 415.032 330.693 414.695 329.407" fill="#92E3A9"/>
<path d="M413.022 327.062L402.729 317.994L400.425 319.921L410.29 331.326C410.704 331.804 411.313 332.068 411.945 332.044L412.764 332.012C414.092 331.96 415.032 330.693 414.695 329.407" stroke="#263238" stroke-miterlimit="10" stroke-linecap="round" stroke-linejoin="round"/>
<path d="M402.729 317.994L400.322 314.143L394.902 313.544L394.925 316.768L397.527 318.94L399.176 319.165L400.425 319.921L402.729 317.994Z" fill="white" stroke="#263238" stroke-miterlimit="10" stroke-linecap="round" stroke-linejoin="round"/>
<path d="M373.706 329.952C373.706 329.952 362.39 344.677 363.006 347.123C363.622 349.568 380.17 375.389 380.17 375.389L382.473 373.871L373.379 345.489L391.648 338.22L373.706 329.952Z" fill="white" stroke="#263238" stroke-miterlimit="10" stroke-linecap="round" stroke-linejoin="round"/>
<path d="M382.826 335.465L384.173 341.346L390.216 339.028L382.826 335.465Z" fill="#263238" stroke="#263238" stroke-miterlimit="10"/>
<path d="M380.171 375.389L377.133 380.392C377.133 380.392 374.736 383.97 375.444 384.194C376.974 384.678 380.935 382.081 382.057 381.28C383.179 380.479 384.405 379.953 385.153 379.419C385.901 378.885 387.397 378.583 385.346 376.685C384.661 376.051 382.474 373.871 382.474 373.871L380.171 375.389Z" fill="white" stroke="#263238" stroke-miterlimit="10" stroke-linecap="round" stroke-linejoin="round"/>
<path d="M398.858 325.297C398.858 325.297 392.426 322.612 383.252 320.129C374.078 317.645 367.302 315.708 367.431 317.999C367.561 320.29 384.236 357.184 384.236 357.184L387.097 356.271L382.736 335.926C382.736 335.926 389.749 340.83 394.913 338.399C400.077 335.968 402.049 329.417 401.694 327.161" fill="#263238"/>
<path d="M398.858 325.297C398.858 325.297 392.426 322.612 383.252 320.129C374.078 317.645 367.302 315.708 367.431 317.999C367.561 320.29 384.236 357.184 384.236 357.184L387.097 356.271L382.736 335.926C382.736 335.926 389.749 340.83 394.913 338.399C400.077 335.968 402.049 329.417 401.694 327.161" stroke="#263238" stroke-miterlimit="10" stroke-linecap="round" stroke-linejoin="round"/>
<path d="M381.302 319.6C373.137 317.387 367.311 315.873 367.431 317.998C367.561 320.289 384.236 357.183 384.236 357.183L387.097 356.27L382.736 335.925C384.227 332.304 382.646 324.668 381.302 319.6Z" fill="white" stroke="#263238" stroke-miterlimit="10" stroke-linecap="round" stroke-linejoin="round"/>
<path d="M382.736 335.926L375.547 325.502" stroke="#263238" stroke-miterlimit="10" stroke-linecap="round" stroke-linejoin="round"/>
<path d="M384.236 357.183L381.564 362.226C381.564 362.226 376.15 367.47 377.349 367.744C378.548 368.017 388.721 363.641 389.481 362.597C390.241 361.553 387.097 356.27 387.097 356.27L384.236 357.183Z" fill="white" stroke="#263238" stroke-miterlimit="10" stroke-linecap="round" stroke-linejoin="round"/>
<path d="M371.801 283.715L397.017 313.754" stroke="#263238" stroke-miterlimit="10"/>
<path d="M294.202 190.721L368.211 279.284" stroke="#263238" stroke-miterlimit="10"/>
<path d="M399.176 319.165V465.156" stroke="#263238" stroke-miterlimit="10"/>
<path d="M158.334 278.59C158.334 278.59 163.651 309.723 157.873 319.623C152.095 329.523 137.587 322.389 137.587 322.389V464.194" stroke="#263238" stroke-miterlimit="10"/>
<path d="M126.391 290.243C126.391 290.243 131.097 289.7 131.459 290.786C131.821 291.872 131.459 293.501 131.459 293.501C131.459 293.501 134.174 296.397 134.174 298.388C134.174 300.379 131.278 301.284 131.278 301.284L130.735 305.99L123.494 306.352L122.589 300.74C122.59 300.742 119.875 290.062 126.391 290.243Z" fill="white" stroke="#263238" stroke-miterlimit="10" stroke-linecap="round" stroke-linejoin="round"/>
<path d="M127.839 298.027L125.848 295.131C125.848 295.131 126.934 293.502 126.934 291.511C126.934 289.52 126.753 285.9 122.59 285.9C118.427 285.9 115.711 289.158 114.806 296.218C113.901 303.278 118.064 306.717 124.038 305.45C130.011 304.181 127.839 298.027 127.839 298.027Z" fill="#263238" stroke="#263238" stroke-miterlimit="10" stroke-linecap="round" stroke-linejoin="round"/>
<path d="M127.658 296.76C127.658 296.76 124.581 296.398 124.762 298.751C124.943 301.104 128.02 301.828 129.287 300.018" fill="white"/>
<path d="M127.658 296.76C127.658 296.76 124.581 296.398 124.762 298.751C124.943 301.104 128.02 301.828 129.287 300.018" stroke="#263238" stroke-miterlimit="10" stroke-linecap="round" stroke-linejoin="round"/>
<path d="M123.374 308.123L116.701 310.03C116.701 310.03 116.183 311.326 115.404 313.034C114.353 315.34 111.458 320.04 111.458 320.04L98.1112 323.853L93.8212 337.677L92.8682 343.397L100.495 339.584L100.972 326.237L112.938 324.394L118.094 311.425L123.374 308.123Z" fill="#263238" stroke="#263238" stroke-miterlimit="10" stroke-linecap="round" stroke-linejoin="round"/>
<path d="M133.994 306.172C133.994 306.172 128.745 303.819 124.762 304.362C120.78 304.905 121.142 306.896 121.142 306.896L121.323 309.611C121.323 309.611 128.02 307.621 133.994 306.172Z" fill="#92E3A9" stroke="#263238" stroke-miterlimit="10" stroke-linecap="round" stroke-linejoin="round"/>
<path d="M116.073 319.387L119.818 336.732C119.934 337.633 120.905 338.15 121.717 337.743L130.193 333.505L116.073 319.387Z" fill="#92E3A9" stroke="#263238" stroke-miterlimit="10" stroke-linecap="round" stroke-linejoin="round"/>
<path d="M125.486 328.618L123.495 332.6" stroke="#263238" stroke-miterlimit="10" stroke-linecap="round" stroke-linejoin="round"/>
<path d="M143.044 346.177L153.972 364.258L152.524 388.713L157.774 388.532L163.023 359.371L155.353 338.936L143.044 346.177Z" fill="#263238" stroke="#263238" stroke-miterlimit="10" stroke-linecap="round" stroke-linejoin="round"/>
<path d="M121.323 309.612C121.323 309.612 116.074 318.663 116.074 319.387C116.074 320.111 136.529 339.841 136.529 339.841L152.096 329.523L142.321 312.508L156.397 298.697L157.483 280.053L154.949 279.872L150.424 293.448L135.443 305.268L121.323 309.612Z" fill="#92E3A9" stroke="#263238" stroke-miterlimit="10" stroke-linecap="round" stroke-linejoin="round"/>
<path d="M154.948 279.871L155.129 275.708L159.654 272.269L160.016 273.174V275.889L160.197 278.061L157.482 280.052L154.948 279.871Z" fill="white" stroke="#263238" stroke-miterlimit="10" stroke-linecap="round" stroke-linejoin="round"/>
<path d="M136.528 339.841C136.528 339.841 139.967 345.633 142.501 347.444C145.035 349.254 153 343.643 154.991 342.014C156.982 340.385 164.585 330.61 164.585 330.61L171.654 360.688L175.998 358.878C175.998 358.878 173.454 318.844 172.187 317.758C170.92 316.672 151.371 329.343 151.371 329.343L136.528 339.841Z" fill="#263238" stroke="#263238" stroke-miterlimit="10" stroke-linecap="round" stroke-linejoin="round"/>
<path d="M175.999 358.877C175.999 358.877 181.067 358.877 182.153 358.877C183.239 358.877 185.954 357.248 186.135 358.515C186.316 359.782 180.886 363.221 178.714 364.308C176.542 365.394 172.198 365.937 172.198 365.937L171.655 360.688L175.999 358.877Z" fill="white" stroke="#263238" stroke-miterlimit="10" stroke-linecap="round" stroke-linejoin="round"/>
<path d="M157.774 388.532L160.851 394.143C160.851 394.143 164.652 395.772 164.652 396.496C164.652 397.22 158.498 396.858 157.955 396.858C157.412 396.858 151.257 390.884 151.257 390.884L152.524 388.712L157.774 388.532Z" fill="white" stroke="#263238" stroke-miterlimit="10" stroke-linecap="round" stroke-linejoin="round"/>
<path d="M159.654 272.269L218.744 191.253" stroke="#263238" stroke-miterlimit="10"/>
<path d="M12 465.199H486" stroke="#263238" stroke-miterlimit="10" stroke-linecap="round" stroke-linejoin="round"/>
</svg>
