<svg width="22" height="22" viewBox="0 0 22 22" fill="none" xmlns="http://www.w3.org/2000/svg">
<path d="M11.0002 1.83325C5.94933 1.83325 1.8335 5.94909 1.8335 10.9999C1.8335 16.0508 5.94933 20.1666 11.0002 20.1666C16.051 20.1666 20.1668 16.0508 20.1668 10.9999C20.1668 5.94909 16.051 1.83325 11.0002 1.83325ZM14.9877 14.2724C14.8593 14.4924 14.6302 14.6116 14.3918 14.6116C14.2727 14.6116 14.1535 14.5841 14.0435 14.5108L11.2018 12.8149C10.496 12.3933 9.9735 11.4674 9.9735 10.6516V6.89325C9.9735 6.51742 10.2852 6.20575 10.661 6.20575C11.0368 6.20575 11.3485 6.51742 11.3485 6.89325V10.6516C11.3485 10.9816 11.6235 11.4674 11.9077 11.6324L14.7493 13.3283C15.0793 13.5208 15.1893 13.9424 14.9877 14.2724Z" fill="#A0FFBA"/>
</svg>
