<svg width="60" height="66" viewBox="0 0 60 66" fill="none" xmlns="http://www.w3.org/2000/svg">
<g clip-path="url(#clip0_181_751)">
<path d="M38.6926 50.6291C38.6926 47.1543 36.6726 45.1339 32.8001 41.5724C31.9251 40.7599 30.9801 39.8987 30.0051 38.9399C28.8926 40.0476 27.8351 41.0227 26.8651 41.9191C23.0001 45.4562 21.3076 47.1868 21.3076 50.6291C21.3076 53.1266 22.2234 55.5218 23.8536 57.2878C25.4838 59.0539 27.6947 60.046 30.0001 60.046C32.3055 60.046 34.5165 59.0539 36.1466 57.2878C37.7768 55.5218 38.6926 53.1266 38.6926 50.6291Z" fill="#FF7300"/>
<path d="M41.0198 11.1552C38.0198 8.39538 34.9198 5.54351 31.7848 2.14997L29.9998 0.227051L28.2498 2.15268C22.6148 8.27893 19.9498 17.6877 18.7948 23.3318C17.9085 21.8451 17.2508 20.2124 16.8473 18.4975L15.7798 14.0639L12.6973 17.1975C7.29983 22.69 3.69733 28.1364 3.69733 36.8573C3.64543 43.1501 5.53623 49.2813 9.0693 54.2767C12.6024 59.2721 17.5751 62.8451 23.1973 64.4281C24.61 64.8158 26.0486 65.0829 27.4998 65.227C24.353 64.5917 21.5101 62.785 19.4626 60.1194C17.4152 57.4538 16.292 54.0969 16.2873 50.6291C16.2873 44.5354 19.6798 41.4208 23.6073 37.7862C25.0098 36.4943 26.6073 35.0291 28.2198 33.2714L29.9998 31.3539L31.7698 33.2714C33.2098 34.8314 34.6498 36.1531 36.0423 37.4368C39.9823 41.0579 43.7023 44.4785 43.7023 50.6291C43.6983 54.0832 42.5842 57.4279 40.5513 60.0888C38.5184 62.7498 35.6937 64.5608 32.5623 65.2108C39.0637 64.5274 45.097 61.2451 49.4857 56.0041C53.8743 50.763 56.3036 43.9389 56.2998 36.8627C56.2998 25.2114 49.2173 18.6979 41.0198 11.1552Z" fill="#FF7300"/>
</g>
<defs>
<clipPath id="clip0_181_751">
<rect width="60" height="65" fill="white" transform="translate(0 0.227051)"/>
</clipPath>
</defs>
</svg>
