<svg width="435" height="462" viewBox="0 0 435 462" fill="none" xmlns="http://www.w3.org/2000/svg">
<path d="M357.956 100.599C343.163 84.3168 326.218 70.783 308.204 61.3027C280.772 46.8671 250.559 39.9094 220.342 39.4954C132.034 38.2868 125.311 155.046 98.1595 171.281C71.0077 187.516 21.7961 189.425 20.0979 254.362C19.0304 295.206 27.5016 337.205 51.3239 369.027C73.1427 398.173 105.197 412.945 136.775 423.858C172.237 436.114 209.847 448.135 247.15 439.866C285.43 431.381 312.325 397.265 343.762 374.213C363.556 359.697 381.323 344.413 393.544 321.12C395.004 318.338 396.375 315.495 397.676 312.615C414.037 276.422 417.245 234.675 408.222 195.509C400.127 160.366 381.849 126.897 357.956 100.599Z" fill="#92E3A9"/>
<path opacity="0.7" d="M357.956 100.599C343.163 84.3168 326.218 70.783 308.204 61.3027C280.772 46.8671 250.559 39.9094 220.342 39.4954C132.034 38.2868 125.311 155.046 98.1595 171.281C71.0077 187.516 21.7961 189.425 20.0979 254.362C19.0304 295.206 27.5016 337.205 51.3239 369.027C73.1427 398.173 105.197 412.945 136.775 423.858C172.237 436.114 209.847 448.135 247.15 439.866C285.43 431.381 312.325 397.265 343.762 374.213C363.556 359.697 381.323 344.413 393.544 321.12C395.004 318.338 396.375 315.495 397.676 312.615C414.037 276.422 417.245 234.675 408.222 195.509C400.127 160.366 381.849 126.897 357.956 100.599Z" fill="white"/>
<path d="M250.872 293.395C252.414 294.537 256.565 295.314 256.569 295.314C256.611 295.322 256.22 292.253 256.175 292.062C255.646 289.855 253.404 285.921 251.007 285.762C249.281 285.647 248.011 287.235 248.074 288.997C248.139 290.796 249.558 292.422 250.872 293.395Z" fill="#263238"/>
<path d="M249.91 306.411C251.612 307.054 255.513 306.7 255.823 306.67C255.994 308.986 256.345 311.348 256.825 313.717C257.099 315.072 257.413 316.428 257.745 317.783C257.508 317.188 257.29 316.658 257.253 316.587C256.194 314.607 253.053 311.441 250.702 311.96C249.008 312.333 248.178 314.221 248.678 315.903C249.188 317.619 250.961 318.79 252.47 319.36C254.001 319.939 257.334 319.708 258.214 319.634C258.346 320.152 258.473 320.671 258.607 321.189C259.251 323.673 259.903 326.151 260.473 328.6C260.675 329.464 260.842 330.322 261.014 331.18C260.802 330.651 260.619 330.209 260.586 330.145C259.527 328.165 256.386 324.999 254.035 325.518C252.341 325.891 251.511 327.78 252.011 329.46C252.521 331.177 254.294 332.348 255.802 332.918C257.263 333.47 260.34 333.286 261.388 333.203C261.538 334.088 261.69 334.973 261.798 335.837C261.86 336.429 261.958 336.994 261.988 337.592C262.03 338.183 262.072 338.768 262.112 339.348C262.152 340.468 262.201 341.623 262.215 342.716C262.231 343.477 262.232 344.201 262.234 344.931C262.044 344.069 261.637 342.39 261.587 342.254C260.823 340.127 258.17 336.493 255.772 336.627C254.045 336.724 252.955 338.456 253.209 340.198C253.468 341.977 255.053 343.42 256.464 344.226C258.016 345.113 261.769 345.398 262.238 345.431C262.239 346.638 262.229 347.814 262.204 348.923C262.156 351.175 262.065 353.198 261.965 354.943L263.5 355.269C263.571 353.451 263.624 351.319 263.626 348.941C263.63 347.714 263.611 346.404 263.578 345.057C263.875 344.999 265.563 344.659 267.1 344.132C268.045 345.773 270.828 348.049 271.189 348.34C270.563 349.349 269.944 350.323 269.346 351.233C268.214 352.966 267.155 354.507 266.211 355.843L267.867 356.194C268.684 354.97 269.578 353.597 270.524 352.082C271.164 351.061 271.829 349.956 272.501 348.814C272.926 349.007 276.402 350.556 278.167 350.509C279.768 350.466 281.796 349.939 282.784 348.476C283.751 347.044 283.514 344.974 282.015 344.06C279.933 342.791 276.02 344.762 274.434 346.294C274.34 346.384 273.429 347.485 272.864 348.19C273.137 347.722 273.406 347.271 273.681 346.785C274.231 345.83 274.753 344.859 275.318 343.816C275.575 343.303 275.833 342.784 276.095 342.26C276.365 341.746 276.588 341.167 276.84 340.617C277.397 339.328 277.904 337.993 278.385 336.635C279.174 337.144 282.001 338.91 283.597 339.126C285.185 339.342 287.265 339.147 288.45 337.86C289.611 336.599 289.672 334.516 288.319 333.371C286.442 331.781 282.294 333.1 280.508 334.358C280.396 334.437 279.211 335.493 278.569 336.087C278.853 335.269 279.14 334.454 279.402 333.617C280.157 331.198 280.851 328.726 281.553 326.262C281.768 325.508 281.991 324.758 282.211 324.008C282.49 324.193 285.808 326.369 287.595 326.611C289.183 326.826 291.263 326.631 292.448 325.344C293.607 324.084 293.67 322.001 292.317 320.855C290.44 319.266 286.291 320.584 284.505 321.843C284.371 321.938 282.666 323.461 282.25 323.871C282.736 322.217 283.234 320.574 283.787 318.976C284.547 316.769 285.408 314.649 286.385 312.659C286.514 312.746 289.967 315.034 291.798 315.282C293.386 315.497 295.466 315.302 296.651 314.015C297.81 312.754 297.873 310.672 296.52 309.526C294.643 307.937 290.494 309.254 288.708 310.514C288.568 310.613 286.735 312.253 286.423 312.575C286.481 312.457 286.53 312.328 286.589 312.21C287.657 310.102 288.941 308.2 290.226 306.483C290.971 305.483 291.735 304.572 292.498 303.704C293.1 304.2 295.875 306.435 297.498 306.852C299.054 307.251 301.142 307.3 302.453 306.159C303.736 305.042 304.013 302.979 302.788 301.682C301.086 299.883 296.826 300.709 294.921 301.752C294.817 301.809 293.824 302.51 293.107 303.031C293.457 302.645 293.811 302.239 294.153 301.876C295.433 300.51 296.685 299.343 297.802 298.318C298.442 297.74 299.031 297.232 299.587 296.763C300.417 296.923 303.769 297.52 305.362 297.104C306.917 296.696 308.791 295.718 309.459 294.064C310.113 292.444 309.463 290.477 307.813 289.927C305.522 289.163 302.1 291.981 300.861 293.84C300.754 294.001 299.353 296.717 299.395 296.726C299.395 296.726 299.435 296.734 299.446 296.736C298.902 297.177 298.324 297.655 297.703 298.192C296.563 299.193 295.284 300.335 293.969 301.678C292.653 303.015 291.258 304.509 289.924 306.222C288.583 307.938 287.255 309.814 286.124 311.936C286.11 311.96 286.1 311.987 286.087 312.011C286.237 311.281 286.592 309.226 286.601 309.064C286.746 306.793 285.771 302.312 283.541 301.366C281.935 300.686 280.261 301.775 279.805 303.469C279.338 305.2 280.209 307.215 281.172 308.574C282.257 310.107 285.695 312.097 285.97 312.255C284.909 314.286 283.976 316.462 283.145 318.72C282.669 320.01 282.227 321.325 281.8 322.65C281.91 322.014 282.004 321.445 282.009 321.363C282.155 319.091 281.179 314.612 278.95 313.666C277.343 312.985 275.67 314.074 275.213 315.769C274.747 317.499 275.617 319.514 276.58 320.874C277.557 322.252 280.456 324.012 281.229 324.467C281.07 324.977 280.906 325.484 280.75 325.995C279.996 328.445 279.254 330.894 278.456 333.271C278.176 334.109 277.871 334.923 277.568 335.739C277.665 335.174 277.743 334.699 277.747 334.624C277.893 332.353 276.917 327.872 274.687 326.927C273.081 326.246 271.407 327.334 270.951 329.029C270.484 330.759 271.355 332.775 272.318 334.134C273.249 335.451 275.911 337.1 276.828 337.645C276.494 338.47 276.162 339.298 275.804 340.083C275.548 340.612 275.336 341.141 275.05 341.657C274.778 342.175 274.509 342.687 274.242 343.195C273.694 344.152 273.134 345.143 272.579 346.064C272.196 346.707 271.821 347.311 271.444 347.923C271.732 347.092 272.265 345.453 272.295 345.311C272.606 343.834 272.563 341.318 271.894 339.414C271.941 339.196 271.97 338.975 271.978 338.751C272.041 336.99 270.769 335.403 269.043 335.519C266.647 335.68 264.407 339.616 263.88 341.823C263.849 341.954 263.661 343.406 263.556 344.325C263.54 343.775 263.531 343.241 263.508 342.675C263.47 341.556 263.402 340.44 263.331 339.239C263.278 338.661 263.225 338.076 263.171 337.486C263.129 336.899 263.015 336.286 262.939 335.679C262.734 334.277 262.463 332.866 262.159 331.453C263.082 331.415 266.357 331.232 267.8 330.477C269.237 329.726 270.871 328.344 271.19 326.577C271.503 324.846 270.473 323.072 268.75 322.909C266.358 322.683 263.583 326.213 262.748 328.31C262.695 328.441 262.255 330.017 262.029 330.888C261.84 330.039 261.657 329.192 261.439 328.34C260.814 325.88 260.108 323.412 259.415 320.945C259.201 320.189 258.998 319.434 258.792 318.679C259.12 318.67 263.018 318.541 264.634 317.696C266.07 316.945 267.704 315.563 268.023 313.796C268.336 312.065 267.306 310.291 265.583 310.128C263.191 309.902 260.416 313.433 259.581 315.529C259.518 315.687 258.887 317.957 258.753 318.541C258.299 316.878 257.862 315.216 257.493 313.558C256.98 311.272 256.597 308.999 256.378 306.768C256.531 306.763 260.599 306.649 262.255 305.783C263.691 305.032 265.325 303.65 265.645 301.883C265.958 300.152 264.928 298.378 263.204 298.215C260.813 297.989 258.037 301.52 257.202 303.616C257.136 303.781 256.459 306.222 256.366 306.675C256.353 306.541 256.326 306.406 256.315 306.274C256.11 303.888 256.195 301.55 256.374 299.366C256.476 298.096 256.64 296.888 256.825 295.718C257.585 295.779 261.061 296.017 262.631 295.413C264.136 294.833 265.903 293.652 266.403 291.932C266.893 290.249 266.053 288.365 264.357 288.002C262.004 287.499 258.88 290.684 257.833 292.67C257.776 292.779 257.312 293.945 256.985 294.799C257.076 294.273 257.16 293.727 257.257 293.223C257.615 291.332 258.053 289.625 258.452 288.116C258.685 287.259 258.913 286.491 259.133 285.774C259.908 285.421 263.015 283.956 264.126 282.675C265.211 281.423 266.266 279.51 265.964 277.739C265.668 276.004 264.105 274.745 262.442 275.252C260.135 275.957 258.745 280.312 258.677 282.589C258.672 282.785 258.913 285.873 258.953 285.854C258.953 285.854 258.992 285.837 259 285.833C258.776 286.518 258.543 287.257 258.304 288.068C257.872 289.57 257.398 291.273 257 293.162C256.597 295.049 256.209 297.111 255.986 299.322C255.759 301.539 255.627 303.882 255.784 306.316C255.786 306.344 255.791 306.372 255.793 306.399C255.539 305.703 254.766 303.781 254.691 303.64C253.633 301.66 250.492 298.494 248.141 299.013C246.447 299.386 245.617 301.275 246.117 302.955C246.629 304.67 248.402 305.841 249.91 306.411Z" fill="#263238"/>
<path d="M292.492 303.217C292.524 303.248 293.792 300.459 293.852 300.273C294.558 298.123 294.731 293.528 292.815 291.991C291.436 290.884 289.55 291.465 288.689 292.971C287.809 294.509 288.147 296.697 288.738 298.278C289.43 300.135 292.489 303.215 292.492 303.217Z" fill="#263238"/>
<path d="M161.607 119.673C163.249 119.924 166.811 118.788 166.815 118.788C166.851 118.776 165.397 116.521 165.29 116.39C164.05 114.873 160.814 112.715 158.865 113.598C157.462 114.234 157.053 116.022 157.761 117.383C158.483 118.774 160.208 119.459 161.607 119.673Z" fill="#263238"/>
<path d="M165.705 130.339C167.287 130.13 170.23 128.208 170.464 128.054C171.463 129.809 172.622 131.523 173.884 133.189C174.605 134.143 175.359 135.079 176.126 136.007C175.717 135.638 175.348 135.312 175.292 135.273C173.718 134.157 170.061 132.984 168.401 134.382C167.204 135.389 167.255 137.227 168.276 138.342C169.319 139.48 171.154 139.658 172.556 139.472C173.978 139.284 176.52 137.699 177.186 137.269C177.484 137.622 177.778 137.978 178.077 138.33C179.512 140.018 180.95 141.696 182.314 143.388C182.795 143.984 183.247 144.589 183.703 145.194C183.339 144.866 183.03 144.594 182.978 144.558C181.405 143.443 177.747 142.269 176.087 143.667C174.892 144.674 174.941 146.512 175.963 147.627C177.006 148.766 178.841 148.943 180.242 148.757C181.6 148.576 183.957 147.136 184.752 146.63C185.2 147.264 185.652 147.898 186.059 148.534C186.329 148.975 186.617 149.379 186.864 149.838C187.118 150.287 187.368 150.73 187.618 151.17C188.068 152.036 188.537 152.926 188.956 153.782C189.252 154.375 189.523 154.946 189.798 155.52C189.327 154.921 188.379 153.769 188.289 153.682C186.893 152.327 183.446 150.579 181.605 151.693C180.279 152.496 180.067 154.321 180.917 155.588C181.785 156.88 183.573 157.351 184.986 157.393C186.54 157.438 189.606 156.084 189.987 155.912C190.439 156.864 190.87 157.794 191.263 158.679C192.066 160.476 192.75 162.108 193.322 163.527L194.654 163.137C194.031 161.674 193.278 159.971 192.392 158.095C191.937 157.127 191.432 156.101 190.905 155.054C191.117 154.883 192.321 153.905 193.336 152.842C194.693 153.738 197.737 154.361 198.13 154.438C198.013 155.497 197.889 156.526 197.757 157.494C197.511 159.337 197.252 160.998 197.006 162.448L198.442 162.028C198.63 160.719 198.822 159.261 199.001 157.668C199.125 156.593 199.237 155.442 199.341 154.259C199.748 154.232 203.068 153.99 204.441 153.21C205.687 152.502 207.09 151.233 207.322 149.664C207.55 148.127 206.591 146.595 205.068 146.507C202.953 146.383 200.603 149.583 199.925 151.458C199.885 151.569 199.577 152.821 199.395 153.614C199.435 153.131 199.48 152.661 199.515 152.163C199.592 151.178 199.642 150.193 199.698 149.134C199.709 148.621 199.719 148.103 199.729 147.579C199.75 147.061 199.71 146.51 199.703 145.971C199.662 144.72 199.562 143.454 199.436 142.18C200.249 142.25 203.136 142.452 204.474 141.95C205.806 141.451 207.374 140.422 207.827 138.909C208.272 137.426 207.544 135.759 206.049 135.424C203.976 134.961 201.197 137.747 200.259 139.492C200.201 139.601 199.66 140.933 199.376 141.67C199.294 140.906 199.216 140.142 199.11 139.371C198.803 137.147 198.428 134.906 198.063 132.668C197.95 131.982 197.847 131.298 197.74 130.614C198.029 130.641 201.456 130.961 202.955 130.399C204.288 129.9 205.855 128.871 206.308 127.358C206.753 125.875 206.024 124.208 204.53 123.874C202.457 123.411 199.678 126.196 198.74 127.942C198.67 128.073 197.895 129.991 197.72 130.489C197.486 128.981 197.265 127.476 197.105 125.983C196.88 123.923 196.767 121.888 196.795 119.909C196.93 119.922 200.505 120.273 202.041 119.698C203.374 119.199 204.941 118.169 205.394 116.656C205.839 115.174 205.11 113.506 203.616 113.172C201.543 112.709 198.764 115.494 197.826 117.24C197.752 117.377 196.919 119.441 196.793 119.827C196.795 119.709 196.785 119.587 196.788 119.469C196.844 117.357 197.146 115.318 197.519 113.424C197.733 112.322 197.996 111.283 198.272 110.277C198.932 110.414 201.953 111.008 203.389 110.654C204.765 110.313 206.428 109.473 207.037 108.021C207.632 106.6 207.08 104.856 205.63 104.351C203.617 103.649 200.567 106.094 199.455 107.718C199.394 107.807 198.872 108.777 198.502 109.489C198.633 109.037 198.761 108.569 198.895 108.138C199.395 106.522 199.946 105.074 200.445 103.797C200.733 103.072 201.008 102.423 201.271 101.819C201.985 101.596 204.851 100.657 205.951 99.657C207.024 98.6813 208.136 97.1215 208.046 95.536C207.957 93.9836 206.711 92.7057 205.204 92.9672C203.114 93.3294 201.468 96.9913 201.185 98.9779C201.161 99.1497 201.069 101.881 201.107 101.87C201.107 101.87 201.141 101.859 201.15 101.857C200.886 102.433 200.609 103.054 200.319 103.738C199.794 105.007 199.211 106.446 198.676 108.057C198.137 109.666 197.595 111.43 197.182 113.342C196.765 115.259 196.419 117.298 196.318 119.447C196.317 119.471 196.319 119.497 196.317 119.521C196.163 118.883 195.675 117.113 195.623 116.981C194.891 115.128 192.449 112.007 190.338 112.2C188.817 112.34 187.904 113.902 188.177 115.431C188.455 116.991 189.893 118.214 191.159 118.88C192.587 119.631 196.041 119.753 196.316 119.761C196.237 121.81 196.314 123.918 196.502 126.047C196.608 127.265 196.751 128.488 196.908 129.712C196.758 129.165 196.619 128.676 196.593 128.61C195.86 126.757 193.418 123.636 191.308 123.83C189.787 123.969 188.874 125.532 189.147 127.06C189.425 128.621 190.863 129.843 192.129 130.51C193.414 131.187 196.356 131.353 197.135 131.386C197.2 131.855 197.26 132.324 197.327 132.793C197.648 135.041 197.976 137.284 198.234 139.493C198.326 140.272 198.389 141.043 198.455 141.814C198.321 141.328 198.204 140.919 198.18 140.859C197.447 139.006 195.006 135.885 192.896 136.079C191.375 136.219 190.462 137.781 190.735 139.31C191.013 140.87 192.451 142.093 193.717 142.759C194.943 143.405 197.657 143.584 198.583 143.628C198.627 144.419 198.674 145.212 198.684 145.981C198.679 146.506 198.71 147.012 198.678 147.54C198.657 148.063 198.635 148.58 198.614 149.092C198.539 150.077 198.469 151.094 198.373 152.054C198.311 152.722 198.241 153.357 198.172 153.997C198.089 153.221 197.898 151.705 197.869 151.58C197.562 150.286 196.59 148.319 195.352 147.1C195.307 146.909 195.248 146.722 195.171 146.542C194.563 145.127 192.968 144.411 191.65 145.229C189.821 146.364 189.523 150.41 189.932 152.372C189.957 152.488 190.35 153.712 190.61 154.481C190.393 154.054 190.186 153.637 189.957 153.2C189.51 152.333 189.039 151.482 188.535 150.565C188.278 150.131 188.017 149.693 187.755 149.25C187.503 148.805 187.184 148.369 186.898 147.923C186.213 146.904 185.473 145.906 184.706 144.919C185.42 144.501 187.933 142.978 188.789 141.776C189.641 140.578 190.413 138.802 190.006 137.274C189.607 135.778 188.133 134.813 186.714 135.41C184.745 136.239 183.874 140.19 183.998 142.195C184.006 142.321 184.247 143.748 184.394 144.53C183.929 143.941 183.467 143.349 182.978 142.769C181.567 141.094 180.09 139.444 178.622 137.791C178.173 137.285 177.731 136.776 177.285 136.268C177.541 136.122 180.565 134.38 181.524 133.033C182.376 131.836 183.148 130.059 182.741 128.531C182.342 127.035 180.868 126.07 179.449 126.667C177.479 127.496 176.608 131.447 176.732 133.452C176.741 133.603 177.091 135.658 177.203 136.175C176.225 135.055 175.259 133.929 174.35 132.778C173.093 131.191 171.942 129.56 170.938 127.894C171.057 127.826 174.221 126.022 175.203 124.644C176.056 123.447 176.828 121.67 176.42 120.142C176.021 118.645 174.547 117.681 173.128 118.278C171.159 119.107 170.288 123.058 170.411 125.062C170.421 125.22 170.798 127.43 170.894 127.825C170.834 127.725 170.763 127.63 170.705 127.53C169.654 125.736 168.847 123.857 168.173 122.059C167.78 121.015 167.459 119.994 167.167 118.994C167.789 118.722 170.617 117.447 171.63 116.309C172.601 115.219 173.552 113.544 173.306 111.977C173.064 110.443 171.698 109.312 170.226 109.74C168.182 110.333 166.909 114.159 166.824 116.166C166.82 116.275 166.889 117.39 166.95 118.202C166.825 117.748 166.688 117.281 166.576 116.844C166.154 115.203 165.861 113.672 165.613 112.315C165.478 111.541 165.371 110.839 165.276 110.181C165.755 109.576 167.658 107.115 168.055 105.635C168.443 104.193 168.561 102.24 167.662 100.97C166.782 99.7272 165.079 99.3918 163.959 100.492C162.403 102.02 162.932 106.038 163.728 107.861C163.797 108.018 165.139 110.35 165.164 110.319C165.164 110.319 165.188 110.289 165.193 110.283C165.272 110.918 165.364 111.598 165.478 112.339C165.699 113.705 165.96 115.247 166.351 116.904C166.737 118.562 167.202 120.351 167.85 122.188C168.498 124.03 169.268 125.935 170.301 127.786C170.313 127.808 170.327 127.828 170.339 127.848C169.879 127.407 168.553 126.216 168.441 126.137C166.867 125.022 163.209 123.848 161.549 125.246C160.354 126.253 160.404 128.092 161.425 129.207C162.469 130.349 164.304 130.525 165.705 130.339Z" fill="#263238"/>
<path d="M198.084 109.897C198.121 109.909 198.08 107.176 198.058 107.004C197.812 105.012 196.234 101.317 194.149 100.911C192.647 100.619 191.379 101.87 191.261 103.421C191.142 105.004 192.225 106.586 193.281 107.585C194.52 108.756 198.081 109.896 198.084 109.897Z" fill="#263238"/>
<path d="M50.9303 382.186C52.4781 381.65 55.1498 379.008 55.1524 379.006C55.1803 378.979 52.9783 377.665 52.8304 377.598C51.1182 376.835 47.3886 376.427 46.034 378.104C45.0587 379.31 45.4293 381.072 46.6082 381.945C47.8122 382.834 49.6114 382.642 50.9303 382.186Z" fill="#263238"/>
<path d="M58.898 389.684C60.2039 388.77 62.01 385.722 62.1527 385.478C63.7491 386.562 65.4691 387.537 67.2613 388.421C68.2853 388.928 69.3319 389.404 70.3864 389.868C69.8748 389.732 69.4172 389.616 69.3511 389.605C67.5101 389.35 63.8109 390.003 62.9218 391.999C62.2806 393.436 63.0766 395.031 64.4303 395.542C65.8137 396.063 67.5006 395.373 68.6594 394.564C69.8348 393.741 71.4234 391.175 71.8349 390.49C72.2412 390.663 72.6449 390.841 73.0521 391.013C75.0052 391.837 76.9575 392.65 78.8489 393.511C79.5161 393.814 80.1617 394.139 80.8098 394.46C80.3557 394.34 79.972 394.243 79.912 394.235C78.0711 393.978 74.3718 394.632 73.4827 396.628C72.8415 398.066 73.6376 399.66 74.9913 400.171C76.3746 400.693 78.0615 400.002 79.2203 399.193C80.3418 398.408 81.8277 396.054 82.321 395.242C82.9744 395.593 83.6304 395.943 84.2489 396.315C84.6657 396.579 85.085 396.802 85.4896 397.091C85.8967 397.369 86.2987 397.643 86.698 397.916C87.4479 398.47 88.2248 399.038 88.9426 399.599C89.4455 399.984 89.9179 400.362 90.3938 400.741C89.7334 400.431 88.4284 399.854 88.3145 399.818C86.5318 399.269 82.7821 399.319 81.6181 401.15C80.7794 402.468 81.3379 404.172 82.6038 404.895C83.8966 405.633 85.6627 405.222 86.9233 404.608C88.311 403.931 90.4547 401.325 90.7209 400.997C91.5074 401.627 92.2669 402.248 92.975 402.845C94.4166 404.056 95.6851 405.178 96.7682 406.163L97.7818 405.205C96.636 404.205 95.2771 403.053 93.7302 401.811C92.9342 401.167 92.0703 400.498 91.1785 399.818C91.296 399.57 91.9554 398.154 92.4139 396.751C93.9747 396.913 96.9083 396.059 97.2868 395.946C97.6156 396.932 97.9271 397.895 98.2072 398.808C98.744 400.544 99.1947 402.125 99.5714 403.515L100.663 402.483C100.293 401.244 99.8663 399.872 99.3739 398.387C99.0433 397.385 98.6718 396.319 98.2803 395.23C98.6266 395.018 101.45 393.276 102.341 391.955C103.148 390.758 103.863 388.995 103.427 387.506C103 386.049 101.53 385.142 100.153 385.766C98.2403 386.632 97.4799 390.532 97.6496 392.496C97.6591 392.612 97.9001 393.856 98.0637 394.638C97.9019 394.193 97.7487 393.761 97.5765 393.305C97.2415 392.402 96.8822 391.513 96.4985 390.553C96.2984 390.097 96.0957 389.637 95.8913 389.171C95.6982 388.705 95.438 388.239 95.211 387.767C94.6629 386.685 94.0582 385.616 93.4266 384.554C94.1696 384.241 96.7943 383.088 97.7679 382.029C98.7362 380.975 99.6949 379.346 99.4757 377.805C99.2608 376.295 97.9384 375.163 96.4872 375.558C94.4732 376.107 93.1665 379.839 93.0533 381.808C93.0464 381.931 93.1151 383.353 93.1664 384.133C92.7819 383.497 92.4008 382.861 91.9928 382.232C90.814 380.415 89.5673 378.616 88.331 376.815C87.9517 376.263 87.581 375.709 87.2069 375.155C87.4723 375.047 90.62 373.747 91.7101 372.561C92.6792 371.508 93.6371 369.88 93.4187 368.338C93.2039 366.829 91.8806 365.696 90.4303 366.092C88.4163 366.639 87.1086 370.372 86.9964 372.341C86.9877 372.488 87.0895 374.534 87.1391 375.053C86.3169 373.834 85.507 372.611 84.7562 371.371C83.7165 369.662 82.7856 367.923 82.0017 366.168C82.1253 366.118 85.4165 364.778 86.5327 363.563C87.5019 362.51 88.4606 360.882 88.2405 359.34C88.0256 357.831 86.7023 356.698 85.2521 357.093C83.238 357.642 81.9313 361.374 81.8182 363.342C81.8095 363.496 81.92 365.697 81.9669 366.095C81.9208 365.991 81.8617 365.887 81.8164 365.783C81.0021 363.898 80.4349 361.963 79.9877 360.124C79.7258 359.056 79.5318 358.019 79.3648 357.007C80.0016 356.824 82.9039 355.954 84.0228 354.979C85.0946 354.045 86.216 352.538 86.1577 350.981C86.1003 349.456 84.9023 348.176 83.4198 348.4C81.3614 348.71 79.6762 352.268 79.3604 354.211C79.343 354.316 79.2812 355.411 79.2456 356.209C79.1768 355.751 79.0977 355.279 79.0394 354.839C78.8184 353.186 78.7123 351.658 78.6287 350.303C78.587 349.533 78.5635 348.835 78.5478 348.182C79.0855 347.656 81.224 345.508 81.7834 344.121C82.3297 342.767 82.6708 340.881 81.9435 339.527C81.2309 338.202 79.6119 337.652 78.393 338.577C76.7008 339.859 76.7487 343.842 77.3116 345.721C77.3603 345.884 78.3956 348.33 78.4243 348.303C78.4243 348.303 78.4504 348.277 78.4574 348.271C78.46 348.9 78.4704 349.574 78.4948 350.311C78.5513 351.67 78.6261 353.205 78.8141 354.87C78.9976 356.534 79.2412 358.336 79.6597 360.21C80.0764 362.09 80.6045 364.044 81.3945 365.982C81.4032 366.005 81.4154 366.026 81.4241 366.048C81.0273 365.557 79.8746 364.224 79.7754 364.133C78.373 362.84 74.9486 361.218 73.1695 362.361C71.888 363.186 71.7236 364.982 72.5875 366.201C73.4705 367.447 75.2357 367.86 76.6225 367.863C78.1868 367.866 81.2762 366.381 81.5215 366.262C82.2897 368.1 83.2189 369.921 84.2542 371.709C84.8449 372.732 85.4704 373.743 86.109 374.748C85.7532 374.335 85.4313 373.969 85.3817 373.922C83.9792 372.631 80.5549 371.008 78.7758 372.151C77.4943 372.975 77.3298 374.772 78.1937 375.991C79.0768 377.237 80.842 377.65 82.2288 377.653C83.6356 377.655 86.2943 376.446 86.9929 376.116C87.2417 376.499 87.4862 376.884 87.7368 377.265C88.9374 379.097 90.1432 380.92 91.2742 382.746C91.6735 383.389 92.0433 384.038 92.4165 384.686C92.0998 384.32 91.831 384.014 91.7849 383.973C90.3825 382.68 86.9581 381.058 85.1798 382.201C83.8983 383.025 83.733 384.821 84.5978 386.042C85.4809 387.287 87.247 387.699 88.6329 387.703C89.9753 387.706 92.4383 386.613 93.2717 386.225C93.6345 386.9 93.999 387.576 94.3227 388.249C94.5332 388.714 94.7672 389.144 94.9543 389.624C95.1492 390.094 95.3423 390.559 95.5328 391.02C95.8704 391.922 96.2236 392.85 96.5316 393.739C96.75 394.355 96.9483 394.946 97.1493 395.541C96.7595 394.896 95.9705 393.65 95.8939 393.554C95.0952 392.555 93.4353 391.273 91.8475 390.771C91.7301 390.623 91.6022 390.486 91.4604 390.363C90.3468 389.399 88.6503 389.503 87.8246 390.831C86.6789 392.673 88.0717 396.372 89.2323 397.91C89.301 398.001 90.1475 398.897 90.6904 399.453C90.3242 399.178 89.9718 398.906 89.5916 398.628C88.8434 398.072 88.0813 397.54 87.2635 396.964C86.8598 396.701 86.4509 396.436 86.0394 396.167C85.6357 395.891 85.1764 395.655 84.7422 395.394C83.7235 394.813 82.6638 394.276 81.585 393.761C82.0418 393.064 83.6321 390.565 83.894 389.111C84.155 387.664 84.108 385.745 83.1249 384.588C82.1618 383.455 80.4705 383.285 79.4648 384.465C78.0693 386.103 78.9185 389.982 79.8467 391.69C79.905 391.796 80.7002 392.942 81.1491 393.563C80.4984 393.258 79.8502 392.951 79.1829 392.666C77.2559 391.842 75.281 391.071 73.3148 390.293C72.7119 390.055 72.1151 389.811 71.5156 389.568C71.6809 389.321 73.6315 386.394 73.9247 384.766C74.1857 383.32 74.1395 381.4 73.1556 380.244C72.1925 379.111 70.5012 378.941 69.4955 380.121C68.1 381.758 68.9491 385.637 69.8774 387.344C69.947 387.473 71.0945 389.12 71.406 389.524C70.0871 388.989 68.7769 388.443 67.5058 387.849C65.751 387.032 64.0719 386.128 62.5059 385.123C62.5833 385.009 64.6313 381.963 64.9323 380.296C65.1933 378.85 65.1472 376.93 64.1633 375.773C63.2002 374.64 61.508 374.47 60.5032 375.65C59.1077 377.288 59.9568 381.167 60.8851 382.874C60.9582 383.008 62.1936 384.779 62.4389 385.083C62.3458 385.023 62.2432 384.973 62.151 384.912C60.4919 383.817 59.0146 382.535 57.687 381.264C56.9144 380.526 56.2141 379.775 55.5485 379.028C55.9844 378.503 57.9532 376.076 58.3804 374.608C58.7884 373.201 58.9415 371.287 58.0837 370.022C57.2442 368.784 55.579 368.418 54.4584 369.473C52.902 370.938 53.3448 374.893 54.0913 376.698C54.1322 376.796 54.6481 377.746 55.0335 378.432C54.7377 378.091 54.4271 377.743 54.1504 377.41C53.1073 376.16 52.2251 374.947 51.4517 373.867C51.0167 373.249 50.6348 372.681 50.2824 372.146C50.4573 371.393 51.1254 368.348 50.8714 366.863C50.6235 365.414 49.9283 363.641 48.619 362.939C47.3357 362.25 45.7001 362.741 45.1633 364.226C44.4177 366.287 46.5266 369.581 47.9726 370.819C48.0978 370.925 50.232 372.359 50.2415 372.32C50.2415 372.32 50.2502 372.283 50.252 372.275C50.5808 372.797 50.9401 373.353 51.3429 373.953C52.0955 375.053 52.9559 376.29 53.9773 377.569C54.9952 378.849 56.1349 380.21 57.4564 381.528C58.7806 382.851 60.2361 384.171 61.9021 385.326C61.9213 385.338 61.9422 385.35 61.9613 385.362C61.3758 385.186 59.7219 384.749 59.5914 384.731C57.7505 384.475 54.0513 385.129 53.1621 387.125C52.5218 388.563 53.3161 390.157 54.6716 390.668C56.0523 391.185 57.7401 390.493 58.898 389.684Z" fill="#263238"/>
<path d="M79.0422 356.763C79.0796 356.756 77.926 354.37 77.8364 354.228C76.8054 352.588 73.9057 350.064 71.9056 350.667C70.4648 351.102 69.8593 352.789 70.3891 354.207C70.9312 355.656 72.5311 356.549 73.8683 356.941C75.4386 357.401 79.0396 356.763 79.0422 356.763Z" fill="#263238"/>
<path d="M200.088 126.366L192.303 133.635" stroke="#263238" stroke-miterlimit="10" stroke-linecap="round" stroke-linejoin="round"/>
<path d="M269.382 61.6667L224.086 103.96" stroke="#263238" stroke-miterlimit="10" stroke-linecap="round" stroke-linejoin="round"/>
<path d="M262.606 59.8677L218.561 76.9598" stroke="#263238" stroke-miterlimit="10" stroke-linecap="round" stroke-linejoin="round"/>
<path d="M222.27 52.8674L193.997 55.3696" stroke="#263238" stroke-miterlimit="10" stroke-linecap="round" stroke-linejoin="round"/>
<path d="M254.983 49.9717L225.423 52.5884" stroke="#263238" stroke-miterlimit="10" stroke-linecap="round" stroke-linejoin="round"/>
<path d="M242.448 31.3263L212.99 20.8445" stroke="#263238" stroke-miterlimit="10" stroke-linecap="round" stroke-linejoin="round"/>
<path d="M252.442 34.6785L246.546 32.7012" stroke="#263238" stroke-miterlimit="10" stroke-linecap="round" stroke-linejoin="round"/>
<path d="M370.864 126.366L378.649 133.635" stroke="#263238" stroke-miterlimit="10" stroke-linecap="round" stroke-linejoin="round"/>
<path d="M301.57 61.667L366.073 121.892" stroke="#263238" stroke-miterlimit="10" stroke-linecap="round" stroke-linejoin="round"/>
<path d="M308.346 59.8679L352.391 76.9601" stroke="#263238" stroke-miterlimit="10" stroke-linecap="round" stroke-linejoin="round"/>
<path d="M348.682 52.8677L376.955 55.3699" stroke="#263238" stroke-miterlimit="10" stroke-linecap="round" stroke-linejoin="round"/>
<path d="M315.969 49.9719L345.529 52.5887" stroke="#263238" stroke-miterlimit="10" stroke-linecap="round" stroke-linejoin="round"/>
<path d="M328.504 31.3265L351.01 23.7478" stroke="#263238" stroke-miterlimit="10" stroke-linecap="round" stroke-linejoin="round"/>
<path d="M318.51 34.6788L324.406 32.7014" stroke="#263238" stroke-miterlimit="10" stroke-linecap="round" stroke-linejoin="round"/>
<path d="M286.324 53.8757H281.664V74.9614H286.324V53.8757Z" fill="#92E3A9" stroke="#263238" stroke-miterlimit="10" stroke-linecap="round" stroke-linejoin="round"/>
<path d="M290.882 79.4798H277.106L278.727 71.3042H289.261L290.882 79.4798Z" fill="#92E3A9" stroke="#263238" stroke-miterlimit="10" stroke-linecap="round" stroke-linejoin="round"/>
<path d="M299.188 82.9224H268.8L272.042 75.3918H295.947L299.188 82.9224Z" fill="#92E3A9" stroke="#263238" stroke-miterlimit="10" stroke-linecap="round" stroke-linejoin="round"/>
<path d="M268.598 31.5554C262.668 31.5554 257.861 36.7575 257.861 43.1738C257.861 49.59 262.668 54.7931 268.598 54.7931C274.527 54.7931 279.334 49.591 279.334 43.1747C279.334 36.7585 274.527 31.5554 268.598 31.5554ZM268.598 51.84C264.174 51.84 260.589 47.9601 260.589 43.1738C260.589 38.3875 264.174 34.5085 268.598 34.5085C273.021 34.5085 276.606 38.3884 276.606 43.1738C276.606 47.9592 273.021 51.84 268.598 51.84Z" fill="#92E3A9" stroke="#263238" stroke-miterlimit="10" stroke-linecap="round" stroke-linejoin="round"/>
<path d="M301.011 31.5554C295.081 31.5554 290.274 36.7575 290.274 43.1738C290.274 49.59 295.081 54.7931 301.011 54.7931C306.941 54.7931 311.748 49.591 311.748 43.1747C311.748 36.7585 306.941 31.5554 301.011 31.5554ZM301.011 51.84C296.588 51.84 293.003 47.9601 293.003 43.1738C293.003 38.3875 296.588 34.5085 301.011 34.5085C305.434 34.5085 309.019 38.3884 309.019 43.1738C309.019 47.9592 305.434 51.84 301.011 51.84Z" fill="#92E3A9" stroke="#263238" stroke-miterlimit="10" stroke-linecap="round" stroke-linejoin="round"/>
<path d="M283.994 59.6848C276.498 59.6848 270.421 53.2307 270.421 45.2695V30.4236H297.568V45.2695C297.567 53.2316 291.491 59.6848 283.994 59.6848Z" fill="#92E3A9" stroke="#263238" stroke-miterlimit="10" stroke-linecap="round" stroke-linejoin="round"/>
<path d="M283.62 35.1638L285.367 40.8741H291.021L286.446 44.4038L288.193 50.1141L283.62 46.5845L279.046 50.1141L280.793 44.4038L276.219 40.8741H281.873L283.62 35.1638Z" fill="#263238"/>
<path d="M328.82 82.9973H239.735V169.264H328.82V82.9973Z" fill="#263238" stroke="#263238" stroke-miterlimit="10" stroke-linejoin="round"/>
<path d="M298.951 82.9973H239.735V169.264H298.951V82.9973Z" fill="white" stroke="#263238" stroke-miterlimit="10" stroke-linejoin="round"/>
<path d="M260.239 125.852H171.153V212.118H260.239V125.852Z" fill="#263238" stroke="#263238" stroke-miterlimit="10" stroke-linejoin="round"/>
<path d="M230.369 125.852H171.153V212.118H230.369V125.852Z" fill="white" stroke="#263238" stroke-miterlimit="10" stroke-linejoin="round"/>
<path d="M211.41 150.291V143.392H207.349C207.03 142.176 206.565 141.025 205.97 139.964L208.491 137.286L203.897 132.407L201.392 135.068C200.28 134.356 199.062 133.812 197.769 133.467V130.284H191.273V133.469C189.85 133.848 188.52 134.471 187.32 135.292L185.524 133.385L180.93 138.264L182.875 140.329C182.163 141.688 181.658 143.186 181.401 144.773H178.93V151.673H181.891C182.345 153.117 183.01 154.459 183.85 155.652L181.848 157.778L186.442 162.657L188.923 160.022C190.062 160.583 191.286 160.979 192.571 161.18V164.781H199.067V160.485C200.156 160.065 201.175 159.497 202.11 158.807L204.815 161.681L209.409 156.802L206.39 153.596C206.886 152.562 207.265 151.454 207.511 150.292H211.41V150.291ZM194.521 155.811C190.036 155.811 186.401 151.95 186.401 147.188C186.401 142.424 190.037 138.564 194.521 138.564C199.005 138.564 202.64 142.425 202.64 147.188C202.64 151.95 199.005 155.811 194.521 155.811Z" fill="#92E3A9"/>
<path d="M217.35 177.638V172.567H214.365C214.131 171.674 213.788 170.827 213.351 170.047L215.204 168.079L211.828 164.493L209.986 166.449C209.169 165.925 208.274 165.525 207.323 165.273V162.932H202.548V165.273C201.503 165.551 200.525 166.009 199.643 166.613L198.323 165.211L194.946 168.797L196.375 170.314C195.852 171.314 195.48 172.414 195.292 173.581H193.475V178.652H195.652C195.986 179.712 196.474 180.699 197.092 181.577L195.621 183.14L198.997 186.726L200.821 184.789C201.657 185.201 202.557 185.493 203.502 185.64V188.287H208.276V185.129C209.076 184.82 209.826 184.403 210.513 183.895L212.502 186.008L215.878 182.422L213.66 180.065C214.024 179.305 214.304 178.491 214.484 177.637L217.35 177.638ZM204.936 181.694C201.639 181.694 198.967 178.857 198.967 175.356C198.967 171.855 201.639 169.017 204.936 169.017C208.232 169.017 210.904 171.855 210.904 175.356C210.904 178.857 208.231 181.694 204.936 181.694Z" fill="#92E3A9"/>
<path d="M309.497 181.508H220.412V267.774H309.497V181.508Z" fill="#263238" stroke="#263238" stroke-miterlimit="10" stroke-linejoin="round"/>
<path d="M279.628 181.508H220.412V267.774H279.628V181.508Z" fill="white" stroke="#263238" stroke-miterlimit="10" stroke-linejoin="round"/>
<path d="M265.111 196.531L259.977 192.506C257.987 190.946 255.295 190.852 253.212 192.272L243.016 198.715C241.655 199.575 241.368 201.538 242.421 202.796C243.132 203.646 244.271 203.926 245.262 203.494L254.793 200.018L266.248 212.612L273.351 209.977V194.609L265.111 196.531Z" fill="#92E3A9"/>
<path d="M253.528 201.748L244.039 205.225C242.315 206.014 240.408 202.947 240.408 200.953C240.408 198.375 242.723 197.66 244.538 195.951L246.261 194.329C244.347 192.481 241.561 192.047 239.225 193.257C236.491 194.674 233.348 194.924 230.446 193.955L227.933 193.116V210.192L231.148 210.619L231.452 210.342C233.64 208.35 236.919 208.548 238.881 210.79L250.292 223.831C250.828 224.442 251.718 224.506 252.327 223.977C252.98 223.407 253.056 222.374 252.493 221.704L249.637 218.303L253.601 221.074C254.28 221.548 255.171 221.498 255.798 220.951C256.636 220.221 256.708 218.886 255.955 218.059L253.656 215.53L257.109 217.864C257.859 218.37 258.83 218.308 259.517 217.709C260.422 216.92 260.525 215.49 259.743 214.565L257.675 212.115L261.45 214.545C262.035 214.921 262.78 214.864 263.309 214.404C264.054 213.754 264.099 212.558 263.403 211.847L253.528 201.748Z" fill="#92E3A9"/>
<path d="M235.799 216.794L237.258 214.836C237.911 213.961 237.771 212.691 236.948 211.998C236.124 211.305 234.927 211.453 234.275 212.328L232.816 214.285C232.163 215.16 232.303 216.43 233.127 217.123C233.95 217.816 235.147 217.669 235.799 216.794Z" fill="#92E3A9"/>
<path d="M238.588 219.653L240.047 217.696C240.7 216.821 240.561 215.551 239.737 214.858C238.913 214.165 237.716 214.313 237.064 215.188L235.605 217.145C234.953 218.02 235.092 219.29 235.916 219.983C236.739 220.676 237.937 220.528 238.588 219.653Z" fill="#92E3A9"/>
<path d="M241.378 222.513L242.837 220.556C243.49 219.681 243.351 218.411 242.527 217.718C241.703 217.025 240.507 217.173 239.854 218.048L238.395 220.005C237.743 220.88 237.882 222.15 238.706 222.843C239.53 223.535 240.726 223.388 241.378 222.513Z" fill="#92E3A9"/>
<path d="M245.316 220.577C244.492 219.884 243.296 220.032 242.644 220.907L241.185 222.864C240.532 223.739 240.671 225.01 241.495 225.703C242.319 226.396 243.515 226.248 244.168 225.373L245.627 223.416C246.279 222.541 246.14 221.27 245.316 220.577Z" fill="#92E3A9"/>
<path d="M231.94 236.607H142.855V322.873H231.94V236.607Z" fill="#263238" stroke="#263238" stroke-miterlimit="10" stroke-linejoin="round"/>
<path d="M202.071 236.607H142.855V322.873H202.071V236.607Z" fill="white" stroke="#263238" stroke-miterlimit="10" stroke-linejoin="round"/>
<path d="M158.359 279.829H151.81V291.368H158.359V279.829Z" fill="#92E3A9"/>
<path d="M166.311 274.886H159.762V291.368H166.311V274.886Z" fill="#92E3A9"/>
<path d="M174.264 271.516H167.714V291.368H174.264V271.516Z" fill="#92E3A9"/>
<path d="M182.216 267.024H175.667V291.369H182.216V267.024Z" fill="#92E3A9"/>
<path d="M178.355 259.781L173.071 261.542L174.471 262.908L170.718 267.246L161.914 269.027L152.656 276.574C152.275 276.884 152.203 277.461 152.496 277.867C152.666 278.103 152.924 278.227 153.185 278.227C153.368 278.227 153.555 278.164 153.712 278.036L162.644 270.755L171.608 268.942L175.748 264.155L177.149 265.521L178.355 259.781Z" fill="#92E3A9"/>
<path d="M285.927 302.092H196.841V388.358H285.927V302.092Z" fill="#263238" stroke="#263238" stroke-miterlimit="10" stroke-linejoin="round"/>
<path d="M256.057 302.092H196.841V388.358H256.057V302.092Z" fill="white" stroke="#263238" stroke-miterlimit="10" stroke-linejoin="round"/>
<path d="M235.993 332.536L230.523 328.72V327.631C231.635 326.153 232.365 323.88 232.365 321.995C232.365 317 230.436 316.439 228.056 316.439C225.677 316.439 223.748 317.53 223.748 321.995C223.748 323.922 224.509 326.258 225.664 327.731V328.372L219.695 332.536C218.677 333.245 218.063 334.452 218.063 335.745V337.107L227.552 341.524L237.625 337.107V335.745C237.625 334.452 237.011 333.245 235.993 332.536Z" fill="#92E3A9"/>
<path d="M241.973 326.915C241.973 318.656 235.647 311.938 227.871 311.938C220.095 311.938 213.769 318.656 213.769 326.915C213.769 334.428 219.011 340.649 225.811 341.714V353.528C225.023 354.113 224.506 355.079 224.506 356.176V376.222C224.506 378.008 225.869 379.456 227.551 379.456C229.232 379.456 230.596 378.008 230.596 376.222V356.176C230.596 355.078 230.078 354.112 229.291 353.528V341.815C236.402 341.057 241.973 334.664 241.973 326.915ZM216.379 326.915C216.379 320.185 221.535 314.71 227.871 314.71C234.207 314.71 239.363 320.185 239.363 326.915C239.363 333.644 234.207 339.12 227.871 339.12C221.535 339.12 216.379 333.644 216.379 326.915Z" fill="#92E3A9"/>
<path d="M179.276 364.338H90.1904V450.604H179.276V364.338Z" fill="#263238" stroke="#263238" stroke-miterlimit="10" stroke-linejoin="round"/>
<path d="M149.406 364.338H90.1904V450.604H149.406V364.338Z" fill="white" stroke="#263238" stroke-miterlimit="10" stroke-linejoin="round"/>
<path d="M140.511 417.302C140.511 416.009 139.898 414.802 138.88 414.092L133.41 410.277V409.188C134.522 407.71 135.251 405.436 135.251 403.552C135.251 398.557 133.323 397.996 130.943 397.996C128.564 397.996 126.635 399.087 126.635 403.552C126.635 405.479 127.396 407.815 128.551 409.288V409.929L122.582 414.092C121.564 414.803 120.95 416.009 120.95 417.302V420.796C120.468 420.689 119.946 420.655 119.399 420.655C118.933 420.655 118.485 420.7 118.064 420.801V417.301C118.064 416.008 117.451 414.801 116.433 414.091L110.963 410.276V409.187C112.075 407.709 112.804 405.435 112.804 403.551C112.804 399.708 111.661 398.493 110.051 398.136L112.842 394.747H117.578L118.851 414.073L119.42 414.081L121.241 394.747H127.685L130.13 397.742L129.963 394.747H133.126V369.48H106.48V394.747H110.358L110.005 398.127C109.535 398.028 109.028 397.995 108.496 397.995C106.117 397.995 104.188 399.086 104.188 403.551C104.188 405.478 104.948 407.814 106.104 409.287V409.928L100.135 414.091C99.1168 414.802 98.5034 416.008 98.5034 417.301V423.169H115.532C115.253 423.947 115.091 424.937 115.091 426.211C115.091 428.138 115.852 430.474 117.007 431.947V432.589L111.038 436.752C110.02 437.462 109.406 438.669 109.406 439.962V445.83H128.967V439.962C128.967 438.669 128.354 437.462 127.336 436.752L121.866 432.937V431.848C122.978 430.37 123.707 428.096 123.707 426.212C123.707 424.923 123.577 423.935 123.345 423.17H140.511V417.302ZM107.05 394.14V370.086H132.554V394.14H129.358L129.461 395.997L127.946 394.14H120.724L119.186 410.471L118.11 394.14H112.583L110.765 396.347L110.996 394.14H107.05Z" fill="#92E3A9"/>
<path d="M116.792 389.583H122.637L122.639 388.647H116.794L116.792 389.583Z" fill="#92E3A9"/>
<path d="M117.189 391.243H122.232C122.48 390.967 122.635 390.597 122.636 390.186H116.791C116.79 390.597 116.943 390.967 117.189 391.243Z" fill="#92E3A9"/>
<path d="M118.967 393.255H120.445C121.244 393.255 121.893 392.568 121.895 391.719H117.525C117.523 392.568 118.169 393.255 118.967 393.255Z" fill="#92E3A9"/>
<path d="M115.933 383.927C116.796 385.028 117.269 386.425 117.266 387.86L117.265 388.147H122.17L122.171 387.858C122.175 386.42 122.653 385.025 123.518 383.928C124.259 382.989 124.669 381.797 124.672 380.571C124.675 379.101 124.12 377.74 123.111 376.738C122.102 375.734 120.778 375.241 119.396 375.341C116.993 375.517 115.024 377.57 114.817 380.118C114.703 381.51 115.1 382.863 115.933 383.927Z" fill="#92E3A9"/>
<path d="M125.438 380.602C125.438 380.877 125.648 381.101 125.908 381.101H128.385C128.644 381.101 128.854 380.878 128.854 380.602C128.854 380.327 128.645 380.103 128.385 380.103H125.908C125.649 380.103 125.438 380.327 125.438 380.602Z" fill="#92E3A9"/>
<path d="M113.829 380.602C113.829 380.327 113.619 380.103 113.359 380.103H110.851C110.592 380.103 110.381 380.326 110.381 380.602C110.381 380.877 110.591 381.101 110.851 381.101H113.359C113.619 381.101 113.829 380.877 113.829 380.602Z" fill="#92E3A9"/>
<path d="M119.632 374.429C119.89 374.429 120.101 374.207 120.102 373.931L120.108 371.293C120.109 371.017 119.899 370.794 119.639 370.793H119.638C119.38 370.793 119.17 371.014 119.169 371.291L119.163 373.929C119.163 374.204 119.371 374.428 119.632 374.429Z" fill="#92E3A9"/>
<path d="M124.117 376.334C124.237 376.334 124.357 376.285 124.449 376.188L126.163 374.372C126.346 374.178 126.346 373.863 126.163 373.667C125.981 373.472 125.683 373.472 125.5 373.667L123.786 375.483C123.602 375.677 123.602 375.992 123.785 376.188C123.877 376.285 123.997 376.334 124.117 376.334Z" fill="#92E3A9"/>
<path d="M114.812 384.991L113.073 386.832C112.89 387.027 112.89 387.342 113.072 387.537C113.164 387.634 113.285 387.683 113.405 387.683C113.525 387.683 113.645 387.634 113.736 387.537L115.475 385.696C115.658 385.502 115.658 385.187 115.475 384.991C115.293 384.796 114.995 384.796 114.812 384.991Z" fill="#92E3A9"/>
<path d="M114.757 376.135C114.848 376.232 114.969 376.281 115.089 376.281C115.209 376.281 115.329 376.232 115.421 376.135C115.604 375.941 115.604 375.626 115.421 375.43L113.765 373.667C113.581 373.472 113.285 373.472 113.101 373.667C112.918 373.861 112.918 374.176 113.1 374.372L114.757 376.135Z" fill="#92E3A9"/>
<path d="M124.485 385.078C124.302 384.883 124.004 384.883 123.821 385.078C123.638 385.272 123.638 385.588 123.821 385.783L125.47 387.538C125.561 387.635 125.682 387.684 125.802 387.684C125.922 387.684 126.042 387.635 126.134 387.538C126.317 387.344 126.317 387.027 126.135 386.833L124.485 385.078Z" fill="#92E3A9"/>
<path d="M155.07 169.961C155.07 169.961 157.911 173.43 157.485 174.637C157.059 175.844 157.059 178.258 157.059 178.258C157.059 178.258 160.752 180.37 160.752 181.427C160.752 182.483 159.899 184.293 159.899 184.293C159.899 184.293 160.752 190.327 160.183 191.836C159.615 193.345 153.507 194.401 153.507 194.401L151.234 201.793L138.166 197.569L140.297 190.177C140.297 190.177 137.03 181.427 136.462 178.56C135.894 175.694 140.013 170.112 145.127 168.754C150.24 167.396 155.07 169.961 155.07 169.961Z" fill="white" stroke="#263238" stroke-miterlimit="10" stroke-linejoin="round"/>
<path d="M150.666 183.689C150.666 183.689 152.938 183.84 152.655 182.633C152.37 181.427 151.519 180.823 151.945 180.22C152.371 179.616 155.07 177.806 154.217 176.599C153.365 175.392 150.808 174.486 151.945 173.129C153.081 171.772 159.616 168.754 159.616 168.754C159.616 168.754 152.939 165.435 151.945 165.435C150.951 165.435 155.923 163.775 154.217 162.417C152.513 161.06 141.575 161.06 137.171 167.245C132.768 173.43 133.337 177.051 135.041 182.181C136.745 187.31 140.013 193.344 141.717 193.797C143.422 194.25 149.104 194.551 149.388 192.44C149.672 190.327 150.666 183.689 150.666 183.689Z" fill="#263238" stroke="#263238" stroke-miterlimit="10" stroke-linejoin="round"/>
<path d="M152.51 185.049C152.51 185.049 148.489 179.774 148.253 181.783C148.016 183.793 149.435 191.076 152.036 189.318" fill="white"/>
<path d="M152.51 185.049C152.51 185.049 148.489 179.774 148.253 181.783C148.016 183.793 149.435 191.076 152.036 189.318" stroke="#263238" stroke-miterlimit="10" stroke-linejoin="round"/>
<path d="M130.211 200.435C130.211 200.435 133.336 201.491 140.865 203.151C148.393 204.81 154.785 206.47 154.785 206.47C154.785 206.47 152.797 200.134 150.666 198.926C148.535 197.719 137.171 195.306 135.751 195.456C134.331 195.607 130.211 200.435 130.211 200.435Z" fill="white" stroke="#263238" stroke-miterlimit="10" stroke-linejoin="round"/>
<path d="M178.366 242.526C178.366 242.526 191.292 230.155 192.002 229.401C192.712 228.647 191.15 222.763 191.15 221.857C191.15 220.951 194.133 219.444 194.133 219.444C194.133 219.444 194.559 217.03 195.98 217.03C197.4 217.03 199.815 218.992 199.815 218.992L200.099 220.651C200.099 220.651 202.088 225.328 202.088 226.082C202.088 226.837 201.52 228.798 200.099 230.307C198.678 231.816 195.412 234.983 195.412 234.983C195.412 234.983 184.048 251.276 181.491 253.54C178.934 255.804 175.525 258.216 174.246 255.502C172.967 252.785 178.366 242.526 178.366 242.526Z" fill="white" stroke="#263238" stroke-miterlimit="10" stroke-linejoin="round"/>
<path d="M194.133 219.444L194.559 220.651L193.422 221.556" stroke="#263238" stroke-miterlimit="10" stroke-linejoin="round"/>
<path d="M96.6876 224.875C96.6876 224.875 91.7156 230.306 92 232.569C92.2837 234.832 103.79 260.027 103.79 260.027C103.79 260.027 104.643 263.798 105.211 264.1C105.779 264.402 107.058 266.665 107.058 266.665C107.058 266.665 107.058 268.626 109.189 266.514C111.319 264.402 114.302 261.988 114.161 260.027C114.019 258.065 112.598 256.557 112.598 256.557C112.598 256.557 111.888 254.747 111.177 254.595C110.468 254.445 107.2 254.445 107.2 254.445L103.507 233.927L96.6876 224.875Z" fill="white" stroke="#263238" stroke-miterlimit="10" stroke-linejoin="round"/>
<path d="M108.336 258.065L110.182 259.121C110.182 259.121 107.91 262.742 108.761 263.496C109.614 264.25 112.171 258.82 112.455 258.065C112.738 257.311 112.028 256.556 112.028 256.556" fill="white"/>
<path d="M108.336 258.065L110.182 259.121C110.182 259.121 107.91 262.742 108.761 263.496C109.614 264.25 112.171 258.82 112.455 258.065C112.738 257.311 112.028 256.556 112.028 256.556" stroke="#263238" stroke-miterlimit="10" stroke-linejoin="round"/>
<path d="M109.472 259.423L105.779 262.893" stroke="#263238" stroke-miterlimit="10" stroke-linejoin="round"/>
<path d="M115.537 335.516L106.32 344C106.32 344 106.935 345.739 108.164 346.393C109.392 347.045 114.718 352.484 116.357 353.571C117.995 354.659 121.886 356.834 126.188 356.834C130.489 356.834 131.308 355.094 131.308 354.441C131.308 353.788 122.91 347.915 122.91 347.915L121.067 340.084L115.537 335.516Z" fill="white" stroke="#263238" stroke-miterlimit="10" stroke-linejoin="round"/>
<path d="M108.174 342.294L106.32 344.001C106.32 344.001 106.935 345.74 108.164 346.394C109.393 347.046 114.718 352.485 116.357 353.572C117.996 354.66 121.886 356.835 126.188 356.835C128.706 356.835 130.025 356.238 130.691 355.612C128.161 355.052 125.968 354.634 125.046 354.634C122.227 354.634 119.124 351.939 119.124 351.939L108.174 342.294Z" fill="white" stroke="#263238" stroke-miterlimit="10" stroke-linejoin="round"/>
<path d="M112.597 250.823C112.597 250.823 110.594 261.899 112.396 265.407C114.197 268.915 117.201 273.061 117.201 273.061L142.726 307.825L115.099 336.21L121.478 343.13C121.478 343.13 156.239 312.61 158.342 311.333C160.444 310.057 158.342 299.214 157.742 298.257C157.141 297.301 145.14 269.425 145.14 269.425L146.264 257.009L112.597 250.823Z" fill="#263238" stroke="#263238" stroke-miterlimit="10" stroke-linejoin="round"/>
<path d="M131.109 350.591C131.109 350.591 137.313 357.928 138.3 358.677C139.287 359.426 146.337 363.769 146.337 363.769C146.337 363.769 146.196 364.816 145.632 364.967C145.069 365.117 131.109 365.266 130.123 365.117C129.135 364.967 120.958 360.325 119.971 359.876C118.984 359.427 115.882 357.181 115.882 357.181L122.086 346.548L131.109 350.591Z" fill="white" stroke="#263238" stroke-miterlimit="10" stroke-linejoin="round"/>
<path d="M120.605 270.773L126.527 275.265L134.987 304.691L120.605 347.819L133.116 351.519L133.929 346.696L136.42 341.631C136.42 341.631 151.695 306.038 151.907 303.118C152.118 300.198 145.139 269.425 145.139 269.425L143.87 256.396L121.873 254.15" fill="#263238"/>
<path d="M120.605 270.773L126.527 275.265L134.987 304.691L120.605 347.819L133.116 351.519L133.929 346.696L136.42 341.631C136.42 341.631 151.695 306.038 151.907 303.118C152.118 300.198 145.139 269.425 145.139 269.425L143.87 256.396L121.873 254.15" stroke="#263238" stroke-miterlimit="10" stroke-linejoin="round"/>
<path d="M145.632 364.966C146.196 364.816 146.337 363.769 146.337 363.769C146.337 363.769 145.833 363.458 145.086 362.995C139.726 362.554 130.714 361.822 130.122 361.822C129.434 361.822 120.761 356.365 117.545 354.327L115.881 357.18C115.881 357.18 118.982 359.426 119.97 359.875C120.957 360.324 129.134 364.966 130.122 365.116C131.109 365.265 145.068 365.116 145.632 364.966Z" fill="white" stroke="#263238" stroke-miterlimit="10" stroke-linejoin="round"/>
<path d="M132.057 199.982C132.057 199.982 117.995 201.491 117.853 202.095C117.711 202.698 99.1025 224.121 99.1025 224.121L104.075 234.229L116.007 228.797L112.597 250.824C112.597 250.824 110.325 251.729 114.443 253.992C118.563 256.255 128.08 259.121 134.614 259.121C141.149 259.121 144.842 259.121 146.262 257.009C147.682 254.897 147.54 253.69 147.682 252.483C147.824 251.276 154.501 232.87 154.501 232.87C154.501 232.87 169.416 253.237 169.984 253.69C170.552 254.143 173.251 254.595 175.524 251.729C177.797 248.863 177.371 242.225 177.371 242.225C177.371 242.225 168.991 226.083 168.564 223.82C168.138 221.557 166.86 214.617 166.007 212.807C165.155 210.997 164.018 210.845 161.746 209.638C159.474 208.431 153.223 206.169 153.223 206.169L132.057 199.982Z" fill="white" stroke="#263238" stroke-miterlimit="10" stroke-linejoin="round"/>
<path d="M119.274 206.62L116.006 228.797L117.427 207.827" stroke="#263238" stroke-miterlimit="10" stroke-linejoin="round"/>
<path d="M115.58 228.194L111.887 218.539" stroke="#263238" stroke-miterlimit="10" stroke-linejoin="round"/>
<path d="M106.407 222.656L104.216 221.255" stroke="#263238" stroke-miterlimit="10" stroke-linejoin="round"/>
<path d="M116.006 228.797L108.265 223.845" stroke="#263238" stroke-miterlimit="10" stroke-linejoin="round"/>
<path d="M161.147 221.891L164.728 215.974" stroke="#263238" stroke-miterlimit="10" stroke-linejoin="round"/>
<path d="M154.501 232.871L160.021 223.751" stroke="#263238" stroke-miterlimit="10" stroke-linejoin="round"/>
<path d="M165.253 225.605L166.859 224.574" stroke="#263238" stroke-miterlimit="10" stroke-linejoin="round"/>
<path d="M155.353 231.966L163.315 226.85" stroke="#263238" stroke-miterlimit="10" stroke-linejoin="round"/>
<path d="M154.644 231.815L168.564 229.25" stroke="#263238" stroke-miterlimit="10" stroke-linejoin="round"/>
<path d="M114.443 251.427L128.364 247.807" stroke="#263238" stroke-miterlimit="10" stroke-linejoin="round"/>
<path d="M137.86 242.774C138.832 242.352 139.708 241.916 140.438 241.471" stroke="#263238" stroke-miterlimit="10" stroke-linejoin="round"/>
<path d="M120.268 247.807C120.268 247.807 129.136 246.052 135.717 243.627" stroke="#263238" stroke-miterlimit="10" stroke-linejoin="round"/>
<path d="M177.229 241.169C177.229 241.169 177.087 244.488 174.245 247.656C171.404 250.824 168.137 251.276 168.137 251.276C168.137 251.276 169.415 256.405 170.979 256.405C172.541 256.405 175.24 257.311 177.655 253.84C180.07 250.371 180.638 244.487 179.927 242.978C179.218 241.47 178.791 240.716 177.229 241.169Z" fill="white" stroke="#263238" stroke-miterlimit="10" stroke-linejoin="round"/>
<path d="M101.233 220.651C101.233 220.651 108.051 234.23 107.483 234.531C106.915 234.833 104.5 237.096 103.648 237.246C102.796 237.397 98.9607 233.324 97.54 229.854C96.1193 226.385 95.6938 225.027 96.1193 224.423C96.5456 223.819 100.381 220.651 101.233 220.651Z" fill="white" stroke="#263238" stroke-miterlimit="10" stroke-linejoin="round"/>
<path d="M411.883 148.844C412.648 144.239 413.75 132.812 407.206 127.207C398.896 120.09 392.999 132.901 385.761 122.936C378.524 112.972 376.379 91.3346 354.934 91.6192C333.489 91.9038 331.88 104.715 331.88 108.986C331.88 113.257 325.447 116.388 324.107 116.388C322.767 116.388 315.261 112.686 312.58 120.943C309.9 129.199 311.717 133.975 307.458 134.15C303.198 134.325 297.907 128.153 292.108 131.239C286.31 134.325 286.31 140.873 283.897 143.151C281.485 145.428 277.464 141.442 272.103 143.72C268.854 145.1 267.874 147.312 267.602 148.844H411.883Z" fill="white" stroke="black" stroke-miterlimit="10"/>
<path d="M177.189 59.5611C177.651 56.7762 178.318 49.8647 174.359 46.4745C169.333 42.1696 165.766 49.9182 161.389 43.8919C157.011 37.8656 155.714 24.7781 142.744 24.9499C129.773 25.1218 128.8 32.8704 128.8 35.4539C128.8 38.0365 124.909 39.9307 124.099 39.9307C123.288 39.9307 118.748 37.6919 117.126 42.6861C115.506 47.6794 116.604 50.5678 114.028 50.6741C111.452 50.7794 108.252 47.0474 104.745 48.9139C101.238 50.7803 101.238 54.7406 99.7786 56.1183C98.3196 57.496 95.8871 55.0853 92.6446 56.4629C90.6801 57.2973 90.0868 58.6353 89.9224 59.562L177.189 59.5611Z" fill="white" stroke="black" stroke-miterlimit="10"/>
<path d="M108.315 96.5212C108.592 94.8515 108.992 90.7074 106.618 88.6746C103.605 86.0939 101.466 90.7397 98.8414 87.126C96.2166 83.5122 95.4389 75.6656 87.6619 75.7691C79.885 75.8726 79.3021 80.5184 79.3021 82.0671C79.3021 83.6157 76.9688 84.7513 76.4833 84.7513C75.9978 84.7513 73.2756 83.4087 72.3029 86.4034C71.3312 89.3972 71.9897 91.1297 70.4455 91.1925C68.9004 91.2553 66.982 89.0183 64.8792 90.1373C62.7764 91.2562 62.7764 93.6309 61.9012 94.457C61.026 95.283 59.5679 93.8379 57.6243 94.663C56.4463 95.1638 56.0905 95.9659 55.9922 96.5212H108.315Z" fill="white" stroke="black" stroke-miterlimit="10"/>
<path d="M382.365 257.297C382.642 255.627 383.042 251.483 380.668 249.45C377.654 246.87 375.516 251.516 372.891 247.902C370.266 244.288 369.489 236.441 361.712 236.545C353.935 236.648 353.352 241.294 353.352 242.843C353.352 244.392 351.019 245.527 350.533 245.527C350.047 245.527 347.325 244.185 346.353 247.179C345.381 250.173 346.04 251.906 344.495 251.968C342.95 252.032 341.032 249.794 338.929 250.913C336.826 252.032 336.826 254.407 335.951 255.233C335.076 256.059 333.618 254.614 331.674 255.439C330.496 255.94 330.141 256.742 330.042 257.297H382.365Z" fill="white" stroke="black" stroke-miterlimit="10"/>
<path d="M357.884 102.205C358.126 100.747 358.475 97.129 356.403 95.354C353.771 93.1003 351.904 97.1567 349.612 94.0012C347.32 90.8458 346.641 83.9943 339.85 84.0849C333.06 84.1754 332.55 88.2318 332.55 89.5845C332.55 90.9373 330.513 91.9287 330.089 91.9287C329.665 91.9287 327.288 90.7571 326.439 93.3711C325.59 95.9851 326.166 97.4977 324.817 97.5531C323.468 97.6085 321.793 95.6543 319.956 96.6309C318.12 97.6076 318.12 99.682 317.356 100.403C316.592 101.124 315.318 99.8622 313.621 100.583C312.593 101.02 312.282 101.72 312.196 102.205H357.884Z" fill="white" stroke="black" stroke-miterlimit="10"/>
</svg>
