<svg width="374" height="424" viewBox="0 0 374 424" fill="none" xmlns="http://www.w3.org/2000/svg">
<path d="M308.882 87.913C296.464 74.1457 282.24 62.7019 267.118 54.6858C244.091 42.4797 218.728 36.5963 193.363 36.2469C119.233 35.225 113.59 133.953 90.7982 147.679C68.0059 161.407 26.6954 163.021 25.2704 217.929C24.3743 252.465 31.4856 287.977 51.4833 314.885C69.7989 339.53 96.7067 352.021 123.215 361.249C152.984 371.611 184.555 381.776 215.868 374.785C248.002 367.611 270.579 338.764 296.969 319.271C313.585 306.998 328.498 294.073 338.757 274.379C339.982 272.027 341.134 269.622 342.226 267.187C355.96 236.584 358.654 201.284 351.079 168.167C344.282 138.45 328.939 110.149 308.882 87.913Z" fill="#92E3A9"/>
<path opacity="0.7" d="M308.882 87.913C296.464 74.1457 282.24 62.7019 267.118 54.6858C244.091 42.4797 218.728 36.5963 193.363 36.2469C119.233 35.225 113.59 133.953 90.7982 147.679C68.0059 161.407 26.6954 163.021 25.2704 217.929C24.3743 252.465 31.4856 287.977 51.4833 314.885C69.7989 339.53 96.7067 352.021 123.215 361.249C152.984 371.611 184.555 381.776 215.868 374.785C248.002 367.611 270.579 338.764 296.969 319.271C313.585 306.998 328.498 294.073 338.757 274.379C339.982 272.027 341.134 269.622 342.226 267.187C355.96 236.584 358.654 201.284 351.079 168.167C344.282 138.45 328.939 110.149 308.882 87.913Z" fill="white"/>
<path d="M11.5066 392.797H358.154" stroke="#263238" stroke-miterlimit="10" stroke-linecap="round" stroke-linejoin="round"/>
<path d="M307.9 332.893C309.565 333.718 313.639 333.613 313.642 333.613C313.684 333.613 312.766 330.59 312.689 330.407C311.795 328.287 308.969 324.787 306.669 325.139C305.012 325.393 304.09 327.273 304.464 329.042C304.847 330.848 306.481 332.19 307.9 332.893Z" fill="#263238"/>
<path d="M309.306 346.271C311.034 346.556 314.669 345.361 314.959 345.264C315.533 347.571 316.287 349.886 317.164 352.181C317.664 353.494 318.204 354.798 318.759 356.099C318.428 355.548 318.127 355.058 318.08 354.995C316.723 353.217 313.182 350.689 311.045 351.717C309.506 352.458 309.056 354.547 309.828 356.141C310.617 357.769 312.507 358.574 314.039 358.827C315.593 359.084 318.711 358.135 319.533 357.872C319.751 358.368 319.963 358.867 320.183 359.362C321.236 361.738 322.295 364.105 323.272 366.462C323.617 367.293 323.929 368.125 324.245 368.956C323.95 368.467 323.698 368.058 323.654 368.001C322.297 366.224 318.756 363.694 316.619 364.722C315.081 365.463 314.63 367.552 315.402 369.146C316.192 370.774 318.081 371.579 319.613 371.832C321.096 372.077 323.981 371.231 324.959 370.923C325.259 371.785 325.561 372.648 325.818 373.5C325.981 374.086 326.174 374.637 326.31 375.235C326.455 375.824 326.598 376.408 326.741 376.985C326.978 378.11 327.23 379.268 327.438 380.371C327.587 381.137 327.718 381.87 327.851 382.609C327.516 381.778 326.831 380.166 326.761 380.039C325.658 378.049 322.496 374.941 320.246 375.591C318.626 376.059 317.902 378.046 318.453 379.755C319.015 381.499 320.775 382.619 322.256 383.132C323.885 383.697 327.494 383.181 327.944 383.113C328.16 384.335 328.361 385.526 328.534 386.654C328.89 388.944 329.164 391.01 329.379 392.798H330.893C330.636 390.943 330.307 388.775 329.885 386.367C329.671 385.125 329.418 383.803 329.148 382.448C329.42 382.325 330.959 381.619 332.322 380.756C333.51 382.215 336.554 383.922 336.949 384.139C336.534 385.293 336.121 386.412 335.717 387.46C334.951 389.458 334.222 391.243 333.565 392.799H335.198C335.755 391.384 336.358 389.804 336.984 388.068C337.409 386.897 337.842 385.636 338.277 384.337C338.714 384.441 342.286 385.263 343.951 384.838C345.46 384.451 347.289 383.483 347.965 381.791C348.627 380.134 348.035 378.091 346.449 377.487C344.249 376.649 340.891 379.482 339.66 381.373C339.588 381.485 338.919 382.794 338.509 383.628C338.684 383.097 338.859 382.583 339.033 382.032C339.384 380.947 339.706 379.853 340.057 378.676C340.208 378.102 340.362 377.521 340.516 376.935C340.68 376.358 340.789 375.724 340.929 375.113C341.229 373.688 341.471 372.229 341.686 370.752C342.524 371.098 345.519 372.28 347.07 372.156C348.614 372.033 350.552 371.389 351.446 369.833C352.321 368.309 352.009 366.188 350.523 365.318C348.46 364.112 344.761 366.336 343.292 367.993C343.2 368.096 342.265 369.42 341.763 370.158C341.886 369.269 342.013 368.382 342.112 367.479C342.398 364.871 342.615 362.22 342.842 359.576C342.912 358.766 342.989 357.96 343.063 357.153C343.36 357.28 346.893 358.771 348.631 358.633C350.175 358.51 352.112 357.867 353.006 356.31C353.881 354.786 353.569 352.665 352.083 351.796C350.02 350.59 346.322 352.814 344.853 354.471C344.743 354.595 343.399 356.503 343.077 357.006C343.243 355.229 343.423 353.46 343.662 351.723C343.99 349.327 344.428 346.996 344.999 344.774C345.138 344.833 348.819 346.409 350.598 346.266C352.142 346.143 354.079 345.501 354.973 343.944C355.848 342.42 355.536 340.298 354.05 339.43C351.987 338.224 348.29 340.447 346.821 342.104C346.705 342.235 345.26 344.287 345.021 344.681C345.055 344.548 345.079 344.408 345.114 344.276C345.751 341.913 346.63 339.714 347.542 337.701C348.07 336.53 348.632 335.444 349.2 334.401C349.859 334.774 352.887 336.441 354.501 336.514C356.048 336.585 358.035 336.186 359.075 334.75C360.093 333.345 359.988 331.197 358.595 330.148C356.661 328.692 352.77 330.443 351.15 331.906C351.062 331.986 350.245 332.908 349.659 333.589C349.921 333.123 350.184 332.636 350.444 332.195C351.415 330.538 352.394 329.088 353.271 327.812C353.774 327.091 354.242 326.45 354.685 325.856C355.5 325.84 358.784 325.726 360.22 324.962C361.621 324.217 363.224 322.824 363.562 321.007C363.895 319.227 362.928 317.377 361.266 317.174C358.958 316.892 356.216 320.477 355.373 322.624C355.301 322.81 354.455 325.859 354.497 325.858C354.497 325.858 354.537 325.858 354.547 325.858C354.11 326.42 353.648 327.029 353.154 327.704C352.251 328.962 351.241 330.392 350.235 332.032C349.225 333.668 348.17 335.478 347.209 337.498C346.243 339.521 345.319 341.706 344.624 344.095C344.616 344.123 344.611 344.151 344.603 344.179C344.615 343.408 344.585 341.251 344.566 341.087C344.3 338.757 342.577 334.432 340.294 333.953C338.65 333.609 337.258 335.069 337.127 336.882C336.993 338.734 338.177 340.586 339.332 341.756C340.634 343.074 344.248 344.351 344.536 344.452C343.892 346.735 343.394 349.137 343.009 351.6C342.787 353.008 342.603 354.433 342.434 355.866C342.425 355.199 342.413 354.603 342.404 354.52C342.137 352.19 340.414 347.865 338.132 347.387C336.487 347.043 335.095 348.503 334.964 350.316C334.83 352.167 336.014 354.02 337.169 355.189C338.341 356.375 341.403 357.534 342.217 357.828C342.157 358.378 342.092 358.927 342.034 359.477C341.756 362.118 341.488 364.754 341.156 367.332C341.039 368.24 340.895 369.129 340.754 370.02C340.745 369.428 340.734 368.929 340.725 368.853C340.459 366.523 338.736 362.198 336.454 361.719C334.81 361.375 333.417 362.835 333.286 364.648C333.152 366.5 334.337 368.353 335.491 369.521C336.609 370.653 339.427 371.751 340.393 372.107C340.223 373.013 340.056 373.922 339.855 374.792C339.706 375.383 339.6 375.963 339.421 376.548C339.255 377.13 339.092 377.707 338.929 378.277C338.581 379.364 338.227 380.487 337.863 381.538C337.615 382.271 337.367 382.964 337.119 383.662C337.245 382.76 337.458 380.988 337.461 380.837C337.493 379.276 337.004 376.739 336.031 374.955C336.037 374.724 336.025 374.495 335.993 374.266C335.738 372.47 334.25 371.136 332.634 371.625C330.392 372.302 328.969 376.765 328.863 379.112C328.857 379.25 328.937 380.76 329.001 381.713C328.888 381.16 328.784 380.621 328.661 380.053C328.427 378.929 328.163 377.814 327.882 376.614C327.729 376.04 327.574 375.46 327.418 374.874C327.274 374.29 327.056 373.693 326.876 373.095C326.432 371.721 325.924 370.351 325.385 368.985C326.253 368.749 329.325 367.861 330.558 366.788C331.787 365.719 333.089 363.972 333.078 362.115C333.066 360.296 331.774 358.722 330.111 358.927C327.804 359.211 325.801 363.378 325.382 365.68C325.356 365.823 325.219 367.512 325.16 368.442C324.83 367.624 324.505 366.805 324.147 365.99C323.116 363.635 322.007 361.289 320.911 358.941C320.574 358.222 320.247 357.502 319.917 356.782C320.226 356.702 323.898 355.737 325.28 354.534C326.508 353.466 327.81 351.718 327.799 349.861C327.788 348.042 326.495 346.468 324.832 346.673C322.525 346.957 320.523 351.125 320.104 353.426C320.072 353.6 319.878 356.031 319.856 356.652C319.13 355.066 318.418 353.478 317.773 351.88C316.88 349.676 316.112 347.459 315.507 345.248C315.652 345.211 319.488 344.223 320.903 342.991C322.131 341.924 323.434 340.175 323.422 338.318C323.411 336.499 322.118 334.925 320.455 335.13C318.148 335.414 316.145 339.582 315.726 341.883C315.693 342.064 315.486 344.68 315.479 345.157C315.443 345.026 315.393 344.893 315.359 344.762C314.74 342.392 314.404 340.008 314.185 337.759C314.055 336.452 313.996 335.195 313.963 333.97C314.693 333.869 318.031 333.366 319.412 332.418C320.736 331.509 322.2 329.934 322.369 328.086C322.534 326.277 321.401 324.552 319.73 324.548C317.409 324.543 315.015 328.435 314.375 330.671C314.34 330.792 314.108 332.073 313.95 333.007C313.942 332.454 313.925 331.883 313.927 331.353C313.93 329.364 314.042 327.542 314.152 325.929C314.221 325.012 314.299 324.185 314.38 323.413C315.052 322.889 317.736 320.741 318.562 319.206C319.368 317.707 320.027 315.545 319.425 313.817C318.836 312.125 317.13 311.185 315.644 312.056C313.582 313.265 313.04 317.969 313.381 320.288C313.411 320.488 314.189 323.56 314.224 323.533C314.224 323.533 314.257 323.508 314.265 323.502C314.174 324.244 314.084 325.041 314.002 325.913C313.861 327.526 313.714 329.35 313.674 331.348C313.628 333.345 313.627 335.515 313.809 337.8C313.989 340.091 314.28 342.492 314.863 344.92C314.87 344.947 314.88 344.975 314.886 345.002C314.521 344.352 313.447 342.572 313.351 342.446C311.995 340.67 308.454 338.14 306.316 339.168C304.777 339.909 304.327 341.997 305.099 343.592C305.885 345.213 307.774 346.017 309.306 346.271Z" fill="#263238"/>
<path d="M349.106 333.908C349.142 333.934 349.847 330.839 349.871 330.638C350.157 328.311 349.503 323.624 347.413 322.479C345.907 321.654 344.224 322.646 343.676 324.355C343.116 326.101 343.826 328.242 344.667 329.716C345.655 331.446 349.103 333.907 349.106 333.908Z" fill="#263238"/>
<path d="M277.518 252.662C278.708 253.252 281.619 253.177 281.621 253.177C281.651 253.176 280.996 251.017 280.941 250.886C280.302 249.371 278.282 246.87 276.638 247.122C275.454 247.303 274.796 248.646 275.063 249.91C275.336 251.201 276.504 252.16 277.518 252.662Z" fill="#263238"/>
<path d="M278.522 262.222C279.756 262.426 282.355 261.571 282.561 261.503C282.971 263.151 283.511 264.806 284.137 266.446C284.494 267.384 284.879 268.316 285.277 269.245C285.039 268.852 284.825 268.501 284.79 268.456C283.821 267.187 281.29 265.379 279.764 266.114C278.664 266.643 278.342 268.136 278.894 269.276C279.458 270.439 280.808 271.014 281.902 271.195C283.013 271.378 285.241 270.7 285.828 270.512C285.983 270.866 286.135 271.223 286.292 271.576C287.045 273.275 287.802 274.966 288.5 276.65C288.746 277.243 288.969 277.838 289.195 278.432C288.984 278.083 288.803 277.79 288.772 277.75C287.803 276.48 285.272 274.672 283.745 275.407C282.646 275.937 282.323 277.429 282.875 278.569C283.439 279.732 284.79 280.307 285.884 280.488C286.944 280.663 289.005 280.059 289.704 279.838C289.919 280.455 290.134 281.071 290.317 281.679C290.434 282.098 290.572 282.492 290.669 282.919C290.773 283.34 290.875 283.757 290.977 284.17C291.147 284.974 291.327 285.801 291.475 286.589C291.582 287.136 291.675 287.66 291.77 288.188C291.531 287.594 291.041 286.442 290.991 286.351C290.204 284.93 287.944 282.708 286.336 283.173C285.178 283.508 284.66 284.927 285.054 286.147C285.456 287.394 286.713 288.194 287.771 288.561C288.936 288.964 291.514 288.596 291.836 288.547C291.991 289.421 292.133 290.272 292.257 291.078C292.511 292.714 292.708 294.191 292.861 295.468H293.943C293.76 294.142 293.525 292.593 293.223 290.872C293.069 289.985 292.889 289.04 292.696 288.071C292.89 287.984 293.989 287.48 294.964 286.862C295.813 287.904 297.988 289.124 298.269 289.279C297.973 290.104 297.678 290.904 297.389 291.653C296.842 293.079 296.322 294.356 295.852 295.467H297.018C297.417 294.456 297.847 293.327 298.295 292.086C298.598 291.249 298.908 290.348 299.219 289.42C299.53 289.494 302.083 290.081 303.273 289.777C304.351 289.5 305.658 288.808 306.141 287.599C306.614 286.415 306.191 284.955 305.058 284.523C303.486 283.925 301.086 285.949 300.207 287.3C300.156 287.379 299.678 288.316 299.385 288.912C299.51 288.532 299.636 288.165 299.76 287.771C300.011 286.996 300.241 286.214 300.492 285.373C300.6 284.963 300.709 284.548 300.82 284.129C300.937 283.716 301.015 283.263 301.115 282.827C301.329 281.809 301.502 280.766 301.655 279.71C302.255 279.958 304.395 280.802 305.503 280.713C306.607 280.625 307.991 280.166 308.63 279.054C309.255 277.965 309.032 276.449 307.97 275.828C306.496 274.966 303.854 276.555 302.804 277.739C302.738 277.813 302.069 278.759 301.711 279.287C301.799 278.652 301.89 278.018 301.961 277.372C302.165 275.508 302.32 273.614 302.483 271.725C302.532 271.146 302.588 270.57 302.641 269.994C302.854 270.085 305.378 271.15 306.619 271.051C307.723 270.964 309.107 270.504 309.746 269.392C310.371 268.303 310.148 266.787 309.086 266.166C307.613 265.304 304.97 266.893 303.92 268.077C303.84 268.166 302.88 269.529 302.65 269.889C302.769 268.619 302.897 267.355 303.068 266.114C303.303 264.402 303.616 262.737 304.024 261.148C304.123 261.191 306.753 262.316 308.025 262.215C309.128 262.128 310.513 261.668 311.151 260.556C311.777 259.467 311.554 257.95 310.492 257.33C309.017 256.468 306.375 258.057 305.325 259.241C305.243 259.334 304.21 260.801 304.039 261.082C304.064 260.988 304.081 260.887 304.105 260.793C304.561 259.105 305.188 257.533 305.841 256.094C306.218 255.257 306.62 254.481 307.025 253.737C307.497 254.003 309.66 255.194 310.813 255.247C311.919 255.297 313.339 255.013 314.081 253.987C314.808 252.982 314.734 251.448 313.738 250.698C312.356 249.658 309.576 250.909 308.418 251.955C308.355 252.012 307.771 252.671 307.352 253.158C307.54 252.824 307.729 252.477 307.914 252.162C308.608 250.977 309.308 249.941 309.934 249.03C310.293 248.514 310.628 248.056 310.944 247.631C311.527 247.619 313.873 247.539 314.9 246.993C315.901 246.46 317.046 245.465 317.288 244.166C317.525 242.894 316.835 241.572 315.647 241.427C313.998 241.226 312.038 243.788 311.436 245.321C311.385 245.454 310.78 247.633 310.81 247.633C310.81 247.633 310.839 247.632 310.845 247.632C310.534 248.034 310.203 248.468 309.85 248.952C309.205 249.85 308.483 250.871 307.764 252.043C307.043 253.213 306.288 254.506 305.601 255.949C304.912 257.395 304.251 258.956 303.754 260.664C303.748 260.684 303.745 260.704 303.739 260.723C303.747 260.173 303.726 258.632 303.712 258.514C303.523 256.849 302.291 253.758 300.66 253.416C299.485 253.17 298.49 254.213 298.396 255.509C298.301 256.832 299.147 258.156 299.972 258.992C300.902 259.934 303.484 260.846 303.691 260.919C303.231 262.55 302.875 264.266 302.6 266.026C302.442 267.032 302.31 268.05 302.189 269.074C302.183 268.597 302.174 268.171 302.167 268.112C301.976 266.447 300.745 263.356 299.115 263.015C297.939 262.769 296.945 263.812 296.851 265.108C296.755 266.431 297.601 267.755 298.426 268.59C299.263 269.438 301.451 270.266 302.033 270.476C301.991 270.87 301.944 271.262 301.902 271.654C301.703 273.541 301.513 275.425 301.275 277.266C301.192 277.915 301.088 278.551 300.987 279.187C300.981 278.764 300.973 278.408 300.967 278.353C300.777 276.688 299.545 273.598 297.914 273.256C296.739 273.01 295.744 274.053 295.651 275.349C295.555 276.672 296.402 277.996 297.226 278.831C298.025 279.64 300.038 280.424 300.728 280.679C300.607 281.326 300.486 281.976 300.344 282.598C300.237 283.02 300.161 283.435 300.034 283.852C299.916 284.268 299.798 284.68 299.682 285.087C299.433 285.863 299.18 286.666 298.92 287.417C298.743 287.94 298.566 288.435 298.388 288.935C298.478 288.29 298.63 287.023 298.632 286.916C298.655 285.801 298.305 283.987 297.61 282.713C297.615 282.548 297.607 282.384 297.583 282.221C297.402 280.938 296.338 279.985 295.183 280.333C293.581 280.817 292.564 284.006 292.488 285.683C292.484 285.783 292.54 286.861 292.587 287.542C292.506 287.147 292.432 286.762 292.344 286.357C292.176 285.553 291.988 284.757 291.788 283.899C291.679 283.489 291.568 283.074 291.456 282.656C291.353 282.238 291.197 281.812 291.069 281.385C290.752 280.402 290.388 279.424 290.003 278.448C290.623 278.28 292.819 277.645 293.701 276.879C294.578 276.116 295.509 274.866 295.5 273.539C295.492 272.24 294.568 271.115 293.38 271.262C291.732 271.464 290.301 274.442 290.002 276.087C289.983 276.189 289.885 277.396 289.843 278.061C289.607 277.476 289.375 276.891 289.12 276.308C288.383 274.626 287.591 272.948 286.807 271.271C286.567 270.757 286.333 270.242 286.096 269.728C286.318 269.671 288.942 268.981 289.929 268.122C290.807 267.359 291.738 266.11 291.729 264.783C291.721 263.484 290.797 262.358 289.609 262.505C287.96 262.708 286.529 265.686 286.23 267.33C286.208 267.454 286.069 269.192 286.053 269.635C285.534 268.502 285.025 267.367 284.564 266.225C283.926 264.651 283.377 263.066 282.946 261.486C283.049 261.46 285.79 260.753 286.802 259.874C287.679 259.111 288.61 257.861 288.601 256.534C288.593 255.234 287.669 254.11 286.482 254.257C284.833 254.46 283.402 257.437 283.103 259.082C283.08 259.211 282.932 261.08 282.926 261.421C282.9 261.327 282.864 261.233 282.84 261.139C282.397 259.446 282.157 257.742 282 256.135C281.908 255.201 281.866 254.302 281.842 253.427C282.364 253.355 284.748 252.995 285.736 252.317C286.682 251.668 287.728 250.542 287.848 249.222C287.966 247.93 287.157 246.696 285.962 246.694C284.303 246.691 282.593 249.472 282.136 251.069C282.111 251.156 281.945 252.07 281.832 252.739C281.827 252.344 281.815 251.936 281.816 251.557C281.819 250.135 281.898 248.834 281.976 247.681C282.026 247.027 282.082 246.436 282.139 245.883C282.62 245.509 284.538 243.975 285.128 242.877C285.704 241.806 286.174 240.261 285.745 239.027C285.324 237.818 284.104 237.147 283.043 237.768C281.569 238.631 281.182 241.994 281.426 243.65C281.447 243.793 282.003 245.989 282.029 245.969C282.029 245.969 282.052 245.951 282.058 245.946C281.994 246.476 281.929 247.046 281.87 247.669C281.769 248.822 281.664 250.126 281.635 251.553C281.602 252.98 281.602 254.53 281.733 256.163C281.861 257.8 282.069 259.515 282.486 261.251C282.49 261.27 282.498 261.291 282.502 261.31C282.242 260.846 281.474 259.574 281.405 259.484C280.435 258.214 277.905 256.406 276.378 257.141C275.279 257.671 274.956 259.163 275.508 260.302C276.078 261.465 277.428 262.041 278.522 262.222Z" fill="#263238"/>
<path d="M306.963 253.388C306.988 253.407 307.492 251.195 307.51 251.051C307.714 249.388 307.246 246.039 305.753 245.221C304.678 244.632 303.475 245.341 303.083 246.562C302.683 247.809 303.19 249.34 303.791 250.392C304.497 251.629 306.961 253.387 306.963 253.388Z" fill="#263238"/>
<path d="M69.6799 332.893C68.0148 333.718 63.9405 333.613 63.9375 333.613C63.8948 333.613 64.8134 330.59 64.8904 330.407C65.7843 328.287 68.611 324.787 70.9111 325.139C72.5679 325.393 73.4894 327.273 73.1154 329.042C72.7325 330.848 71.0981 332.19 69.6799 332.893Z" fill="#263238"/>
<path d="M68.2736 346.271C66.5457 346.556 62.9105 345.361 62.621 345.264C62.0473 347.571 61.2933 349.886 60.4159 352.181C59.9162 353.494 59.3762 354.798 58.8204 356.099C59.1518 355.548 59.4525 355.058 59.5003 354.995C60.8565 353.217 64.3982 350.689 66.5345 351.717C68.0739 352.458 68.5242 354.547 67.7515 356.141C66.9624 357.769 65.0729 358.574 63.541 358.827C61.9867 359.084 58.869 358.135 58.047 357.872C57.8293 358.368 57.6169 358.867 57.397 359.362C56.3445 361.738 55.2846 364.105 54.3077 366.462C53.9629 367.293 53.651 368.125 53.3353 368.956C53.63 368.467 53.8821 368.058 53.9262 368.001C55.2824 366.224 58.8242 363.694 60.9604 364.722C62.4998 365.463 62.9501 367.552 62.1774 369.146C61.3883 370.774 59.4988 371.579 57.9669 371.832C56.4837 372.077 53.5994 371.231 52.621 370.923C52.321 371.785 52.0188 372.648 51.7623 373.5C51.5985 374.086 51.4055 374.637 51.2701 375.235C51.125 375.824 50.9814 376.408 50.8392 376.985C50.6014 378.11 50.3501 379.268 50.1421 380.371C49.9925 381.137 49.8624 381.87 49.7292 382.609C50.0636 381.778 50.7487 380.166 50.8191 380.039C51.9216 378.049 55.0841 374.941 57.3334 375.591C58.9536 376.059 59.6784 378.046 59.1278 379.755C58.5653 381.499 56.8053 382.619 55.325 383.132C53.6951 383.697 50.0868 383.181 49.6365 383.113C49.4203 384.335 49.2198 385.526 49.047 386.654C48.691 388.944 48.4165 391.01 48.2018 392.798H46.6878C46.9444 390.943 47.2735 388.775 47.6954 386.367C47.9101 385.125 48.1622 383.803 48.4322 382.448C48.1607 382.325 46.622 381.619 45.2584 380.756C44.0706 382.215 41.0262 383.922 40.632 384.139C41.0464 385.293 41.4593 386.412 41.864 387.46C42.6292 389.458 43.3585 391.243 44.0152 392.799H42.3839C41.8266 391.384 41.2237 389.804 40.5976 388.068C40.1728 386.897 39.7389 385.636 39.3043 384.337C38.8675 384.441 35.2958 385.263 33.6308 384.838C32.1213 384.451 30.2924 383.483 29.6162 381.791C28.9543 380.134 29.5467 378.091 31.1317 377.487C33.3316 376.649 36.6901 379.482 37.9205 381.373C37.9931 381.485 38.6618 382.794 39.071 383.628C38.8959 383.097 38.7209 382.583 38.5466 382.032C38.1958 380.947 37.8734 379.853 37.5226 378.676C37.3708 378.102 37.2182 377.521 37.0633 376.935C36.8988 376.358 36.7903 375.724 36.6497 375.113C36.3505 373.688 36.1081 372.229 35.8935 370.752C35.0542 371.098 32.06 372.28 30.5086 372.156C28.9647 372.033 27.0274 371.389 26.1336 369.833C25.2576 368.309 25.5703 366.188 27.0566 365.318C29.1196 364.112 32.8177 366.336 34.2868 367.993C34.3788 368.096 35.3145 369.42 35.8164 370.158C35.693 369.269 35.5666 368.382 35.4671 367.479C35.1814 364.871 34.9637 362.22 34.737 359.576C34.6675 358.766 34.5897 357.96 34.5149 357.153C34.2179 357.28 30.6851 358.771 28.9475 358.633C27.4037 358.51 25.4663 357.867 24.5725 356.31C23.6973 354.786 24.0092 352.665 25.4955 351.796C27.5577 350.59 31.2559 352.814 32.7249 354.471C32.8356 354.595 34.1805 356.503 34.5014 357.006C34.3354 355.229 34.1559 353.46 33.9165 351.723C33.5889 349.327 33.1505 346.996 32.5791 344.774C32.4407 344.833 28.7598 346.409 26.9803 346.266C25.4364 346.143 23.4991 345.501 22.6052 343.944C21.7301 342.42 22.042 340.298 23.5283 339.43C25.5913 338.224 29.2886 340.447 30.7577 342.104C30.8729 342.235 32.3188 344.287 32.5574 344.681C32.523 344.548 32.5005 344.408 32.4646 344.276C31.8273 341.913 30.9484 339.714 30.0366 337.701C29.5085 336.53 28.946 335.444 28.3783 334.401C27.7193 334.774 24.6914 336.441 23.0772 336.514C21.5304 336.585 19.5429 336.186 18.5032 334.75C17.4852 333.345 17.5906 331.197 18.9834 330.148C20.917 328.692 24.8081 330.443 26.4283 331.906C26.5165 331.986 27.3333 332.908 27.9198 333.589C27.6572 333.123 27.3939 332.636 27.1344 332.195C26.1635 330.538 25.1843 329.088 24.3077 327.812C23.8043 327.091 23.336 326.45 22.8932 325.856C22.0779 325.84 18.7942 325.726 17.358 324.962C15.957 324.217 14.3548 322.824 14.016 321.007C13.6838 319.227 14.6503 317.377 16.3123 317.174C18.6199 316.892 21.3621 320.477 22.2051 322.624C22.2776 322.81 23.1236 325.859 23.081 325.858C23.081 325.858 23.0413 325.858 23.0316 325.858C23.4684 326.42 23.9307 327.029 24.4244 327.704C25.3272 328.962 26.337 330.392 27.3431 332.032C28.3529 333.668 29.409 335.478 30.3695 337.498C31.3351 339.521 32.2597 341.706 32.9546 344.095C32.9628 344.123 32.9673 344.151 32.9755 344.179C32.9635 343.408 32.9935 341.251 33.0122 341.087C33.2784 338.757 35.0011 334.432 37.2832 333.953C38.9273 333.609 40.3201 335.069 40.451 336.882C40.5849 338.734 39.4008 340.586 38.2467 341.756C36.9444 343.074 33.3308 344.351 33.0428 344.452C33.6869 346.735 34.1843 349.137 34.5695 351.6C34.7909 353.008 34.9757 354.433 35.1447 355.866C35.1537 355.199 35.1657 354.603 35.1754 354.52C35.4424 352.19 37.1651 347.865 39.4472 347.387C41.0921 347.043 42.4841 348.503 42.615 350.316C42.7489 352.167 41.5648 354.02 40.4106 355.189C39.2393 356.375 36.177 357.534 35.3631 357.828C35.423 358.378 35.488 358.927 35.5456 359.477C35.8239 362.118 36.0917 364.754 36.4238 367.332C36.5405 368.24 36.6848 369.129 36.8262 370.02C36.8344 369.428 36.8457 368.929 36.8546 368.853C37.1209 366.523 38.8436 362.198 41.1257 361.719C42.7698 361.375 44.1626 362.835 44.2935 364.648C44.4274 366.5 43.2433 368.353 42.0884 369.521C40.9709 370.653 38.1532 371.751 37.1868 372.107C37.3565 373.013 37.5241 373.922 37.7246 374.792C37.8734 375.383 37.9796 375.963 38.1584 376.548C38.3245 377.13 38.4883 377.707 38.6506 378.277C38.9992 379.364 39.353 380.487 39.7172 381.538C39.9648 382.271 40.2132 382.964 40.4615 383.662C40.3358 382.76 40.1227 380.988 40.1197 380.837C40.0875 379.276 40.5767 376.739 41.5498 374.955C41.5439 374.724 41.5558 374.495 41.588 374.266C41.8423 372.47 43.3308 371.136 44.9465 371.625C47.189 372.302 48.6117 376.765 48.7179 379.112C48.7239 379.25 48.6439 380.76 48.5795 381.713C48.6925 381.16 48.7965 380.621 48.9191 380.053C49.154 378.929 49.418 377.814 49.6978 376.614C49.8504 376.04 50.006 375.46 50.1623 374.874C50.3059 374.29 50.5243 373.693 50.7039 373.095C51.1474 371.721 51.6561 370.351 52.1954 368.985C51.3277 368.749 48.2549 367.861 47.0215 366.788C45.7932 365.719 44.491 363.972 44.5022 362.115C44.5134 360.296 45.806 358.722 47.4688 358.927C49.7763 359.211 51.7787 363.378 52.1976 365.68C52.2238 365.823 52.3607 367.512 52.4198 368.442C52.7496 367.624 53.075 366.805 53.4326 365.99C54.4641 363.635 55.5726 361.289 56.6692 358.941C57.0058 358.222 57.3326 357.502 57.6632 356.782C57.3536 356.702 53.6809 355.737 52.3001 354.534C51.0719 353.466 49.7696 351.718 49.7808 349.861C49.792 348.042 51.0846 346.468 52.7474 346.673C55.055 346.957 57.0574 351.125 57.4762 353.426C57.5077 353.6 57.7014 356.031 57.7238 356.652C58.4501 355.066 59.1615 353.478 59.807 351.88C60.7001 349.676 61.4683 347.459 62.0727 345.248C61.9283 345.211 58.0919 344.223 56.6766 342.991C55.4484 341.924 54.1462 340.175 54.1581 338.318C54.1693 336.499 55.4619 334.925 57.1247 335.13C59.4323 335.414 61.4347 339.582 61.8535 341.883C61.8865 342.064 62.0937 344.68 62.1011 345.157C62.137 345.026 62.1864 344.893 62.2208 344.762C62.8394 342.392 63.176 340.008 63.3952 337.759C63.5246 336.452 63.5837 335.195 63.6173 333.97C62.8865 333.869 59.549 333.366 58.1674 332.418C56.8434 331.509 55.3796 329.934 55.2113 328.086C55.0467 326.277 56.1792 324.552 57.851 324.548C60.172 324.543 62.5656 328.435 63.2052 330.671C63.2396 330.792 63.4722 332.073 63.6308 333.007C63.6383 332.454 63.6555 331.883 63.6532 331.353C63.6502 329.364 63.5388 327.542 63.4296 325.929C63.3608 325.012 63.2822 324.185 63.2014 323.413C62.5297 322.889 59.8452 320.741 59.0194 319.206C58.2138 317.707 57.5548 315.545 58.1562 313.817C58.7456 312.125 60.4518 311.185 61.9373 312.056C63.9996 313.265 64.5419 317.969 64.2008 320.288C64.1708 320.488 63.3922 323.56 63.357 323.533C63.357 323.533 63.3241 323.508 63.3166 323.502C63.4071 324.244 63.4969 325.041 63.5792 325.913C63.7206 327.526 63.8672 329.35 63.9083 331.348C63.9547 333.345 63.9547 335.515 63.7729 337.8C63.5934 340.091 63.3017 342.492 62.719 344.92C62.7122 344.947 62.7025 344.975 62.6958 345.002C63.0608 344.352 64.1349 342.572 64.2314 342.446C65.5876 340.67 69.1286 338.14 71.2649 339.168C72.8043 339.909 73.2546 341.997 72.4819 343.592C71.6942 345.213 69.8048 346.017 68.2736 346.271Z" fill="#263238"/>
<path d="M28.4732 333.908C28.4373 333.934 27.7327 330.839 27.708 330.638C27.4223 328.311 28.0768 323.624 30.1659 322.479C31.6717 321.654 33.3547 322.646 33.9037 324.355C34.464 326.101 33.7534 328.242 32.9126 329.716C31.9245 331.446 28.4762 333.907 28.4732 333.908Z" fill="#263238"/>
<path d="M100.062 252.662C98.8715 253.252 95.9603 253.177 95.958 253.177C95.9281 253.176 96.5834 251.017 96.6387 250.886C97.2775 249.371 99.2971 246.87 100.941 247.122C102.125 247.303 102.784 248.646 102.516 249.91C102.243 251.201 101.076 252.16 100.062 252.662Z" fill="#263238"/>
<path d="M99.0569 262.222C97.8227 262.426 95.2241 261.571 95.0177 261.503C94.6078 263.151 94.0685 264.806 93.4424 266.446C93.0849 267.384 92.6996 268.316 92.3024 269.245C92.5396 268.852 92.7542 268.501 92.7886 268.456C93.7581 267.187 96.2885 265.379 97.8152 266.114C98.9155 266.643 99.2372 268.136 98.6851 269.276C98.1211 270.439 96.771 271.014 95.6767 271.195C94.5659 271.378 92.3384 270.7 91.7512 270.512C91.5956 270.866 91.4437 271.223 91.2867 271.576C90.5342 273.275 89.7772 274.966 89.0793 276.65C88.8332 277.243 88.6103 277.838 88.3844 278.432C88.5954 278.083 88.7756 277.79 88.807 277.75C89.7757 276.48 92.3069 274.672 93.8336 275.407C94.9332 275.937 95.2556 277.429 94.7035 278.569C94.1395 279.732 92.7894 280.307 91.6951 280.488C90.6352 280.663 88.5737 280.059 87.875 279.838C87.6611 280.455 87.4449 281.071 87.2617 281.679C87.145 282.098 87.0066 282.492 86.9101 282.919C86.8069 283.34 86.7037 283.757 86.6019 284.17C86.4321 284.974 86.2519 285.801 86.1038 286.589C85.9968 287.136 85.9033 287.66 85.8091 288.188C86.0477 287.594 86.5376 286.442 86.5885 286.351C87.3761 284.93 89.6358 282.708 91.2433 283.173C92.4012 283.508 92.9188 284.927 92.5253 286.147C92.1229 287.394 90.8655 288.194 89.8079 288.561C88.6432 288.964 86.0649 288.596 85.7432 288.547C85.5884 289.421 85.4455 290.272 85.3221 291.078C85.0678 292.714 84.8711 294.191 84.7177 295.468H83.6361C83.8194 294.142 84.0542 292.593 84.3564 290.872C84.5098 289.985 84.6901 289.04 84.883 288.071C84.6893 287.984 83.5897 287.48 82.6151 286.862C81.7661 287.904 79.5909 289.124 79.3097 289.279C79.6059 290.104 79.9006 290.904 80.1901 291.653C80.7369 293.079 81.2575 294.356 81.7272 295.467H80.5611C80.1624 294.456 79.7323 293.327 79.2843 292.086C78.9806 291.249 78.6709 290.348 78.3605 289.42C78.0486 289.494 75.4964 290.081 74.3063 289.777C73.2277 289.5 71.9209 288.808 71.4377 287.599C70.965 286.415 71.3884 284.955 72.5208 284.523C74.0931 283.925 76.4927 285.949 77.3716 287.3C77.424 287.379 77.9012 288.316 78.1937 288.912C78.0688 288.532 77.9431 288.165 77.8189 287.771C77.5683 286.996 77.338 286.214 77.0874 285.373C76.9789 284.963 76.8697 284.548 76.759 284.129C76.6416 283.716 76.5638 283.263 76.4635 282.827C76.2496 281.809 76.0768 280.766 75.9235 279.71C75.3243 279.958 73.1843 280.802 72.0758 280.713C70.9725 280.625 69.5879 280.166 68.9491 279.054C68.3238 277.965 68.5467 276.449 69.6089 275.828C71.0832 274.966 73.7251 276.555 74.7753 277.739C74.8411 277.813 75.5098 278.759 75.8681 279.287C75.7799 278.652 75.6894 278.018 75.6191 277.372C75.4148 275.508 75.2593 273.614 75.0969 271.725C75.0476 271.146 74.9922 270.57 74.9384 269.994C74.7259 270.085 72.2014 271.15 70.9605 271.051C69.8572 270.964 68.4727 270.504 67.8339 269.392C67.2085 268.303 67.4314 266.787 68.4936 266.166C69.9672 265.304 72.6098 266.893 73.66 268.077C73.7393 268.166 74.6998 269.529 74.9294 269.889C74.8105 268.619 74.6826 267.355 74.5113 266.114C74.2771 264.402 73.9637 262.737 73.5553 261.148C73.4566 261.191 70.8266 262.316 69.5543 262.215C68.451 262.128 67.0664 261.668 66.4276 260.556C65.8023 259.467 66.0252 257.95 67.0874 257.33C68.5617 256.468 71.2036 258.057 72.2538 259.241C72.3361 259.334 73.3691 260.801 73.5396 261.082C73.5149 260.988 73.4985 260.887 73.4738 260.793C73.0183 259.105 72.3899 257.533 71.7384 256.094C71.3614 255.257 70.9598 254.481 70.5536 253.737C70.0824 254.003 67.9191 255.194 66.7657 255.247C65.6602 255.297 64.2405 255.013 63.4977 253.987C62.7707 252.982 62.8455 251.448 63.841 250.698C65.2226 249.658 68.0029 250.909 69.1608 251.955C69.2237 252.012 69.8078 252.671 70.2267 253.158C70.039 252.824 69.8505 252.477 69.665 252.162C68.9708 250.977 68.2714 249.941 67.6454 249.03C67.2856 248.514 66.9512 248.056 66.6348 247.631C66.0521 247.619 63.7057 247.539 62.6794 246.993C61.6778 246.46 60.5334 245.465 60.291 244.166C60.0539 242.894 60.7443 241.572 61.9321 241.427C63.5807 241.226 65.5405 243.788 66.1426 245.321C66.1943 245.454 66.7986 247.633 66.7687 247.633C66.7687 247.633 66.7403 247.632 66.7336 247.632C67.0455 248.034 67.3761 248.468 67.7291 248.952C68.3739 249.85 69.0957 250.871 69.8153 252.043C70.5371 253.213 71.2911 254.506 71.9778 255.949C72.6674 257.395 73.3279 258.956 73.8253 260.664C73.8313 260.684 73.8343 260.704 73.8403 260.723C73.8321 260.173 73.853 258.632 73.8665 258.514C74.0565 256.849 75.2877 253.758 76.9191 253.416C78.0942 253.17 79.089 254.213 79.1825 255.509C79.2783 256.832 78.4323 258.156 77.6072 258.992C76.6767 259.934 74.0946 260.846 73.8882 260.919C74.3482 262.55 74.7035 264.266 74.9788 266.026C75.1373 267.032 75.269 268.05 75.3894 269.074C75.3954 268.597 75.4044 268.171 75.4111 268.112C75.6018 266.447 76.8331 263.356 78.4637 263.015C79.6388 262.769 80.6336 263.812 80.7271 265.108C80.8229 266.431 79.9769 267.755 79.1519 268.59C78.3148 269.438 76.1269 270.266 75.545 270.476C75.5876 270.87 75.634 271.262 75.6759 271.654C75.8749 273.541 76.0656 275.425 76.3035 277.266C76.3865 277.915 76.4905 278.551 76.5914 279.187C76.5974 278.764 76.6057 278.408 76.6116 278.353C76.8016 276.688 78.0328 273.598 79.6635 273.256C80.8386 273.01 81.8334 274.053 81.9269 275.349C82.0227 276.672 81.1767 277.996 80.3516 278.831C79.5528 279.64 77.5392 280.424 76.8495 280.679C76.9707 281.326 77.0911 281.976 77.234 282.598C77.3402 283.02 77.4165 283.435 77.5437 283.852C77.6618 284.268 77.7793 284.68 77.8952 285.087C78.1443 285.863 78.3971 286.666 78.6574 287.417C78.8347 287.94 79.012 288.435 79.1893 288.935C79.0995 288.29 78.9477 287.023 78.9454 286.916C78.9222 285.801 79.2723 283.987 79.9672 282.713C79.9627 282.548 79.9717 282.384 79.9941 282.221C80.1759 280.938 81.2395 279.985 82.3937 280.333C83.9959 280.817 85.0132 284.006 85.0887 285.683C85.0932 285.783 85.0364 286.861 84.99 287.542C85.0708 287.147 85.1448 286.762 85.2323 286.357C85.4006 285.553 85.5891 284.757 85.7889 283.899C85.8981 283.489 86.0088 283.074 86.1202 282.656C86.2235 282.238 86.379 281.812 86.5077 281.385C86.8248 280.402 87.1884 279.424 87.5736 278.448C86.9535 278.28 84.7581 277.645 83.8762 276.879C82.9988 276.116 82.0676 274.866 82.0765 273.539C82.0848 272.24 83.0085 271.115 84.1964 271.262C85.845 271.464 87.2759 274.442 87.5751 276.087C87.5938 276.189 87.6918 277.396 87.7337 278.061C87.9693 277.476 88.2019 276.891 88.457 276.308C89.1938 274.626 89.9859 272.948 90.7698 271.271C91.0099 270.757 91.244 270.242 91.4804 269.728C91.259 269.671 88.635 268.981 87.6476 268.122C86.7702 267.359 85.839 266.11 85.8479 264.783C85.8562 263.484 86.78 262.358 87.9678 262.505C89.6171 262.708 91.0473 265.686 91.3472 267.33C91.3697 267.454 91.5081 269.192 91.5245 269.635C92.0436 268.502 92.5515 267.367 93.013 266.225C93.6511 264.651 94.2001 263.066 94.6317 261.486C94.5285 261.46 91.7871 260.753 90.7758 259.874C89.8984 259.111 88.9679 257.861 88.9761 256.534C88.9843 255.234 89.9081 254.11 91.0959 254.257C92.7453 254.46 94.1754 257.437 94.4746 259.082C94.4986 259.211 94.6459 261.08 94.6519 261.421C94.6773 261.327 94.7132 261.233 94.7379 261.139C95.18 259.446 95.4209 257.742 95.5772 256.135C95.6692 255.201 95.7118 254.302 95.7358 253.427C95.2137 253.355 92.829 252.995 91.8417 252.317C90.8955 251.668 89.8498 250.542 89.7293 249.222C89.6119 247.93 90.4205 246.696 91.6158 246.694C93.2741 246.691 94.9848 249.472 95.4418 251.069C95.4665 251.156 95.6325 252.07 95.7462 252.739C95.7515 252.344 95.7634 251.936 95.7619 251.557C95.7597 250.135 95.6804 248.834 95.6019 247.681C95.5525 247.027 95.4964 246.436 95.4388 245.883C94.9586 245.509 93.0407 243.975 92.4506 242.877C91.8746 241.806 91.4041 240.261 91.8335 239.027C92.2546 237.818 93.4738 237.147 94.5352 237.768C96.0088 238.631 96.3963 241.994 96.1524 243.65C96.1315 243.793 95.5749 245.989 95.5495 245.969C95.5495 245.969 95.5256 245.951 95.5203 245.946C95.5854 246.476 95.649 247.046 95.7081 247.669C95.8091 248.822 95.9138 250.126 95.943 251.553C95.9759 252.98 95.9759 254.53 95.8457 256.163C95.7171 257.8 95.5091 259.515 95.0925 261.251C95.088 261.27 95.0805 261.291 95.076 261.31C95.3371 260.846 96.1045 259.574 96.1733 259.484C97.142 258.214 99.6725 256.406 101.199 257.141C102.299 257.671 102.621 259.163 102.069 260.302C101.501 261.465 100.151 262.041 99.0569 262.222Z" fill="#263238"/>
<path d="M70.6171 253.388C70.5916 253.407 70.0875 251.195 70.0703 251.051C69.8661 249.388 70.3336 246.039 71.8266 245.221C72.9022 244.632 74.105 245.341 74.497 246.562C74.8971 247.809 74.39 249.34 73.7886 250.392C73.0832 251.629 70.6186 253.387 70.6171 253.388Z" fill="#263238"/>
<path d="M211.356 63.2371H160.585L152.48 105.036H219.46L211.356 63.2371Z" fill="#F0F0F0" stroke="#263238" stroke-miterlimit="10" stroke-linecap="round" stroke-linejoin="round"/>
<path d="M227.551 104.268H144.39L131.115 166.644H240.826L227.551 104.268Z" fill="#E3E3E3" stroke="#263238" stroke-miterlimit="10" stroke-linecap="round" stroke-linejoin="round"/>
<path d="M211.296 104.385H160.645V111.957H211.296V104.385Z" fill="white" stroke="#263238" stroke-miterlimit="10" stroke-linecap="round" stroke-linejoin="round"/>
<path d="M212.662 111.254H159.279V118.985H212.662V111.254Z" fill="white" stroke="#263238" stroke-miterlimit="10" stroke-linecap="round" stroke-linejoin="round"/>
<path d="M214.027 118.521H157.914V126.41H214.027V118.521Z" fill="white" stroke="#263238" stroke-miterlimit="10" stroke-linecap="round" stroke-linejoin="round"/>
<path d="M215.392 125.988H156.549V134.034H215.392V125.988Z" fill="white" stroke="#263238" stroke-miterlimit="10" stroke-linecap="round" stroke-linejoin="round"/>
<path d="M216.757 133.653H155.183V141.857H216.757V133.653Z" fill="white" stroke="#263238" stroke-miterlimit="10" stroke-linecap="round" stroke-linejoin="round"/>
<path d="M218.123 141.518H153.818V149.879H218.123V141.518Z" fill="white" stroke="#263238" stroke-miterlimit="10" stroke-linecap="round" stroke-linejoin="round"/>
<path d="M219.488 149.779H152.453V158.298H219.488V149.779Z" fill="white" stroke="#263238" stroke-miterlimit="10" stroke-linecap="round" stroke-linejoin="round"/>
<path d="M220.853 157.842H151.087V166.519H220.853V157.842Z" fill="white" stroke="#263238" stroke-miterlimit="10" stroke-linecap="round" stroke-linejoin="round"/>
<path d="M197.807 63.343H174.133V68.3454H197.807V63.343Z" fill="white" stroke="#263238" stroke-miterlimit="10" stroke-linecap="round" stroke-linejoin="round"/>
<path d="M198.446 67.8806H173.495V72.9873H198.446V67.8806Z" fill="white" stroke="#263238" stroke-miterlimit="10" stroke-linecap="round" stroke-linejoin="round"/>
<path d="M199.084 72.6812H172.857V77.8913H199.084V72.6812Z" fill="white" stroke="#263238" stroke-miterlimit="10" stroke-linecap="round" stroke-linejoin="round"/>
<path d="M199.723 77.6133H172.219V82.9277H199.723V77.6133Z" fill="white" stroke="#263238" stroke-miterlimit="10" stroke-linecap="round" stroke-linejoin="round"/>
<path d="M200.361 82.6758H171.581V88.0945H200.361V82.6758Z" fill="white" stroke="#263238" stroke-miterlimit="10" stroke-linecap="round" stroke-linejoin="round"/>
<path d="M200.999 87.8706H170.943V93.3936H200.999V87.8706Z" fill="white" stroke="#263238" stroke-miterlimit="10" stroke-linecap="round" stroke-linejoin="round"/>
<path d="M201.636 93.3274H170.304V98.9547H201.636V93.3274Z" fill="white" stroke="#263238" stroke-miterlimit="10" stroke-linecap="round" stroke-linejoin="round"/>
<path d="M202.275 98.6528H169.666V104.384H202.275V98.6528Z" fill="white" stroke="#263238" stroke-miterlimit="10" stroke-linecap="round" stroke-linejoin="round"/>
<path d="M256.068 166.209H115.873L93.4932 259.846H278.447L256.068 166.209Z" fill="#C7C7C7" stroke="#263238" stroke-miterlimit="10" stroke-linecap="round" stroke-linejoin="round"/>
<path d="M308.309 256.908H63.6316L40 362.525H331.941L308.309 256.908Z" fill="#C7C7C7" stroke="#263238" stroke-miterlimit="10" stroke-linecap="round" stroke-linejoin="round"/>
<path d="M278.051 267.503H93.8896L94.5165 257.069H277.424L278.051 267.503Z" fill="white" stroke="#263238" stroke-miterlimit="10" stroke-linecap="round" stroke-linejoin="round"/>
<path d="M280.394 278.39H91.5461L92.2051 267.616H279.735L280.394 278.39Z" fill="white" stroke="#263238" stroke-miterlimit="10" stroke-linecap="round" stroke-linejoin="round"/>
<path d="M282.772 289.433H89.1697L89.8616 278.311H282.079L282.772 289.433Z" fill="white" stroke="#263238" stroke-miterlimit="10" stroke-linecap="round" stroke-linejoin="round"/>
<path d="M285.182 300.635H86.7581L87.4851 289.156H284.455L285.182 300.635Z" fill="white" stroke="#263238" stroke-miterlimit="10" stroke-linecap="round" stroke-linejoin="round"/>
<path d="M287.629 311.999H84.3123L85.0752 300.154H286.865L287.629 311.999Z" fill="white" stroke="#263238" stroke-miterlimit="10" stroke-linecap="round" stroke-linejoin="round"/>
<path d="M290.163 324.335H81.7771L82.5782 312.102H289.362L290.163 324.335Z" fill="white" stroke="#263238" stroke-miterlimit="10" stroke-linecap="round" stroke-linejoin="round"/>
<path d="M292.738 336.864H79.2026L80.0441 324.233H291.896L292.738 336.864Z" fill="white" stroke="#263238" stroke-miterlimit="10" stroke-linecap="round" stroke-linejoin="round"/>
<path d="M295.354 349.593H76.5869L77.4703 336.552H294.471L295.354 349.593Z" fill="white" stroke="#263238" stroke-miterlimit="10" stroke-linecap="round" stroke-linejoin="round"/>
<path d="M298.011 362.525H73.9299L74.856 349.063H297.085L298.011 362.525Z" fill="white" stroke="#263238" stroke-miterlimit="10" stroke-linecap="round" stroke-linejoin="round"/>
<path d="M234.564 166.177H137.377V177.257H234.564V166.177Z" fill="white" stroke="#263238" stroke-miterlimit="10" stroke-linecap="round" stroke-linejoin="round"/>
<path d="M237.184 176.228H134.757V187.539H237.184V176.228Z" fill="white" stroke="#263238" stroke-miterlimit="10" stroke-linecap="round" stroke-linejoin="round"/>
<path d="M239.803 186.861H132.137V198.403H239.803V186.861Z" fill="white" stroke="#263238" stroke-miterlimit="10" stroke-linecap="round" stroke-linejoin="round"/>
<path d="M242.423 197.786H129.518V209.559H242.423V197.786Z" fill="white" stroke="#263238" stroke-miterlimit="10" stroke-linecap="round" stroke-linejoin="round"/>
<path d="M245.042 209.001H126.898V221.005H245.042V209.001Z" fill="white" stroke="#263238" stroke-miterlimit="10" stroke-linecap="round" stroke-linejoin="round"/>
<path d="M247.663 220.507H124.279V232.741H247.663V220.507Z" fill="white" stroke="#263238" stroke-miterlimit="10" stroke-linecap="round" stroke-linejoin="round"/>
<path d="M250.281 232.596H121.658V245.06H250.281V232.596Z" fill="white" stroke="#263238" stroke-miterlimit="10" stroke-linecap="round" stroke-linejoin="round"/>
<path d="M252.902 244.393H119.039V257.088H252.902V244.393Z" fill="white" stroke="#263238" stroke-miterlimit="10" stroke-linecap="round" stroke-linejoin="round"/>
<path d="M116.514 135.091L109.821 141.761" stroke="#263238" stroke-miterlimit="10" stroke-linecap="round" stroke-linejoin="round"/>
<path d="M176.091 75.7129L120.634 130.985" stroke="#263238" stroke-miterlimit="10" stroke-linecap="round" stroke-linejoin="round"/>
<path d="M170.265 74.0618L132.396 89.7481" stroke="#263238" stroke-miterlimit="10" stroke-linecap="round" stroke-linejoin="round"/>
<path d="M135.585 67.6365L111.277 69.9337" stroke="#263238" stroke-miterlimit="10" stroke-linecap="round" stroke-linejoin="round"/>
<path d="M163.711 64.9797L138.296 67.3813" stroke="#263238" stroke-miterlimit="10" stroke-linecap="round" stroke-linejoin="round"/>
<path d="M98.6409 28.4309L92.342 26.176" stroke="#263238" stroke-miterlimit="10" stroke-linecap="round" stroke-linejoin="round"/>
<path d="M152.933 47.8679L100.453 29.0796" stroke="#263238" stroke-miterlimit="10" stroke-linecap="round" stroke-linejoin="round"/>
<path d="M161.526 50.9444L156.457 49.1296" stroke="#263238" stroke-miterlimit="10" stroke-linecap="round" stroke-linejoin="round"/>
<path d="M263.342 135.091L270.035 141.761" stroke="#263238" stroke-miterlimit="10" stroke-linecap="round" stroke-linejoin="round"/>
<path d="M203.765 75.7129L259.222 130.985" stroke="#263238" stroke-miterlimit="10" stroke-linecap="round" stroke-linejoin="round"/>
<path d="M209.591 74.0618L247.459 89.7481" stroke="#263238" stroke-miterlimit="10" stroke-linecap="round" stroke-linejoin="round"/>
<path d="M244.271 67.6365L268.579 69.9337" stroke="#263238" stroke-miterlimit="10" stroke-linecap="round" stroke-linejoin="round"/>
<path d="M216.145 64.9797L241.56 67.3813" stroke="#263238" stroke-miterlimit="10" stroke-linecap="round" stroke-linejoin="round"/>
<path d="M281.214 28.4309L287.513 26.176" stroke="#263238" stroke-miterlimit="10" stroke-linecap="round" stroke-linejoin="round"/>
<path d="M226.922 47.8679L279.403 29.0796" stroke="#263238" stroke-miterlimit="10" stroke-linecap="round" stroke-linejoin="round"/>
<path d="M218.33 50.9444L223.399 49.1296" stroke="#263238" stroke-miterlimit="10" stroke-linecap="round" stroke-linejoin="round"/>
<path d="M178.725 162.585C178.725 162.585 175.728 161.586 175.905 164.584C176.081 167.581 179.254 169.579 179.254 169.579L178.725 162.585Z" fill="white" stroke="#263238" stroke-miterlimit="10" stroke-linecap="round" stroke-linejoin="round"/>
<path d="M197.057 162.585C197.057 162.585 199.525 161.186 199.525 163.784C199.525 166.383 196.88 168.98 196.88 168.98L197.057 162.585Z" fill="white" stroke="#263238" stroke-miterlimit="10" stroke-linecap="round" stroke-linejoin="round"/>
<path d="M178.373 154.392C178.373 154.392 178.549 168.58 179.254 171.178C179.959 173.775 182.074 177.173 184.013 177.173C185.952 177.173 192.474 176.574 193.708 175.775C194.942 174.975 196.881 172.178 196.881 168.981C196.881 165.784 197.234 157.79 197.234 157.79C197.234 157.79 198.291 156.99 198.997 155.192C199.702 153.394 197.234 150.796 196.705 150.596C196.177 150.396 194.238 149.796 194.238 149.796C194.238 149.796 195.472 148.597 195.119 147.598C194.767 146.6 191.417 146 190.007 146C188.597 146 186.834 147.199 186.834 147.199C186.834 147.199 181.193 146.999 179.431 149.397C177.668 151.794 178.373 154.392 178.373 154.392Z" fill="#263238" stroke="#263238" stroke-miterlimit="10" stroke-linecap="round" stroke-linejoin="round"/>
<path d="M198.115 179.971L175.552 180.37C175.552 180.37 176.61 176.574 177.844 176.174C179.078 175.774 191.769 175.374 194.414 175.774C197.057 176.174 198.115 179.971 198.115 179.971Z" fill="#92E3A9" stroke="#263238" stroke-miterlimit="10" stroke-linecap="round" stroke-linejoin="round"/>
<path d="M190.255 348.747C190.255 348.747 189.301 360.362 190.115 360.731C190.928 361.1 193.369 362.39 199.225 360.731C200.779 360.29 197.923 348.375 197.923 348.375C197.923 348.375 194.136 350.964 190.255 348.747Z" fill="#263238" stroke="#263238" stroke-miterlimit="10" stroke-linecap="round" stroke-linejoin="round"/>
<path d="M163.108 258.787L166.091 309.347C166.091 309.347 164.301 318.647 165.942 326.933C167.583 335.218 170.268 364.302 170.268 364.302C170.268 364.302 171.611 361.428 176.085 360.92C180.56 360.413 181.455 362.443 181.455 362.443C181.455 362.443 181.157 340.46 181.157 337.924C181.157 335.387 182.947 319.323 182.797 314.42C182.648 309.516 181.604 303.936 181.604 303.936L182.648 273.33L185.034 272.991C185.034 272.991 183.394 298.186 184.437 303.936C185.482 309.685 188.017 327.609 188.166 329.131C188.315 330.653 190.255 348.746 190.255 348.746C190.255 348.746 194.133 349.93 195.922 349.761C197.712 349.592 198.905 348.07 198.905 348.07C198.905 348.07 202.187 320.846 201.888 316.618C201.59 312.391 198.159 302.246 198.159 301.399C198.159 300.554 197.265 294.804 197.265 294.804C197.265 294.804 203.529 275.021 204.574 267.919C205.618 260.817 205.767 257.604 205.767 257.604C205.767 257.604 188.017 260.817 179.217 260.817C170.417 260.817 163.108 258.787 163.108 258.787Z" fill="#92E3A9" stroke="#263238" stroke-miterlimit="10" stroke-linecap="round" stroke-linejoin="round"/>
<path d="M171.139 309.087C173.182 307.178 175.875 304.859 178.619 303.065" stroke="#263238" stroke-miterlimit="10" stroke-linecap="round" stroke-linejoin="round"/>
<path d="M167.544 312.666C167.544 312.666 168.327 311.814 169.607 310.555" stroke="#263238" stroke-miterlimit="10" stroke-linecap="round" stroke-linejoin="round"/>
<path d="M170.801 305.773L180.139 298.633" stroke="#263238" stroke-miterlimit="10" stroke-linecap="round" stroke-linejoin="round"/>
<path d="M205.767 257.604C205.767 257.604 188.017 260.818 179.217 260.818C170.417 260.818 163.108 258.788 163.108 258.788L163.285 261.797C165.868 264.003 170.465 268.043 174.235 271.961C178.674 276.574 181.487 278.511 182.45 279.11L182.647 273.33L185.034 272.991C185.034 272.991 183.394 298.186 184.437 303.936C184.918 306.585 185.716 311.817 186.451 316.839C187.545 312.915 189.648 308.219 193.511 307.766C196.263 307.443 198.627 308.44 200.461 309.732C199.406 305.797 198.159 301.909 198.159 301.399C198.159 300.554 197.264 294.805 197.264 294.805C197.264 294.805 203.529 275.021 204.573 267.919C205.617 260.817 205.767 257.604 205.767 257.604Z" fill="#263238" stroke="#263238" stroke-miterlimit="10" stroke-linecap="round" stroke-linejoin="round"/>
<path d="M157.908 248.868C157.908 248.868 159.009 251.226 159.743 251.503C160.477 251.78 161.089 254.276 161.089 256.772C161.089 259.268 160.355 259.545 160.355 259.545C160.355 259.545 161.456 261.071 160.967 262.873C160.477 264.676 157.298 265.923 155.952 266.478C154.606 267.032 152.528 264.537 151.671 263.288C150.815 262.04 151.427 252.057 151.427 252.057C151.427 252.057 157.419 250.255 157.908 248.868Z" fill="white" stroke="#263238" stroke-miterlimit="10" stroke-linecap="round" stroke-linejoin="round"/>
<path d="M160.354 259.545C160.354 259.545 157.908 260.655 157.541 260.932C157.173 261.209 155.829 259.406 156.318 258.852C156.807 258.297 158.642 256.911 158.642 256.911" stroke="#263238" stroke-miterlimit="10" stroke-linecap="round" stroke-linejoin="round"/>
<path d="M155.339 254.553C155.339 254.553 157.908 255.246 157.052 257.881" stroke="#263238" stroke-miterlimit="10" stroke-linecap="round" stroke-linejoin="round"/>
<path d="M156.807 260.516C156.807 260.516 154.238 261.625 154.238 262.734C154.238 263.843 155.461 265.23 156.195 265.091C156.929 264.952 156.073 263.843 156.073 263.843" stroke="#263238" stroke-miterlimit="10" stroke-linecap="round" stroke-linejoin="round"/>
<path d="M217.961 254.553C217.961 254.553 215.882 257.326 215.271 258.852C214.659 260.377 213.436 261.764 213.68 262.734C213.925 263.705 214.048 264.398 214.048 264.398C214.048 264.398 212.947 267.31 214.048 268.142C215.149 268.973 216.004 269.113 216.494 269.113C216.983 269.113 218.94 270.915 220.285 270.638C221.631 270.361 223.588 269.667 223.71 264.953C223.832 260.238 224.321 254.831 224.321 254.831C224.321 254.831 219.918 254.553 217.961 254.553Z" stroke="#263238" stroke-miterlimit="10" stroke-linecap="round" stroke-linejoin="round"/>
<path d="M214.048 264.398C214.048 264.398 217.35 266.756 218.328 266.756C219.307 266.756 220.041 265.092 219.307 264.26C218.573 263.428 216.494 261.903 216.494 261.903" stroke="#263238" stroke-miterlimit="10" stroke-linecap="round" stroke-linejoin="round"/>
<path d="M220.53 258.991C220.53 258.991 218.573 261.486 219.307 264.26" stroke="#263238" stroke-miterlimit="10" stroke-linecap="round" stroke-linejoin="round"/>
<path d="M219.673 265.091C219.673 265.091 221.997 265.784 222.119 266.617C222.242 267.449 221.997 268.835 221.507 268.835C221.018 268.835 220.774 267.864 220.774 267.864" stroke="#263238" stroke-miterlimit="10" stroke-linecap="round" stroke-linejoin="round"/>
<path d="M226.145 253.513C226.145 253.513 225.26 255.906 223.149 257.106C221.031 258.307 217.332 255.108 217.332 255.108L213.451 229.328L204.993 214.945L204.283 235.923C204.283 235.923 207.634 259.105 207.104 259.508C206.575 259.903 198.82 263.9 185.778 265.503C172.736 267.098 161.275 260.108 161.275 260.108L166.737 236.12L164.271 218.341L158.189 229.146L158.983 247.716C158.983 247.716 157.575 251.91 155.109 252.51C152.636 253.111 150.344 252.51 150.344 252.51C150.344 252.51 150.344 252.487 150.337 252.448C150.316 252.329 150.282 252.061 150.226 251.658C150.198 251.477 150.17 251.271 150.135 251.034C150.086 250.663 150.024 250.236 149.954 249.754C149.899 249.391 149.849 249.004 149.787 248.586C149.731 248.175 149.669 247.74 149.606 247.282V247.275C148.652 240.561 147.119 229.693 147.001 228.729V228.69C147.001 226.81 158.462 193.352 159.158 192.563C159.869 191.765 159.869 189.166 162.335 187.365C164.801 185.564 178.025 179.372 178.025 179.372C183.132 177.571 197.233 179.972 197.233 179.972C197.233 179.972 202.702 183.566 203.405 183.969C204.109 184.372 211.69 189.561 213.452 190.761C215.215 191.962 215.388 194.158 216.092 196.757C216.803 199.355 221.909 218.541 223.498 221.937C225.085 225.331 226.145 253.513 226.145 253.513Z" fill="#92E3A9" stroke="#263238" stroke-miterlimit="10" stroke-linecap="round" stroke-linejoin="round"/>
<path d="M158.188 229.145L158.982 247.715C158.982 247.715 157.574 251.909 155.108 252.509C152.635 253.11 150.343 252.509 150.343 252.509C150.343 252.509 150.343 252.486 150.336 252.447C150.315 252.328 150.281 252.06 150.225 251.657C150.197 251.476 150.169 251.262 150.134 251.033C150.086 250.662 150.023 250.235 149.953 249.753C149.904 249.39 149.848 249.003 149.786 248.585C149.73 248.174 149.668 247.739 149.605 247.281V247.274C148.651 240.56 147.118 229.692 147 228.728V228.689C148.017 229.337 149.912 230.395 151.118 230.15C152.045 229.96 153.152 228.57 153.974 227.346C154.134 226.785 154.267 226.366 154.344 226.121C155.229 223.436 160.398 207.149 160.398 207.149L164.272 218.341L158.188 229.145Z" fill="#263238" stroke="#263238" stroke-miterlimit="10" stroke-linecap="round" stroke-linejoin="round"/>
<path d="M161.098 199.754L164.271 218.339" stroke="#263238" stroke-miterlimit="10" stroke-linecap="round" stroke-linejoin="round"/>
<path d="M207.516 202.048L204.99 214.941L210.277 202.152" stroke="#263238" stroke-miterlimit="10" stroke-linecap="round" stroke-linejoin="round"/>
<path d="M208.515 196.956L208.112 199.012" stroke="#263238" stroke-miterlimit="10" stroke-linecap="round" stroke-linejoin="round"/>
<path d="M184.542 203.951C184.542 203.951 194.766 225.133 196.705 226.532" stroke="#263238" stroke-miterlimit="10" stroke-linecap="round" stroke-linejoin="round"/>
<path d="M195.49 228.332L196.881 229.729" stroke="#263238" stroke-miterlimit="10" stroke-linecap="round" stroke-linejoin="round"/>
<path d="M187.539 220.337L194.049 226.883" stroke="#263238" stroke-miterlimit="10" stroke-linecap="round" stroke-linejoin="round"/>
<path d="M226.141 253.509C226.141 253.509 225.856 245.928 225.361 238.157C222.306 236.971 218.796 235.303 217.504 233.525C215.037 230.128 206.046 216.34 206.046 216.34L206.065 216.771L213.449 229.329L217.327 255.107C217.327 255.107 221.029 258.305 223.144 257.106C225.26 255.908 226.141 253.509 226.141 253.509Z" fill="#263238" stroke="#263238" stroke-miterlimit="10" stroke-linecap="round" stroke-linejoin="round"/>
<path d="M170.267 364.303L169.942 370.32C169.942 370.32 167.339 374.378 167.99 376.591C168.64 378.804 171.243 378.435 175.147 378.435C179.052 378.435 181.817 375.3 181.817 372.533C181.817 369.767 181.454 362.443 181.454 362.443C181.454 362.443 179.786 360.743 176.084 360.921C172.382 361.099 170.267 364.303 170.267 364.303Z" fill="#263238" stroke="#263238" stroke-miterlimit="10" stroke-linecap="round" stroke-linejoin="round"/>
<path d="M180.863 375.423C179.848 374.564 178.095 373.572 175.961 374.378C173.106 375.457 171.386 377.433 169.284 378.054C170.538 378.595 172.553 378.436 175.148 378.436C177.684 378.435 179.735 377.109 180.863 375.423Z" fill="white" stroke="#263238" stroke-miterlimit="10" stroke-linecap="round" stroke-linejoin="round"/>
<path d="M188.472 35.0298H184.465V54.3811H188.472V35.0298Z" fill="#92E3A9" stroke="#263238" stroke-miterlimit="10" stroke-linecap="round" stroke-linejoin="round"/>
<path d="M192.39 58.5278H180.546L181.94 51.0247H190.997L192.39 58.5278Z" fill="#92E3A9" stroke="#263238" stroke-miterlimit="10" stroke-linecap="round" stroke-linejoin="round"/>
<path d="M199.531 61.6876H173.405L176.192 54.7764H196.745L199.531 61.6876Z" fill="#92E3A9" stroke="#263238" stroke-miterlimit="10" stroke-linecap="round" stroke-linejoin="round"/>
<path d="M173.231 14.5452C168.133 14.5452 164 19.3194 164 25.2079C164 31.0964 168.133 35.8707 173.231 35.8707C178.329 35.8707 182.462 31.0964 182.462 25.2079C182.462 19.3194 178.329 14.5452 173.231 14.5452ZM173.231 33.1613C169.428 33.1613 166.346 29.6006 166.346 25.2079C166.346 20.8153 169.428 17.2545 173.231 17.2545C177.034 17.2545 180.116 20.8153 180.116 25.2079C180.116 29.6006 177.034 33.1613 173.231 33.1613Z" fill="#92E3A9" stroke="#263238" stroke-miterlimit="10" stroke-linecap="round" stroke-linejoin="round"/>
<path d="M201.099 14.5452C196.001 14.5452 191.868 19.3194 191.868 25.2079C191.868 31.0964 196.001 35.8707 201.099 35.8707C206.198 35.8707 210.33 31.0964 210.33 25.2079C210.33 19.3194 206.198 14.5452 201.099 14.5452ZM201.099 33.1613C197.296 33.1613 194.214 29.6006 194.214 25.2079C194.214 20.8153 197.296 17.2545 201.099 17.2545C204.902 17.2545 207.985 20.8153 207.985 25.2079C207.985 29.6006 204.902 33.1613 201.099 33.1613Z" fill="#92E3A9" stroke="#263238" stroke-miterlimit="10" stroke-linecap="round" stroke-linejoin="round"/>
<path d="M186.468 40.3611C180.024 40.3611 174.799 34.4378 174.799 27.1314V13.5066H198.139V27.1314C198.139 34.4378 192.914 40.3611 186.468 40.3611Z" fill="#92E3A9" stroke="#263238" stroke-miterlimit="10" stroke-linecap="round" stroke-linejoin="round"/>
<path d="M178.341 20.7708L183.273 30.6678L184.581 27.3546L187.784 27.9457L181.089 18.4277L178.341 20.7708Z" fill="#263238" stroke="#263238" stroke-miterlimit="10" stroke-linecap="round" stroke-linejoin="round"/>
<path d="M178.074 19.6018L176.356 30.8013L179.22 29.1783L181.367 31.9377L181.511 19.7646L178.074 19.6018Z" fill="#263238" stroke="#263238" stroke-miterlimit="10" stroke-linecap="round" stroke-linejoin="round"/>
<path d="M185.376 16.6808C185.376 13.5432 183.132 11 180.365 11C177.597 11 175.354 13.5432 175.354 16.6808C175.354 19.8184 177.597 22.3615 180.365 22.3615C183.132 22.3615 185.376 19.8184 185.376 16.6808Z" fill="white" stroke="#263238" stroke-miterlimit="10" stroke-linecap="round" stroke-linejoin="round"/>
<path d="M184.231 16.6808C184.231 14.2606 182.5 12.2983 180.365 12.2983C178.23 12.2983 176.499 14.2606 176.499 16.6808C176.499 19.101 178.23 21.0633 180.365 21.0633C182.5 21.0633 184.231 19.101 184.231 16.6808Z" fill="white" stroke="#263238" stroke-miterlimit="10" stroke-linecap="round" stroke-linejoin="round"/>
<path d="M179.234 14.4764C179.845 14.4764 179.982 14.1423 180.104 13.759H180.636V19.4627H179.845V15.1116H179.234V14.4764Z" fill="#263238"/>
<path d="M223.981 187.17C223.382 183.316 222.517 173.755 227.647 169.065C234.161 163.109 238.784 173.829 244.458 165.491C250.131 157.154 251.812 139.048 268.623 139.287C285.433 139.525 286.693 150.245 286.693 153.818C286.693 157.391 291.736 160.012 292.787 160.012C293.838 160.012 299.722 156.915 301.823 163.823C303.924 170.732 302.499 174.728 305.839 174.874C309.178 175.02 313.325 169.856 317.87 172.438C322.416 175.02 322.416 180.499 324.307 182.405C326.198 184.31 329.35 180.975 333.553 182.881C336.1 184.036 336.867 185.887 337.08 187.17H223.981Z" fill="white" stroke="black" stroke-miterlimit="10"/>
<path d="M231.822 60.0748C231.626 58.8087 231.341 55.6669 233.027 54.1252C235.168 52.168 236.687 55.6906 238.551 52.9507C240.415 50.2108 240.968 44.2613 246.492 44.3401C252.016 44.4181 252.431 47.9407 252.431 49.1152C252.431 50.2897 254.087 51.1504 254.433 51.1504C254.778 51.1504 256.711 50.1328 257.402 52.4029C258.092 54.673 257.624 55.9857 258.721 56.0341C259.819 56.0815 261.181 54.3855 262.675 55.2335C264.169 56.0815 264.169 57.8827 264.791 58.5085C265.412 59.1352 266.447 58.0387 267.829 58.6654C268.666 59.0453 268.918 59.6533 268.988 60.0748H231.822Z" fill="white" stroke="black" stroke-miterlimit="10"/>
<path d="M222.89 113.739C222.525 111.388 221.997 105.556 225.127 102.695C229.1 99.0617 231.92 105.601 235.382 100.514C238.843 95.428 239.869 84.3837 250.123 84.5295C260.377 84.6745 261.147 91.2143 261.147 93.3937C261.147 95.573 264.223 97.1723 264.864 97.1723C265.505 97.1723 269.094 95.283 270.376 99.4976C271.659 103.712 270.789 106.149 272.826 106.238C274.863 106.327 277.393 103.178 280.166 104.753C282.938 106.327 282.938 109.67 284.092 110.833C285.245 111.995 287.168 109.961 289.732 111.124C291.285 111.828 291.754 112.957 291.884 113.74L222.89 113.739Z" fill="white" stroke="black" stroke-miterlimit="10"/>
<path d="M165.694 43.1385C165.958 41.4417 166.339 37.2305 164.079 35.1648C161.21 32.5419 159.174 37.2636 156.675 33.5909C154.176 29.9182 153.436 21.9445 146.032 22.0496C138.628 22.1548 138.073 26.8764 138.073 28.4495C138.073 30.0234 135.852 31.1775 135.389 31.1775C134.926 31.1775 132.335 29.8131 131.409 32.8565C130.484 35.8991 131.112 37.6596 129.641 37.724C128.17 37.7885 126.344 35.5142 124.341 36.6513C122.34 37.7885 122.34 40.2019 121.507 41.0414C120.674 41.8809 119.286 40.4122 117.434 41.2509C116.312 41.7597 115.974 42.5746 115.881 43.1394H165.694V43.1385Z" fill="white" stroke="black" stroke-miterlimit="10"/>
<path d="M178.44 160.598C179.177 155.853 180.243 144.08 173.926 138.305C165.905 130.972 160.213 144.172 153.227 133.905C146.241 123.639 144.172 101.346 123.472 101.64C102.774 101.933 101.222 115.132 101.222 119.532C101.222 123.933 95.0116 127.158 93.7184 127.158C92.4251 127.158 85.1799 123.345 82.5926 131.851C80.0053 140.358 81.7593 145.278 77.6483 145.458C73.5373 145.638 68.43 139.281 62.8334 142.459C57.2369 145.638 57.2369 152.384 54.9084 154.73C52.5798 157.077 48.6985 152.971 43.5238 155.317C40.3882 156.739 39.4427 159.018 39.1802 160.597H178.44V160.598Z" fill="white" stroke="black" stroke-miterlimit="10"/>
<path d="M126.32 112.546C126.553 111.044 126.891 107.316 124.891 105.488C122.351 103.166 120.548 107.346 118.336 104.094C116.124 100.843 115.468 93.7844 108.914 93.8769C102.359 93.9693 101.868 98.1491 101.868 99.5424C101.868 100.936 99.9014 101.957 99.4922 101.957C99.0823 101.957 96.7882 100.75 95.9692 103.444C95.1501 106.137 95.7051 107.696 94.4036 107.753C93.1013 107.81 91.4849 105.796 89.7121 106.803C87.9394 107.81 87.9401 109.946 87.2026 110.689C86.4651 111.432 85.2361 110.132 83.598 110.875C82.6054 111.325 82.3054 112.047 82.2224 112.547L126.32 112.546Z" fill="white" stroke="black" stroke-miterlimit="10"/>
</svg>
