<svg width="525" height="527" viewBox="0 0 525 527" fill="none" xmlns="http://www.w3.org/2000/svg">
<path d="M489.436 348.178C479.724 390.844 466.095 432.425 447.919 459.038C437.545 474.258 425.67 484.576 412.198 487.412C341.029 502.379 137.707 496.929 103.141 482.648C96.7049 479.992 88.3889 470.621 79.4324 456.477C63.6929 431.613 45.9899 391.972 33.0644 347.946C13.8494 282.514 5.19743 207.396 29.2634 156.761C54.0854 104.557 103.11 71.6825 145.824 51.8884C193.483 29.8071 247.18 24.4 298.336 36.247C306.684 38.1864 315.724 40.463 325.447 43.1507C391.86 61.5219 508.431 147.918 509.113 198.268C509.439 222.404 503.527 286.424 489.436 348.178Z" fill="#92E3A9"/>
<path opacity="0.7" d="M489.436 348.178C479.724 390.844 466.095 432.425 447.919 459.038C437.545 474.258 425.67 484.576 412.198 487.412C341.029 502.379 137.707 496.929 103.141 482.648C96.7049 479.992 88.3889 470.621 79.4324 456.477C63.6929 431.613 45.9899 391.972 33.0644 347.946C13.8494 282.514 5.19743 207.396 29.2634 156.761C54.0854 104.557 103.11 71.6825 145.824 51.8884C193.483 29.8071 247.18 24.4 298.336 36.247C306.684 38.1864 315.724 40.463 325.447 43.1507C391.86 61.5219 508.431 147.918 509.113 198.268C509.439 222.404 503.527 286.424 489.436 348.178Z" fill="white"/>
<path d="M498.813 300.179C496.219 315.842 493.111 332.084 489.436 348.178C479.724 390.844 466.095 432.425 447.919 459.038C437.545 474.258 425.67 484.577 412.198 487.412C341.029 502.379 137.707 496.929 103.141 482.648C96.7049 479.992 88.3889 470.622 79.4324 456.477C63.6929 431.613 45.9899 391.972 33.0644 347.947C28.5284 332.505 24.5804 316.516 21.5249 300.443L101.398 266.82L128.761 268.348L134.085 269.877L149.289 245.456L191.845 214.173L210.094 220.276L257.974 328.627L283.825 319.467L299.019 289.713L310.422 286.656L351.466 243.168L387.954 250.799L391.755 262.246L408.481 280.554L460.929 304.206L473.844 284.369L489.048 285.898L498.813 300.179Z" fill="#263238"/>
<path opacity="0.7" d="M498.813 300.179C498.13 304.311 497.406 308.485 496.639 312.69C494.539 324.4 492.145 336.331 489.436 348.178C479.724 390.844 466.095 432.425 447.919 459.038C437.545 474.258 425.67 484.577 412.198 487.412C341.029 502.379 137.707 496.929 103.141 482.648C96.7049 479.992 88.3889 470.622 79.4324 456.477C63.6929 431.613 45.9899 391.972 33.0644 347.947C28.5284 332.505 24.5804 316.516 21.5249 300.443L101.398 266.82L128.761 268.348L134.085 269.877L149.289 245.456L186.847 217.851L191.845 214.173L210.094 220.276L257.974 328.627L283.825 319.467L299.019 289.713L310.422 286.656L351.466 243.168L387.954 250.799L391.755 262.246L408.481 280.554L460.929 304.206L470.736 289.144L473.844 284.369L489.048 285.898L498.813 300.179Z" fill="white"/>
<path d="M210.094 220.276L257.974 328.627L246.582 331.673L200.97 312.606L213.129 298.862L234.412 310.308L203.248 251.558L206.293 238.594L187.288 218.758L186.847 217.851L191.845 214.173L210.094 220.276Z" fill="white"/>
<path d="M408.481 280.554L460.929 304.206L449.526 313.365L385.675 309.549L382.63 298.862L400.113 287.426L380.352 275.979L377.317 266.82L362.869 260.718L351.466 243.168L387.954 250.799L391.755 262.246L408.481 280.554Z" fill="white"/>
<path d="M498.813 300.179C498.13 304.311 497.406 308.485 496.639 312.69L480.69 292L470.736 289.144L473.844 284.369L489.048 285.897L498.813 300.179Z" fill="white"/>
<path d="M173.894 353.33L167.474 357.626L172.289 366.756L178.709 364.608L181.919 359.237L173.894 353.33Z" fill="#263238"/>
<path d="M170.149 384.478L168.009 391.46L172.824 393.608L174.43 387.7L170.149 384.478Z" fill="#263238"/>
<path d="M191.839 378.055L187.273 376.902L186.053 380.098L189.909 380.94L191.839 378.055Z" fill="#263238"/>
<path d="M489.437 344.784V348.178C489.269 348.906 489.101 349.643 488.933 350.371C486.35 361.575 483.483 372.673 480.344 383.435C477.855 391.993 475.178 400.33 472.311 408.33C465.318 427.913 457.212 445.431 447.92 459.038L422.688 437.536L401.499 424.741L393.855 403.629L367.721 380.599C367.721 380.599 361.988 363.967 364.539 358.855C365.274 357.39 367.553 354.629 370.524 351.393C377.958 343.298 389.666 332.263 391.944 331.346C395.126 330.071 489.437 344.784 489.437 344.784Z" fill="#263238"/>
<path opacity="0.3" d="M489.437 344.784V348.178C489.269 348.906 489.101 349.643 488.933 350.371L444.602 345.269L449.421 349.57L430.7 356.02L393.246 336.679L370.524 351.393C377.958 343.298 389.666 332.263 391.944 331.346C395.126 330.071 489.437 344.784 489.437 344.784Z" fill="white"/>
<path opacity="0.3" d="M480.344 383.435C477.855 391.993 475.178 400.331 472.311 408.33C471.324 407.824 470.295 407.213 469.214 406.496C448.886 393.068 440.864 393.068 440.864 393.068L438.186 382.866L478.842 383.941L480.344 383.435Z" fill="white"/>
<path d="M159.421 375.456C157.185 380.409 149.919 387.903 147.882 388.915C145.33 390.201 133.224 404.904 133.224 404.904L128.131 419.618L120.487 433.689L104.842 440.73L83.5275 450.321L79.4325 456.477C65.121 433.868 49.182 399.044 36.6975 359.814C35.448 355.904 34.2405 351.941 33.0645 347.946L38.2935 346.755L105.829 331.346C105.829 331.346 144.06 337.743 147.241 339.662C150.433 341.58 158.718 368.446 159.988 372.283C160.251 373.074 160.009 374.18 159.421 375.456Z" fill="#263238"/>
<path opacity="0.3" d="M159.421 375.456L133.77 378.038L140.185 352.257L110.229 342.592L38.2935 346.755L105.829 331.346C105.829 331.346 144.06 337.743 147.241 339.662C150.433 341.58 158.718 368.446 159.988 372.283C160.251 373.074 160.009 374.18 159.421 375.456Z" fill="white"/>
<g opacity="0.3">
<path d="M448.784 185.842C448.784 185.842 441.836 168.365 427.432 166.299C413.028 164.233 408.315 183.087 397.341 184.465C386.366 185.842 382.937 172.76 374.706 176.891C366.475 181.021 367.161 191.349 362.36 192.726C357.559 194.104 349.328 188.595 346.584 194.104C343.84 199.612 341.097 205.808 341.097 205.808C341.097 205.808 336.982 208.562 330.808 209.939C324.635 211.316 317.775 209.939 316.404 212.693H489.252C489.252 212.693 489.937 196.857 479.649 192.726C469.36 188.596 457.905 201.986 448.784 185.842Z" stroke="black" stroke-miterlimit="10"/>
<path d="M105.224 191.863C105.224 191.863 102.025 183.817 95.3946 182.867C88.7639 181.916 86.5946 190.596 81.542 191.229C76.4904 191.863 74.9112 185.841 71.1218 187.742C67.3323 189.644 67.6484 194.398 65.4381 195.032C63.2279 195.665 59.4384 193.13 58.1763 195.665C56.9142 198.2 55.65 201.053 55.65 201.053C55.65 201.053 53.7558 202.321 50.9135 202.955C48.0711 203.588 44.9138 202.955 44.2827 204.223H123.852C123.852 204.223 124.168 196.933 119.431 195.031C114.696 193.13 109.423 199.294 105.224 191.863Z" stroke="black" stroke-miterlimit="10"/>
<path d="M263.596 42.2516C263.596 42.2516 260.617 34.7587 254.442 33.8733C248.267 32.988 246.247 41.0711 241.542 41.6613C236.837 42.2516 235.367 36.6433 231.838 38.414C228.309 40.1847 228.603 44.6126 226.545 45.2028C224.487 45.793 220.958 43.4321 219.782 45.793C218.606 48.155 217.43 50.8111 217.43 50.8111C217.43 50.8111 215.666 51.9916 213.019 52.5818C210.373 53.1721 207.432 52.5818 206.844 53.7623H280.948C280.948 53.7623 281.242 46.9735 276.83 45.2017C272.417 43.4321 267.506 49.1732 263.596 42.2516Z" stroke="black" stroke-miterlimit="10"/>
<path d="M192.652 47.1232C192.652 47.1232 190.934 42.8007 187.371 42.2906C183.81 41.7794 182.644 46.4423 179.93 46.7827C177.216 47.1232 176.368 43.8884 174.333 44.9098C172.298 45.9311 172.467 48.4849 171.279 48.8254C170.092 49.1658 168.057 47.804 167.378 49.1658C166.7 50.5276 166.022 52.0601 166.022 52.0601C166.022 52.0601 165.004 52.741 163.478 53.0814C161.951 53.4219 160.255 53.0814 159.916 53.7623H202.659C202.659 53.7623 202.83 49.8467 200.285 48.8243C197.74 47.804 194.907 51.1157 192.652 47.1232Z" stroke="black" stroke-miterlimit="10"/>
</g>
<path opacity="0.3" d="M423.679 116.511C443.829 116.511 460.164 100.114 460.164 79.888C460.164 59.6615 443.829 43.2646 423.679 43.2646C403.529 43.2646 387.195 59.6615 387.195 79.888C387.195 100.114 403.529 116.511 423.679 116.511Z" stroke="black" stroke-miterlimit="10"/>
<path d="M176.924 280.507L166.727 281.482C166.727 281.482 159.201 279.532 158.473 281.239C157.745 282.944 157.988 289.524 158.958 292.449C159.93 295.374 159.201 300.004 159.687 302.685C160.173 305.365 165.514 313.895 166.485 314.138C167.456 314.382 169.155 312.188 169.155 311.214C169.155 310.239 169.398 299.76 169.64 298.541C169.883 297.323 173.039 289.281 173.039 289.281L177.652 288.549L176.924 280.507Z" fill="white" stroke="#263238" stroke-miterlimit="10" stroke-linecap="round" stroke-linejoin="round"/>
<path d="M172.172 291.515L167.941 289.28L167.787 281.38L166.727 281.481C166.727 281.481 159.201 279.531 158.473 281.238C157.745 282.943 157.988 289.523 158.958 292.448C159.93 295.373 159.201 300.003 159.687 302.683C160.172 305.364 165.514 313.894 166.485 314.137C167.456 314.381 169.155 312.187 169.155 311.212C169.155 310.237 169.398 299.759 169.64 298.54C169.8 297.739 171.218 293.991 172.172 291.515Z" fill="#263238" stroke="#263238" stroke-miterlimit="10" stroke-linecap="round" stroke-linejoin="round"/>
<path d="M239.074 223.239L228.634 262.474C228.634 262.474 199.016 269.298 196.588 270.516C194.161 271.735 174.01 279.533 174.01 279.533L177.652 292.449C177.652 292.449 235.431 278.315 237.374 277.827C239.316 277.34 241.5 277.095 242.471 275.634C243.443 274.172 263.35 241.516 266.506 236.642C269.662 231.768 241.986 228.6 239.074 223.239Z" fill="#263238" stroke="#263238" stroke-miterlimit="10" stroke-linecap="round" stroke-linejoin="round"/>
<path d="M274.203 134.727C274.203 134.727 250.418 125.306 247.828 125.631C245.239 125.955 218.703 129.528 217.571 130.016C216.438 130.503 181.699 159.554 180.276 160.983C178.852 162.412 178.723 163.192 177.946 164.751C177.169 166.31 175.487 169.948 175.227 170.599C174.968 171.248 172.768 176.316 173.415 176.446C174.062 176.576 177.298 173.327 177.298 173.327C177.298 173.327 175.615 177.356 177.038 176.705C178.462 176.056 181.181 171.768 181.569 171.379C181.958 170.989 188.301 167.35 188.301 167.35C188.301 167.35 186.359 171.898 186.877 173.198C187.395 174.497 188.689 174.107 188.818 173.198C188.948 172.288 188.689 172.159 189.854 170.469C191.019 168.779 191.795 166.571 191.795 165.272C191.795 163.972 191.666 159.034 191.666 159.034L222.1 143.985L244.106 144.634L251.55 152.593C251.55 152.593 247.019 191.25 246.857 192.062C246.695 192.875 245.077 194.173 244.592 195.961C244.107 197.748 244.916 198.56 246.049 198.885C247.182 199.209 266.275 206.357 270.806 208.468C275.336 210.579 277.925 212.041 279.058 211.229C280.19 210.417 282.617 205.706 282.617 205.706L295.4 181.017L301.225 172.572C301.225 172.572 318.053 174.683 326.144 174.521C334.234 174.358 336.5 171.11 336.985 169.486C336.985 169.486 332.939 170.135 329.541 167.05C326.144 163.964 322.908 158.604 322.908 158.604C322.908 158.604 311.42 155.68 309.963 154.705C308.507 153.73 306.242 152.27 298.475 147.234C290.708 142.199 288.443 141.386 288.443 141.386L274.203 134.727Z" fill="white" stroke="#263238" stroke-miterlimit="10" stroke-linecap="round" stroke-linejoin="round"/>
<path d="M251.55 152.594C251.55 152.594 247.019 191.251 246.857 192.063C246.696 192.875 245.078 194.174 244.591 195.962C244.106 197.749 244.915 198.561 246.048 198.886C247.181 199.21 266.274 206.358 270.805 208.469C275.335 210.58 277.924 212.042 279.057 211.23C280.19 210.418 282.616 205.707 282.616 205.707L295.399 181.018L301.224 172.573C301.224 172.573 318.053 174.684 326.143 174.522C334.233 174.359 336.499 171.111 336.984 169.487C336.984 169.487 332.938 170.136 329.541 167.051C326.143 163.965 322.907 158.605 322.907 158.605C322.907 158.605 311.419 155.681 309.962 154.706C308.506 153.731 306.241 152.271 298.474 147.235C290.707 142.2 288.443 141.387 288.443 141.387L274.203 134.728C274.203 134.728 250.418 125.307 247.829 125.632C245.239 125.956 218.704 129.529 217.571 130.017C217.496 130.049 217.272 130.209 216.93 130.469C218.362 133.067 221.259 138.793 222.101 143.986L244.107 144.635L251.55 152.594Z" fill="#92E3A9" stroke="#263238" stroke-miterlimit="10" stroke-linecap="round" stroke-linejoin="round"/>
<path d="M244.106 144.636L239.738 139.275" stroke="#263238" stroke-miterlimit="10" stroke-linecap="round" stroke-linejoin="round"/>
<path d="M309.639 163.313L301.224 172.572L318.862 163.476" stroke="#263238" stroke-miterlimit="10" stroke-linecap="round" stroke-linejoin="round"/>
<path d="M177.298 173.327C177.298 173.327 181.326 166.724 182.944 165.262" stroke="#263238" stroke-miterlimit="10" stroke-linecap="round" stroke-linejoin="round"/>
<path d="M175.986 169.161L181.326 162.826" stroke="#263238" stroke-miterlimit="10" stroke-linecap="round" stroke-linejoin="round"/>
<path d="M275.542 151.282L276.38 159.407C276.38 159.407 266.052 165.572 263.4 164.31C260.747 163.048 243.86 151.701 242.744 152.122C241.628 152.542 220.414 159.407 217.482 159.968C214.552 160.528 211.62 160.949 211.62 160.949L204.502 169.214L219.994 174.678C219.994 174.678 231.299 167.533 235.625 164.872C239.951 162.209 244.278 159.548 244.278 159.548C244.278 159.548 261.444 169.915 262.003 169.775C262.562 169.635 278.053 160.528 278.053 160.528C278.053 160.528 281.822 159.268 283.636 157.867C285.451 156.466 287.803 150.848 288.441 150.645C289.079 150.442 289.638 149.181 289.638 149.181L287.405 149.041L281.961 155.206L278.472 154.085L277.774 147.92L275.542 151.282Z" fill="#263238" stroke="#263238" stroke-miterlimit="10" stroke-linecap="round" stroke-linejoin="round"/>
<path d="M280.999 155.68L288.441 150.644L294.267 159.091L290.707 142.198L283.912 151.132L280.999 155.68Z" fill="#92E3A9" stroke="#263238" stroke-miterlimit="10" stroke-linecap="round" stroke-linejoin="round"/>
<path d="M304.137 119.784C304.137 119.784 305.431 123.032 304.46 124.332C303.489 125.631 303.004 126.281 303.004 126.281C303.004 126.281 307.211 130.991 306.24 132.128C305.269 133.266 303.65 133.915 303.65 133.915C303.65 133.915 300.414 141.224 299.605 142.036C298.796 142.847 294.912 141.549 294.912 141.549L280.997 155.68L280.512 148.046L276.952 133.103L277.762 131.479C277.762 131.479 278.571 118.972 283.264 114.75C287.956 110.527 296.37 110.689 300.577 112.801C304.784 114.911 304.137 119.784 304.137 119.784Z" fill="white" stroke="#263238" stroke-miterlimit="10" stroke-linecap="round" stroke-linejoin="round"/>
<path d="M294.913 141.549L291.365 139.021L290.832 145.265L294.913 141.549Z" fill="#263238" stroke="#263238" stroke-miterlimit="10" stroke-linecap="round" stroke-linejoin="round"/>
<path d="M288.28 122.708L290.383 122.545C290.383 122.545 290.706 120.109 291.516 119.784C292.325 119.459 293.134 120.433 294.59 119.135C296.046 117.835 296.531 114.424 299.444 114.587C302.357 114.749 303.813 117.348 304.137 119.784C304.46 122.221 309.476 119.297 310.124 117.51C310.771 115.724 311.903 111.338 310.285 110.851C308.667 110.364 306.078 113.288 305.916 112.8C305.755 112.313 306.401 105.328 303.813 105.979C301.224 106.628 300.254 107.765 300.254 107.765C300.254 107.765 291.031 102.73 286.661 104.03C282.292 105.329 276.63 109.552 276.144 112.638C275.659 115.724 276.305 132.616 277.762 131.479C279.218 130.342 286.014 124.17 286.014 124.17L288.28 122.708Z" fill="#263238" stroke="#263238" stroke-miterlimit="10" stroke-linecap="round" stroke-linejoin="round"/>
<path d="M288.928 124.17C288.928 124.17 288.281 117.186 284.882 119.297C281.484 121.408 282.779 126.119 283.587 127.256C284.396 128.393 286.823 127.58 286.823 127.58" fill="white"/>
<path d="M288.928 124.17C288.928 124.17 288.281 117.186 284.882 119.297C281.484 121.408 282.779 126.119 283.587 127.256C284.396 128.393 286.823 127.58 286.823 127.58" stroke="#263238" stroke-miterlimit="10" stroke-linecap="round" stroke-linejoin="round"/>
<path d="M285.205 127.905C285.205 127.905 285.043 133.915 286.014 134.889C286.986 135.864 289.897 137.812 289.897 137.812" stroke="#263238" stroke-miterlimit="10" stroke-linecap="round" stroke-linejoin="round"/>
<path d="M303.49 123.032C303.49 123.032 302.519 120.921 300.416 121.408" stroke="#263238" stroke-miterlimit="10" stroke-linecap="round" stroke-linejoin="round"/>
<path d="M298.636 133.59C298.636 133.59 301.062 133.915 301.387 135.377" stroke="#263238" stroke-miterlimit="10" stroke-linecap="round" stroke-linejoin="round"/>
<path d="M301.872 125.388C301.872 126.06 301.582 126.606 301.225 126.606C300.868 126.606 300.578 126.061 300.578 125.388C300.578 124.715 300.868 124.169 301.225 124.169C301.582 124.169 301.872 124.714 301.872 125.388Z" fill="#263238"/>
<path d="M276.953 133.103L280.513 148.046L272.422 157.304L272.584 134.24L276.953 133.103Z" fill="#92E3A9" stroke="#263238" stroke-miterlimit="10" stroke-linecap="round" stroke-linejoin="round"/>
<path d="M215.791 131.153C215.791 131.153 218.056 134.402 218.865 137.326C219.674 140.25 220.483 145.609 220.483 145.609C220.483 145.609 220.483 146.258 223.234 145.609C225.985 144.96 226.793 146.746 227.118 143.336C227.442 139.925 226.308 133.915 225.015 130.991C223.72 128.067 225.015 128.067 223.073 128.067C221.132 128.067 216.114 129.042 215.791 131.153Z" fill="#92E3A9" stroke="#263238" stroke-miterlimit="10" stroke-linecap="round" stroke-linejoin="round"/>
<path d="M324.363 153.73C324.363 153.73 318.699 159.578 319.347 160.552C319.995 161.526 329.217 170.947 331.321 171.597C333.424 172.246 335.69 172.246 338.279 169.485C340.868 166.724 338.764 162.338 337.632 160.227C336.499 158.116 325.819 153.081 324.363 153.73Z" fill="#92E3A9" stroke="#263238" stroke-miterlimit="10" stroke-linecap="round" stroke-linejoin="round"/>
<path d="M332.291 119.784C332.291 119.784 323.878 155.68 323.391 157.141C322.906 158.603 329.054 165.262 331.32 165.749C333.585 166.236 336.659 165.098 337.145 162.663C337.63 160.227 338.117 156.003 338.117 156.003L338.278 115.235C338.278 115.235 332.291 105.327 330.997 105.327C329.702 105.327 323.878 110.687 324.363 111.824C324.848 112.961 325.981 115.723 327.114 116.21C328.247 116.697 328.57 117.022 329.217 117.185C329.864 117.348 332.291 119.784 332.291 119.784Z" fill="white" stroke="#263238" stroke-miterlimit="10" stroke-linecap="round" stroke-linejoin="round"/>
<path d="M337.762 114.474C337.762 114.474 333.101 102.73 331.968 103.055C330.835 103.38 325.011 105.816 325.011 106.466C325.011 107.115 324.849 109.714 325.172 110.363C325.496 111.013 331.321 116.373 331.806 116.698C332.291 117.023 332.13 117.347 333.586 116.698C335.042 116.049 336.175 114.587 335.204 114.261" fill="white"/>
<path d="M337.762 114.474C337.762 114.474 333.101 102.73 331.968 103.055C330.835 103.38 325.011 105.816 325.011 106.466C325.011 107.115 324.849 109.714 325.172 110.363C325.496 111.013 331.321 116.373 331.806 116.698C332.291 117.023 332.13 117.347 333.586 116.698C335.042 116.049 336.175 114.587 335.204 114.261" stroke="#263238" stroke-miterlimit="10" stroke-linecap="round" stroke-linejoin="round"/>
<path d="M324.556 107.845C324.556 107.845 321.969 108.652 322.058 109.727C322.147 110.802 324.289 113.13 324.824 113.22C325.359 113.309 326.43 112.951 326.43 112.324C326.429 111.697 324.556 107.845 324.556 107.845Z" fill="white" stroke="#263238" stroke-miterlimit="10" stroke-linecap="round" stroke-linejoin="round"/>
<path d="M335.531 111.16C335.531 111.16 331.337 112.683 331.337 113.309C331.337 113.936 331.806 116.698 331.806 116.698" fill="white"/>
<path d="M335.531 111.16C335.531 111.16 331.337 112.683 331.337 113.309C331.337 113.936 331.806 116.698 331.806 116.698" stroke="#263238" stroke-miterlimit="10" stroke-linecap="round" stroke-linejoin="round"/>
<path d="M334.461 108.652C334.461 108.652 329.285 110.354 329.285 111.159C329.285 111.965 329.553 114.652 329.553 114.652" stroke="#263238" stroke-miterlimit="10" stroke-linecap="round" stroke-linejoin="round"/>
<path d="M333.3 105.517C333.3 105.517 326.787 107.756 326.787 108.831C326.787 109.906 327.323 112.413 327.323 112.413" stroke="#263238" stroke-miterlimit="10" stroke-linecap="round" stroke-linejoin="round"/>
<path d="M332.291 119.784C332.291 119.784 333.479 120.833 334.549 120.922" stroke="#263238" stroke-miterlimit="10" stroke-linecap="round" stroke-linejoin="round"/>
<path d="M341.219 290.818L345.216 292.69C345.216 292.69 353.682 287.45 356.993 285.973C360.305 284.496 361.961 281.845 362.947 282.329C363.933 282.815 361.162 290.697 359.935 292.622C358.707 294.545 354.131 300.673 352.55 301.701C350.969 302.728 343.884 309.538 341.486 310.073C339.088 310.607 336.158 302.585 335.625 301.515C335.093 300.446 332.694 296.434 332.694 296.434L341.219 290.818Z" fill="white" stroke="#263238" stroke-miterlimit="10" stroke-linecap="round" stroke-linejoin="round"/>
<path d="M335.625 301.516C336.157 302.585 339.088 310.607 341.486 310.073C343.884 309.538 350.968 302.729 352.55 301.701C354.131 300.673 358.707 294.547 359.935 292.622C361.162 290.698 363.933 282.815 362.947 282.33C361.961 281.844 360.305 284.497 356.994 285.973C353.682 287.45 345.216 292.69 345.216 292.69L345.376 296.421L335.625 301.516Z" fill="#263238" stroke="#263238" stroke-miterlimit="10" stroke-linecap="round" stroke-linejoin="round"/>
<path d="M246.049 198.885C246.049 198.885 239.316 209.105 237.131 216.416C234.946 223.726 239.316 230.306 243.686 232.743C248.056 235.18 260.68 237.86 265.536 238.592C270.391 239.323 297.824 240.054 297.824 240.054C297.824 240.054 307.334 264.795 310.733 270.156C314.132 275.518 325.057 291.357 325.057 291.357L329.427 300.374L344.479 289.895C344.479 289.895 334.282 272.836 333.797 271.131C333.312 269.426 313.605 225.188 312.391 223.726C311.177 222.264 279.131 212.759 279.131 212.759C279.131 212.759 250.596 198.411 246.049 198.885Z" fill="#263238" stroke="#263238" stroke-miterlimit="10" stroke-linecap="round" stroke-linejoin="round"/>
<path d="M243.442 212.029C243.442 212.029 251.211 208.374 254.368 207.642C257.524 206.911 279.057 211.228 279.057 211.228" stroke="white" stroke-miterlimit="10" stroke-linecap="round" stroke-linejoin="round"/>
<path d="M244.657 207.155C244.657 207.155 249.027 205.205 253.154 205.45" stroke="white" stroke-miterlimit="10" stroke-linecap="round" stroke-linejoin="round"/>
</svg>
