<svg width="25" height="24" viewBox="0 0 25 24" fill="none" xmlns="http://www.w3.org/2000/svg">
<path d="M20.7005 14.06L19.5682 12.18C19.3177 11.77 19.0972 10.98 19.0972 10.5V8.63005C19.0972 5.00005 16.1411 2.05005 12.5136 2.05005C8.87606 2.06005 5.91994 5.00005 5.91994 8.63005V10.49C5.91994 10.97 5.69948 11.76 5.45898 12.17L4.32664 14.05C3.89575 14.78 3.79554 15.61 4.0661 16.33C4.33666 17.06 4.94793 17.64 5.74958 17.9C6.83183 18.26 7.92409 18.52 9.03639 18.71C9.14662 18.73 9.25685 18.74 9.36707 18.76C9.50736 18.7801 9.65768 18.8 9.80799 18.82C10.0685 18.8601 10.3291 18.89 10.5996 18.91C11.2309 18.97 11.8723 19 12.5136 19C13.1449 19 13.7762 18.97 14.3975 18.91C14.628 18.89 14.8584 18.8701 15.0789 18.84C15.2593 18.82 15.4396 18.8001 15.62 18.7701C15.7302 18.76 15.8405 18.74 15.9507 18.72C17.073 18.54 18.1853 18.26 19.2676 17.9C20.0392 17.64 20.6304 17.06 20.911 16.32C21.1916 15.57 21.1114 14.75 20.7005 14.06ZM13.2451 10C13.2451 10.42 12.9044 10.76 12.4835 10.76C12.0627 10.76 11.7219 10.42 11.7219 10V6.90005C11.7219 6.48005 12.0627 6.14005 12.4835 6.14005C12.9044 6.14005 13.2451 6.48005 13.2451 6.90005V10Z" fill="#A0FFBA"/>
<path d="M15.3297 20.01C14.9088 21.17 13.7965 22 12.4938 22C11.7022 22 10.9206 21.68 10.3694 21.11C10.0488 20.81 9.80826 20.41 9.66797 20C9.79824 20.02 9.92851 20.03 10.0688 20.05C10.2993 20.08 10.5398 20.11 10.7803 20.13C11.3515 20.18 11.9327 20.21 12.5139 20.21C13.085 20.21 13.6562 20.18 14.2174 20.13C14.4278 20.11 14.6383 20.1 14.8387 20.07C14.999 20.05 15.1593 20.03 15.3297 20.01Z" fill="#A0FFBA"/>
</svg>
